<svg xmlns="http://www.w3.org/2000/svg" data-name="Layer 1" viewBox="0 0 128 160" x="0px" y="0px" fill="#fff" height="20" width="20"><title>final</title><path d="M127,103.24921H1a1,1,0,0,0,0,2H16.748a.97191.97191,0,0,0-.1543.50146v6.49854a1,1,0,1,0,2,0v-6.49854a.97191.97191,0,0,0-.1543-.50146H47.68555a.97191.97191,0,0,0-.1543.50146v6.49854a1,1,0,1,0,2,0v-6.49854a.97191.97191,0,0,0-.1543-.50146h29.246a.97237.97237,0,0,0-.15417.50146v6.49854a1,1,0,1,0,2,0v-6.49854a.97231.97231,0,0,0-.15411-.50146h29.24579a.97237.97237,0,0,0-.15417.50146v6.49854a1,1,0,1,0,2,0v-6.49854a.97231.97231,0,0,0-.15411-.50146H127a1,1,0,0,0,0-2Z"/><path d="M1.92792,92.50568A4,4,0,1,0,6.07324,99.3479l7.36011-4.19141.07837.13324a.99936.99936,0,0,0,.86182.49316h3.125a.99936.99936,0,0,0,.86182-.49316l.06573-.11169,7.3222,4.16986a4,4,0,0,0,4.14532-6.84222L22.875,88.152V81.87421l2.87329,1.72693a4,4,0,0,0,4.14532-6.84222L23.81249,73.2804c-.01415.01044-2.05559.02087-2.06951.03131A4.42117,4.42117,0,0,0,21,73.165c.05194.51959.04828,10.49585.04553,14.08417H10.939l.01556-14.01709c-.6421,0-1.0171.07959-1.95459.07959l-7.07208,3.4472a4,4,0,1,0,4.14532,6.84222L9.125,81.93671v6.18646ZM22.93749,75.24921l5.95374,3.24127a2,2,0,0,1-2.10663,3.40009l-.02313-.014-.0235-.01343-3.80049-2.55664ZM9,79.27777,5.08356,81.86316l-.0235.01343-.02313.014a2,2,0,0,1-2.10675-3.4l6.13231-3.30383Zm12.46753,10.731,7.409,4.2193a2,2,0,0,1-2.09186,3.40936l-.02313-.014L26.738,97.61,19.44037,93.4541Zm-.923-.97485-3.107,5.15283h-3.125l-2.99193-5.15283Zm-10.15265.95331L12.419,93.43256,5.0835,97.61l-.0235.01337-.02313.014A2,2,0,0,1,2.94513,94.228Z"/><path d="M13.69751,72.47272l.00128.00043a5.94119,5.94119,0,0,0,.5733.15936c.01428.00323.02808.00769.04242.01086.17725.03845.35785.0672.54059.0896.032.004.063.011.09515.01453a5.84527,5.84527,0,0,0,1.28357,0c.03223-.00348.06323-.0105.09534-.01453.18262-.0224.363-.05109.54022-.08954.01465-.00317.02875-.00787.04333-.01117q.292-.06564.57239-.15906l.00208-.00073a5.99994,5.99994,0,1,0-3.78967.00024ZM15.592,62.78284a4,4,0,1,1-4,4A4.00458,4.00458,0,0,1,15.592,62.78284Z"/><path d="M48.53119,59.27722a7,7,0,1,0-7-7A7,7,0,0,0,48.53119,59.27722Zm0-12a5,5,0,1,1-5,5A5.00565,5.00565,0,0,1,48.53119,47.27722Z"/><path d="M39.94788,85.02557h.02856V95.82874A4.00031,4.00031,0,0,0,43.877,99.92615c.03339.00085.067.00122.10022.00122a3.99988,3.99988,0,0,0,3.99677-3.90179v-11h1.1275V95.82874A4.00031,4.00031,0,0,0,53.002,99.92615c.03339.00085.067.00122.10022.00122a3.99988,3.99988,0,0,0,3.99677-3.90179v-11h.01563a4,4,0,0,0,4-4V65.35895a8.02646,8.02646,0,0,0-5.47479-7.58246A9.0618,9.0618,0,0,1,53.9743,59.4278a6.00412,6.00412,0,0,1,5.14026,5.93115V81.02557a2.00229,2.00229,0,0,1-2,2h-.99493v-7.1665a1,1,0,0,0-2,0v7.1665H42.93213v-7.1665a1,1,0,0,0-2,0v7.1665h-.98425a2.00229,2.00229,0,0,1-2-2V65.35895a6.00407,6.00407,0,0,1,5.1402-5.93115,9.06213,9.06213,0,0,1-1.66547-1.65137,8.02641,8.02641,0,0,0-5.47473,7.58252V81.02557A4,4,0,0,0,39.94788,85.02557Zm11.15356.01471H55.099l.00055,10.93622a2.01151,2.01151,0,0,1-1.99738,1.95087l-.051-.00061a2.01454,2.01454,0,0,1-1.94971-2.098Zm-9.125,0H45.974l.00055,10.93622a2.01151,2.01151,0,0,1-1.99738,1.95087l-.051-.00061a2.01454,2.01454,0,0,1-1.94971-2.098Z"/><path d="M79.375,41.75079a7,7,0,1,0-7-7A7,7,0,0,0,79.375,41.75079Zm0-12a5,5,0,1,1-5,5A5.00565,5.00565,0,0,1,79.375,29.75079Z"/><path d="M69.41412,73.05975V95.1106A4.70118,4.70118,0,0,0,73.998,99.926c.03925.001.07874.0014.1178.0014a4.70058,4.70058,0,0,0,4.697-4.58539V73.10419h1.32507V95.1106A4.70118,4.70118,0,0,0,84.72186,99.926c.03925.001.07874.0014.1178.0014a4.70062,4.70062,0,0,0,4.697-4.58539V73.03949A4.4672,4.4672,0,0,0,93.375,68.62421V54.77667a14.04923,14.04923,0,0,0-8.54352-12.88525,8.98288,8.98288,0,0,1-2.36975,1.30249A12.01056,12.01056,0,0,1,91.375,54.77667V68.62421a2.48275,2.48275,0,0,1-2.48,2.48h-.5874V61.41571a1,1,0,0,0-2,0v9.68848H72.87012V61.41571a1,1,0,0,0-2,0v9.68848H69.855a2.48281,2.48281,0,0,1-2.48-2.48V55.2135a12.46261,12.46261,0,0,1,8.91974-12.01727,8.97691,8.97691,0,0,1-2.35968-1.29248A14.53188,14.53188,0,0,0,65.375,55.2135V68.62421A4.46484,4.46484,0,0,0,69.41412,73.05975Zm12.72382.09442h4.90454a.637.637,0,0,0,.49426.00726l.00055,22.13141a2.71652,2.71652,0,0,1-2.69763,2.63452l-.0686-.00079a2.716,2.716,0,0,1-2.63312-2.816Zm-10.72382,0h5.3988l.00055,22.13867a2.71652,2.71652,0,0,1-2.69763,2.63452l-.0686-.00079a2.71611,2.71611,0,0,1-2.63312-2.816Z"/><path d="M111,28.75079a7,7,0,1,0-7-7A7,7,0,0,0,111,28.75079Zm0-12a5,5,0,1,1-5,5A5.00565,5.00565,0,0,1,111,16.75079Z"/><path d="M101.03906,67.05975V95.1106A4.70126,4.70126,0,0,0,105.623,99.926c.03931.001.07874.0014.11786.0014a4.70053,4.70053,0,0,0,4.697-4.58539V67.10419h1.32507V95.1106A4.70118,4.70118,0,0,0,116.3468,99.926c.03931.001.07874.0014.11786.0014a4.70057,4.70057,0,0,0,4.697-4.58539V67.03949A4.46725,4.46725,0,0,0,125,62.62421V41.77667a14.04938,14.04938,0,0,0-8.54358-12.88525,8.98288,8.98288,0,0,1-2.36975,1.30249A12.01049,12.01049,0,0,1,123,41.77667V62.62421a2.48281,2.48281,0,0,1-2.48,2.48h-.58752V53.41571a1,1,0,0,0-2,0V65.10419h-13.4375V53.41571a1,1,0,0,0-2,0V65.10419H101.48a2.48275,2.48275,0,0,1-2.48-2.48V42.2135a12.46255,12.46255,0,0,1,8.91968-12.01721A8.97709,8.97709,0,0,1,105.56,28.90375,14.532,14.532,0,0,0,97,42.2135V62.62421A4.46479,4.46479,0,0,0,101.03906,67.05975Zm12.72382.09442h4.90442a.63734.63734,0,0,0,.49438.00726l.00055,28.13141a2.7165,2.7165,0,0,1-2.69757,2.63452l-.0686-.00079a2.71609,2.71609,0,0,1-2.63318-2.816Zm-10.72382,0h5.3988l.00055,28.13867a2.71646,2.71646,0,0,1-2.69757,2.63452l-.0686-.00079a2.71616,2.71616,0,0,1-2.63318-2.816Z"/><text x="0" y="143" fill="#000000" font-size="5px" font-weight="bold" font-family="'Helvetica Neue', Helvetica, Arial-Unicode, Arial, Sans-serif">Created by Creative Mahira</text><text x="0" y="148" fill="#000000" font-size="5px" font-weight="bold" font-family="'Helvetica Neue', Helvetica, Arial-Unicode, Arial, Sans-serif">from the Noun Project</text></svg>