<?xml version="1.0" ?><svg viewBox="0 0 120.923 104.481" xmlns="http://www.w3.org/2000/svg"><title/><g data-name="Layer 2" id="Layer_2"><g data-name="Layer 1" id="Layer_1-2"><circle cx="93.883" cy="54.55" r="12.52" style="fill:none;stroke:#414043;stroke-linecap:round;stroke-miterlimit:10;stroke-width:4px"/><path d="M89.973,67.069h7.82a21.13,21.13,0,0,1,21.13,21.13V99a3.485,3.485,0,0,1-3.485,3.485H72.329A3.485,3.485,0,0,1,68.844,99V88.2a21.13,21.13,0,0,1,21.13-21.13Z" style="fill:none;stroke:#414043;stroke-linecap:round;stroke-miterlimit:10;stroke-width:4px"/><circle cx="27.04" cy="54.55" r="12.52" style="fill:none;stroke:#414043;stroke-linecap:round;stroke-miterlimit:10;stroke-width:4px"/><path d="M23.13,67.069h7.82A21.13,21.13,0,0,1,52.079,88.2V99a3.485,3.485,0,0,1-3.485,3.485H5.485A3.485,3.485,0,0,1,2,99V88.2a21.13,21.13,0,0,1,21.13-21.13Z" style="fill:none;stroke:#414043;stroke-linecap:round;stroke-miterlimit:10;stroke-width:4px"/><circle cx="60.461" cy="23.349" r="21.349" style="fill:none;stroke:#414043;stroke-linecap:round;stroke-miterlimit:10;stroke-width:4px"/><polyline points="60.461 13.627 60.461 23.349 73.4 23.349" style="fill:none;stroke:#414043;stroke-linecap:round;stroke-miterlimit:10;stroke-width:4px"/></g></g></svg>