<?xml version="1.0" encoding="utf-8"?>
<!-- Generator: Adobe Illustrator 16.0.0, SVG Export Plug-In . SVG Version: 6.00 Build 0)  -->
<!DOCTYPE svg PUBLIC "-//W3C//DTD SVG 1.1//EN" "http://www.w3.org/Graphics/SVG/1.1/DTD/svg11.dtd">
<svg version="1.1" id="Layer_1" xmlns="http://www.w3.org/2000/svg" xmlns:xlink="http://www.w3.org/1999/xlink" x="0px" y="0px"
	 width="841.889px" height="1190.551px" viewBox="0 0 841.889 1190.551" enable-background="new 0 0 841.889 1190.551"
	 xml:space="preserve">
<path d="M175.113,749.341h418.419c42.095,0,76.612-34.517,76.612-76.611V540.552c40.411-1.684,72.402-35.359,72.402-75.771V307.348
	c0-42.094-34.518-76.611-76.611-76.611h-240.78c-41.253,0-74.087,31.991-75.771,72.402H175.113
	c-42.094,0-76.611,34.518-76.611,76.611v292.979C99.343,714.824,133.019,749.341,175.113,749.341z M425.155,266.938h240.78
	c21.889,0,39.568,17.68,39.568,39.568v158.275c0,21.048-15.996,37.886-36.201,39.569V379.751c0-42.094-34.518-76.611-76.612-76.611
	H385.585C387.269,282.934,404.948,266.938,425.155,266.938z M135.544,379.751c0-21.889,17.68-39.568,39.568-39.568h173.43v124.6
	c0,42.095,34.518,76.612,76.612,76.612h208.788v132.177c0,21.889-17.68,39.568-39.568,39.568H175.113
	c-21.889,0-39.568-17.68-39.568-39.568V379.751L135.544,379.751z"/>
</svg>
