<?xml version="1.0" encoding="iso-8859-1"?>
<!-- Generator: Adobe Illustrator 19.0.0, SVG Export Plug-In . SVG Version: 6.00 Build 0)  -->
<svg version="1.1" id="Layer_1" xmlns="http://www.w3.org/2000/svg" xmlns:xlink="http://www.w3.org/1999/xlink" x="0px" y="0px"
	 viewBox="0 0 512 512" style="enable-background:new 0 0 512 512;" xml:space="preserve">
<g>
	<g>
		<rect y="476.473" width="512" height="15.673"/>
	</g>
</g>
<g>
	<g>
		<polygon points="343.771,172.408 343.771,19.853 168.229,19.853 168.229,251.82 8.359,251.82 8.359,468.114 24.033,468.114 
			24.033,267.494 168.229,267.494 168.229,468.114 183.902,468.114 183.902,35.527 328.098,35.527 328.098,468.114 343.771,468.114 
			343.771,188.082 487.967,188.082 487.967,468.114 503.641,468.114 503.641,172.408 		"/>
	</g>
</g>
<g>
	<g>
		<path d="M463.935,315.559v-15.673h-96.131v15.673h16.718v112.849h-16.718v15.673h96.131v-15.673h-15.673V315.559H463.935z
			 M432.588,428.408h-32.392V315.559h32.392V428.408z"/>
	</g>
</g>
<g>
	<g>
		<path d="M144.196,315.559v-15.673H48.065v15.673h8.359v112.849h-8.359v15.673h96.131v-15.673h-8.359V315.559H144.196z
			 M87.771,428.408H72.098V315.559h15.673V428.408z M120.163,428.408h-16.718V315.559h16.718V428.408z"/>
	</g>
</g>
<g>
	<g>
		<polygon points="280.033,83.592 280.033,67.918 231.967,67.918 231.967,83.592 247.641,83.592 247.641,196.441 231.967,196.441 
			231.967,212.114 280.033,212.114 280.033,196.441 263.314,196.441 263.314,83.592 		"/>
	</g>
</g>
<g>
</g>
<g>
</g>
<g>
</g>
<g>
</g>
<g>
</g>
<g>
</g>
<g>
</g>
<g>
</g>
<g>
</g>
<g>
</g>
<g>
</g>
<g>
</g>
<g>
</g>
<g>
</g>
<g>
</g>
</svg>
