<svg id="Layer_1" enable-background="new 0 0 512 512" height="512" viewBox="0 0 512 512" width="512" xmlns="http://www.w3.org/2000/svg"><g><path d="m504.5 38.623c4.142 0 7.5-3.357 7.5-7.5v-13.623c0-9.649-7.851-17.5-17.5-17.5h-104c-9.649 0-17.5 7.851-17.5 17.5v128c0 9.649 7.851 17.5 17.5 17.5h29.5v9.5c0 9.777 6.271 18.114 15 21.21v67.04c0 21.001-17.085 38.087-38.086 38.087h-161.914v-238.337c0-16.267-13.234-29.5-29.5-29.5h-176c-16.266 0-29.5 13.233-29.5 29.5v35.088c0 4.143 3.358 7.5 7.5 7.5s7.5-3.357 7.5-7.5v-35.088c0-7.995 6.505-14.5 14.5-14.5h176c7.995 0 14.5 6.505 14.5 14.5v158.5h-20v-15.25c0-17.369-14.131-31.5-31.5-31.5h-28.5v-3.52c4.33-3.258 7.934-7.431 10.524-12.23h10.376c17.148 0 31.1-13.951 31.1-31.1v-36.8c0-17.148-13.952-31.1-31.1-31.1h-86.8c-17.148 0-31.1 13.951-31.1 31.1v36.8c0 17.148 13.952 31.1 31.1 31.1h10.376c2.589 4.798 6.193 8.971 10.524 12.23v3.52h-28.5c-17.369 0-31.5 14.131-31.5 31.5v15.25h-20v-91.231c0-4.143-3.358-7.5-7.5-7.5s-7.5 3.357-7.5 7.5v354.731c0 16.267 13.234 29.5 29.5 29.5h176c16.266 0 29.5-13.233 29.5-29.5v-35.285c0-4.143-3.358-7.5-7.5-7.5s-7.5 3.357-7.5 7.5v35.285c0 7.995-6.505 14.5-14.5 14.5h-176c-7.995 0-14.5-6.505-14.5-14.5v-248.5h140v96.169c0 12.406 10.093 22.5 22.5 22.5s22.5-10.094 22.5-22.5v-16.332h20v101.564c0 4.143 3.358 7.5 7.5 7.5s7.5-3.357 7.5-7.5v-101.564h161.914c29.272 0 53.086-23.814 53.086-53.087v-67.04c8.729-3.096 15-11.433 15-21.21v-9.5h29.5c9.649 0 17.5-7.851 17.5-17.5v-81.726c0-4.143-3.358-7.5-7.5-7.5s-7.5 3.357-7.5 7.5v81.726c0 1.379-1.122 2.5-2.5 2.5h-104c-1.378 0-2.5-1.121-2.5-2.5v-128c0-1.379 1.122-2.5 2.5-2.5h104c1.378 0 2.5 1.121 2.5 2.5v13.623c0 4.143 3.358 7.5 7.5 7.5zm-349.5 180.377h-75v-31.75h15.142c1.248 11.234 10.796 20 22.358 20s21.11-8.766 22.358-20h15.142zm-45-43.505c2.424.494 4.932.755 7.5.755s5.076-.261 7.5-.755v9.255c0 4.136-3.364 7.5-7.5 7.5s-7.5-3.364-7.5-7.5zm-15-40.167c6.924 2.304 14.621 3.537 22.5 3.537 7.887 0 15.579-1.232 22.5-3.535v3.42c0 12.406-10.093 22.5-22.5 22.5s-22.5-10.094-22.5-22.5zm22.5-11.463c-8.125 0-15.883-1.599-22.242-4.527 1.649-10.793 10.995-19.088 22.242-19.088 11.245 0 20.59 8.292 22.241 19.083-6.357 2.929-14.104 4.532-22.241 4.532zm-43.4 17.635c-8.877 0-16.1-7.223-16.1-16.1v-36.8c0-8.877 7.223-16.1 16.1-16.1h86.8c8.877 0 16.1 7.223 16.1 16.1v36.8c0 8.877-7.223 16.1-16.1 16.1h-6.012c.066-.909.112-1.824.112-2.75v-16c0-20.678-16.822-37.5-37.5-37.5s-37.5 16.822-37.5 37.5v16c0 .926.045 1.841.112 2.75zm-24.1 62.25c0-8.593 6.602-15.673 15-16.433v31.683h-15zm135 126.419c0 4.136-3.364 7.5-7.5 7.5s-7.5-3.364-7.5-7.5v-142.852c8.398.76 15 7.84 15 16.433zm15-31.332v-64.837h20v64.837zm250-135.837v9.5c0 4.136-3.364 7.5-7.5 7.5s-7.5-3.364-7.5-7.5v-9.5z"/></g></svg>