<?xml version="1.0" encoding="iso-8859-1"?>
<!-- Generator: Adobe Illustrator 19.0.0, SVG Export Plug-In . SVG Version: 6.00 Build 0)  -->
<svg version="1.1" id="Layer_1" xmlns="http://www.w3.org/2000/svg" xmlns:xlink="http://www.w3.org/1999/xlink" x="0px" y="0px"
	 viewBox="0 0 511.999 511.999" style="enable-background:new 0 0 511.999 511.999;" xml:space="preserve">
<g>
	<g>
		<polygon points="0,303.281 0,508.074 15.697,508.074 15.697,318.978 228.456,318.978 228.456,508.074 244.153,508.074 
			244.153,303.281 		"/>
	</g>
</g>
<g>
	<g>
		<path d="M78.778,122.09v157.498h86.597V122.09H78.778z M149.678,263.892H94.475V137.787h55.204V263.892z"/>
	</g>
</g>
<g>
	<g>
		<rect x="42.172" y="366.614" width="15.697" height="141.271"/>
	</g>
</g>
<g>
	<g>
		<rect x="167.746" y="366.614" width="15.697" height="141.271"/>
	</g>
</g>
<g>
	<g>
		<path d="M275.724,3.925v130.639l-26.884,26.888l26.884,26.884V421.39h236.275V3.925H275.724z M291.42,405.692V181.833
			l-20.384-20.383l20.384-20.386V19.622h204.882v386.071H291.42z"/>
	</g>
</g>
<g>
	<g>
		<rect x="319.482" y="48.492" width="141.271" height="15.697"/>
	</g>
</g>
<g>
	<g>
		<rect x="319.482" y="79.886" width="63.834" height="15.697"/>
	</g>
</g>
<g>
	<g>
		<rect x="383.316" y="151.044" width="69.066" height="15.697"/>
	</g>
</g>
<g>
	<g>
		<path d="M396.919,203.741v-13.977h31.394v-15.697h-47.09v26.881c-1.033-0.05-2.072-0.08-3.116-0.08
			c-34.734,0-62.992,28.258-62.992,62.993c-0.001,30.795,22.215,56.48,51.458,61.917v29.325h-31.394v15.697h47.09v-44.098
			c32.8-2.153,58.831-29.506,58.831-62.839C441.1,235.677,422.494,211.76,396.919,203.741z M330.81,263.862
			c0-26.08,21.217-47.297,47.296-47.297c1.049,0,2.086,0.046,3.116,0.114v27.5h15.697v-23.7
			c15.89,6.917,27.264,22.312,28.383,40.443h-50.308l-34.096,32.084C334.588,284.968,330.81,274.851,330.81,263.862z
			 M382.269,310.974v-11.333h-15.697v10.085c-5.049-1.275-9.78-3.358-14.042-6.11l28.687-26.995h42.423
			C418.419,295.23,402.081,309.237,382.269,310.974z"/>
	</g>
</g>
<g>
	<g>
		<rect x="311.11" y="378.125" width="72.205" height="15.697"/>
	</g>
</g>
<g>
	<g>
		<rect x="413.663" y="378.125" width="14.65" height="15.697"/>
	</g>
</g>
<g>
	<g>
		<rect x="436.685" y="378.125" width="15.697" height="15.697"/>
	</g>
</g>
<g>
	<g>
		<rect x="460.753" y="378.125" width="15.697" height="15.697"/>
	</g>
</g>
<g>
	<g>
		<rect x="319.482" y="111.279" width="23.022" height="15.697"/>
	</g>
</g>
<g>
</g>
<g>
</g>
<g>
</g>
<g>
</g>
<g>
</g>
<g>
</g>
<g>
</g>
<g>
</g>
<g>
</g>
<g>
</g>
<g>
</g>
<g>
</g>
<g>
</g>
<g>
</g>
<g>
</g>
</svg>
