<?xml version="1.0" encoding="iso-8859-1"?>
<!-- Generator: Adobe Illustrator 19.0.0, SVG Export Plug-In . SVG Version: 6.00 Build 0)  -->
<svg version="1.1" id="Layer_1" xmlns="http://www.w3.org/2000/svg" xmlns:xlink="http://www.w3.org/1999/xlink" x="0px" y="0px"
	 viewBox="0 0 512 512" style="enable-background:new 0 0 512 512;" xml:space="preserve">
<g>
	<g>
		<polygon points="151.428,96.006 151.428,105.418 94.96,105.418 94.96,128.423 110.646,128.423 110.646,121.103 167.114,121.103 
			167.114,96.006 		"/>
	</g>
</g>
<g>
	<g>
		<path d="M128.376,0v71.721h23.053V87.64h15.686V71.721h79.474V87.64h15.686V71.721h80.52V87.64h15.686V71.721h25.733V0H128.376z
			 M368.527,56.036H144.061v-40.35h224.466V56.036z"/>
	</g>
</g>
<g>
	<g>
		<polygon points="358.48,105.418 358.48,96.006 342.794,96.006 342.794,121.103 399.263,121.103 399.263,128.423 414.949,128.423 
			414.949,105.418 		"/>
	</g>
</g>
<g>
	<g>
		<rect x="246.59" y="96.007" width="15.686" height="32.417"/>
	</g>
</g>
<g>
	<g>
		<path d="M262.274,152.096v-16.354h-15.686v16.354h-30.157v79.726h30.157v15.811h15.686v-15.811h33.883v-79.726H262.274z
			 M280.472,216.137h-48.355v-48.355h48.355V216.137z"/>
	</g>
</g>
<g>
	<g>
		<path d="M110.646,152.097c0,0,0-16.354,0-16.354H94.96v16.354H64.335v79.726H94.96v15.811h15.686v-15.811h33.416v-79.726H110.646z
			 M128.376,216.137H80.021v-48.355h48.355V216.137z"/>
	</g>
</g>
<g>
	<g>
		<path d="M110.646,312.198v-16.461H94.96v16.461H72.34V512h63.716V312.198H110.646z M120.37,496.314H88.026v-168.43h32.344V496.314
			z"/>
	</g>
</g>
<g>
	<g>
		<path d="M38.491,312.198v-16.461H22.806v16.461H0.294V512h63.716V312.198H38.491z M48.324,496.314H15.98v-168.43h32.344V496.314z"
			/>
	</g>
</g>
<g>
	<g>
		<path d="M303.057,312.198v-16.461h-15.686v16.461h-22.911V512h63.716V312.198H303.057z M312.492,496.314h-32.345v-168.43h32.345
			V496.314z"/>
	</g>
</g>
<g>
	<g>
		<path d="M222.537,312.198v-16.461h-15.686v16.461H184.41V512h63.716V312.198H222.537z M232.441,496.314h-32.345v-168.43h32.345
			V496.314z"/>
	</g>
</g>
<g>
	<g>
		<polygon points="94.96,256.001 94.96,265.412 22.806,265.412 22.806,288.418 38.491,288.418 38.491,281.098 94.96,281.098 
			94.96,288.418 110.646,288.418 110.646,256.001 		"/>
	</g>
</g>
<g>
	<g>
		<path d="M414.949,152.097v-16.354h-15.686v16.354h-30.736v79.726h30.736v15.811h15.686v-15.811h33.305v-79.726H414.949z
			 M432.568,216.138h-48.355v-48.355h48.355V216.138z"/>
	</g>
</g>
<g>
	<g>
		<path d="M487.103,312.198v-16.461h-15.686v16.461h-23.428V512h63.716V312.198H487.103z M496.019,496.314h-32.345v-168.43h32.345
			V496.314z"/>
	</g>
</g>
<g>
	<g>
		<path d="M414.95,312.198v-16.461h-0.001h-15.686v16.461h-22.73V512h63.716V312.198H414.95z M424.563,496.314h-32.345v-168.43
			h32.345V496.314z"/>
	</g>
</g>
<g>
	<g>
		<polygon points="414.949,265.412 414.949,256.001 399.263,256.001 399.263,288.418 414.949,288.418 414.949,281.098 
			471.417,281.098 471.417,288.418 487.103,288.418 487.103,265.412 		"/>
	</g>
</g>
<g>
	<g>
		<polygon points="262.274,265.412 262.274,256.001 246.589,256.001 246.589,265.412 206.851,265.412 206.851,288.418 
			222.537,288.418 222.537,281.098 287.371,281.098 287.371,288.418 303.057,288.418 303.057,265.412 		"/>
	</g>
</g>
<g>
</g>
<g>
</g>
<g>
</g>
<g>
</g>
<g>
</g>
<g>
</g>
<g>
</g>
<g>
</g>
<g>
</g>
<g>
</g>
<g>
</g>
<g>
</g>
<g>
</g>
<g>
</g>
<g>
</g>
</svg>
