<?xml version="1.0" encoding="iso-8859-1"?>
<!-- Generator: Adobe Illustrator 19.0.0, SVG Export Plug-In . SVG Version: 6.00 Build 0)  -->
<svg version="1.1" id="Layer_1" xmlns="http://www.w3.org/2000/svg" xmlns:xlink="http://www.w3.org/1999/xlink" x="0px" y="0px"
	 viewBox="0 0 490 490" style="enable-background:new 0 0 490 490;" xml:space="preserve">
<g>
	<g>
		<g>
			<path d="M245,40c-71.682,0-130,58.318-130,130s58.318,130,130,130c71.683,0,130-58.318,130-130S316.683,40,245,40z M245,280
				c-60.654,0-110-49.346-110-110S184.346,60,245,60s110,49.346,110,110S305.654,280,245,280z"/>
			<path d="M245,0C151.262,0,75,76.262,75,170c0,38.856,13.468,76.839,37.923,106.952c22.39,27.57,53.075,47.554,87.077,56.864V355
				h-20v20h20v105c0,5.523,4.477,10,10,10h70c5.522,0,10-4.477,10-10V375h20v-20h-20v-21.184
				c34.002-9.311,64.686-29.294,87.076-56.864C401.532,246.839,415,208.856,415,170C415,76.262,338.738,0,245,0z M270,470h-50v-20
				h50V470z M270,430h-50v-20h50V430z M270,390h-50v-15h50V390z M361.552,264.344c-21.267,26.186-50.999,44.615-83.723,51.89
				c-4.574,1.017-7.829,5.075-7.829,9.762V355h-50v-29.004c0-4.686-3.255-8.745-7.83-9.762
				c-32.723-7.275-62.456-25.704-83.722-51.89C106.879,237.784,95,204.278,95,170c0-82.71,67.29-150,150-150s150,67.29,150,150
				C395,204.278,383.121,237.784,361.552,264.344z"/>
			<path d="M305,120H185c-5.523,0-10,4.478-10,10v80c0,5.523,4.477,10,10,10h120c5.522,0,10-4.477,10-10v-80
				C315,124.478,310.522,120,305,120z M255,200h-60v-60h60V200z M295,200h-20v-60h20V200z"/>
			<rect x="225" y="170" width="20" height="20"/>
		</g>
	</g>
</g>
<g>
</g>
<g>
</g>
<g>
</g>
<g>
</g>
<g>
</g>
<g>
</g>
<g>
</g>
<g>
</g>
<g>
</g>
<g>
</g>
<g>
</g>
<g>
</g>
<g>
</g>
<g>
</g>
<g>
</g>
</svg>
