<?xml version="1.0" encoding="utf-8"?>
<!-- Generator: Adobe Illustrator 16.0.0, SVG Export Plug-In . SVG Version: 6.00 Build 0)  -->
<!DOCTYPE svg PUBLIC "-//W3C//DTD SVG 1.1//EN" "http://www.w3.org/Graphics/SVG/1.1/DTD/svg11.dtd">
<svg version="1.1" id="Layer_1" xmlns="http://www.w3.org/2000/svg" xmlns:xlink="http://www.w3.org/1999/xlink" x="0px" y="0px"
	 width="841.889px" height="1190.551px" viewBox="0 0 841.889 1190.551" enable-background="new 0 0 841.889 1190.551"
	 xml:space="preserve">
<title>Artboard 2</title>
<g>
	<circle cx="524.602" cy="726.821" r="26.309"/>
	<circle cx="422.523" cy="726.821" r="26.309"/>
	<circle cx="317.287" cy="726.821" r="26.309"/>
	<path d="M752.176,884.675H89.714c-35.018,0-63.405-28.387-63.405-63.404c0.146-139.284,113.021-252.159,252.304-252.304h284.664
		c139.283,0.145,252.159,113.02,252.304,252.304C815.58,856.288,787.193,884.675,752.176,884.675z M278.613,621.584
		C168.39,621.729,79.073,711.047,78.927,821.27c0,5.957,4.829,10.786,10.787,10.786h662.462c5.957,0,10.786-4.829,10.786-10.786
		c-0.145-110.224-89.462-199.541-199.686-199.687H278.613z"/>
	<path d="M420.945,516.348c-116.24,0-210.473-94.232-210.473-210.473c0-116.241,94.232-210.473,210.473-210.473
		c116.241,0,210.473,94.231,210.473,210.473C631.417,422.116,537.186,516.348,420.945,516.348z M420.945,148.021
		c-87.181,0-157.854,70.674-157.854,157.854c0,87.18,70.674,157.854,157.854,157.854s157.854-70.675,157.854-157.854
		C578.799,218.695,508.125,148.021,420.945,148.021z"/>
</g>
</svg>
