<?xml version="1.0" encoding="utf-8"?>
<!-- Generator: Adobe Illustrator 16.0.0, SVG Export Plug-In . SVG Version: 6.00 Build 0)  -->
<!DOCTYPE svg PUBLIC "-//W3C//DTD SVG 1.1//EN" "http://www.w3.org/Graphics/SVG/1.1/DTD/svg11.dtd">
<svg version="1.1" id="Layer_1" xmlns="http://www.w3.org/2000/svg" xmlns:xlink="http://www.w3.org/1999/xlink" x="0px" y="0px"
	 width="841.889px" height="1190.551px" viewBox="0 0 841.889 1190.551" enable-background="new 0 0 841.889 1190.551"
	 xml:space="preserve">
<title>35</title>
<g>
	<path d="M514.395,362.071h-40.411l-42.937-64.825c-15.489-23.521-41.714-37.739-69.877-37.885H237.413
		c-37.197,0-67.352,30.154-67.352,67.351v34.518c-45.507,1.366-81.684,38.662-81.663,84.189v190.268
		c0,46.496,37.692,84.188,84.188,84.188h341.808c46.496,0,84.188-37.692,84.188-84.188v-9.261l131.335,60.615l6.735,1.684
		c9.299,0,16.838-7.538,16.838-16.837V410.059c-0.153-9.298-7.815-16.712-17.113-16.559c-2.225,0.037-4.421,0.514-6.46,1.404
		l-131.335,60.616v-9.261C598.583,399.764,560.891,362.071,514.395,362.071z M236.571,293.879h124.6
		c16.958,0.031,32.769,8.568,42.095,22.73l30.308,46.305H203.738v-35.359c0-18.599,15.077-33.676,33.676-33.676H236.571z
		 M564.907,636.528c0,27.897-22.615,50.513-50.513,50.513H171.745c-27.897,0-50.514-22.615-50.514-50.513V446.26
		c0-27.897,22.616-50.514,50.514-50.514h342.649c27.897,0,50.513,22.616,50.513,50.514V636.528z M720.657,437v208.789
		l-122.074-56.407v-96.817L720.657,437z"/>
</g>
</svg>
