<?xml version="1.0" ?><!DOCTYPE svg  PUBLIC '-//W3C//DTD SVG 1.1//EN'  'http://www.w3.org/Graphics/SVG/1.1/DTD/svg11.dtd'><svg enable-background="new 0 0 520 520" height="520px" id="Layer_1" version="1.1" viewBox="0 0 520 520" width="520px" xml:space="preserve" xmlns="http://www.w3.org/2000/svg" xmlns:xlink="http://www.w3.org/1999/xlink"><g><path d="M209.076,166.636l1.17-1.17c0.153,0,0.234-0.077,0.234-0.234c0.311,0,0.702,0,1.17,0c0.468,0,0.855-0.077,1.17-0.234   c-0.314,0-0.391-0.077-0.234-0.234h10.998c1.558,0,3.119,0.391,4.68,1.17c1.558,0.782,2.885,1.484,3.978,2.106v0.234h0.234   l0.468,0.468h0.234c4.055,2.654,7.097,5.93,9.126,9.828c2.025,3.901,3.042,8.113,3.042,12.636c0,5.305-1.328,10.102-3.978,14.391   c-2.655,4.292-6.084,7.528-10.296,9.711c3.43,1.25,6.395,3.276,8.892,6.084c2.494,2.808,4.055,6.241,4.68,10.296v-0.234   l9.828,48.905h36.972c2.025,0,4.095,0.626,6.2,1.873c2.106,1.25,4.015,2.808,5.733,4.68c1.715,1.872,3.159,3.9,4.329,6.084   c1.17,2.187,1.755,4.212,1.755,6.084v75.113c0,2.341-0.508,4.369-1.521,6.084c-1.017,1.719-2.304,3.16-3.861,4.33   c-1.562,1.17-3.276,2.068-5.148,2.69c-1.872,0.626-3.667,0.937-5.382,0.937c-4.059,0-7.802-1.521-11.231-4.563   c-3.434-3.042-5.148-6.979-5.148-11.817v-36.972c-0.625,2.497-1.755,4.72-3.393,6.669c-1.639,1.953-3.941,2.926-6.903,2.926   h-42.588c-3.744,0-7.605-1.054-11.583-3.16c-3.978-2.105-7.686-4.797-11.115-8.072c-3.433-3.276-6.398-6.863-8.892-10.764   c-2.497-3.898-4.058-7.643-4.68-11.232l-11.232-54.522v-3.276c0-4.055,1.053-7.371,3.159-9.945   c2.106-2.574,5.418-3.861,9.945-3.861c2.808,0,5.382,0.702,7.722,2.106v-3.276c0-4.833,1.013-9.126,3.042-12.87   c2.026-3.744,4.833-6.706,8.424-8.892c-4.995-2.025-9.009-5.301-12.051-9.828c-3.042-4.522-4.563-9.748-4.563-15.678   C192.462,180.131,197.998,171.941,209.076,166.636z M181.23,254.152v1.638v0.234l11.232,54.289   c0.622,3.275,1.989,6.632,4.095,10.062c2.106,3.433,4.68,6.632,7.722,9.594c3.042,2.966,6.318,5.382,9.828,7.255   c3.51,1.871,6.903,2.807,10.179,2.807h42.588c2.183,0,3.78-1.053,4.797-3.158c1.013-2.105,1.521-4.015,1.521-5.732   c0-1.873-0.549-3.898-1.639-6.084c-1.093-2.184-2.965-3.277-5.615-3.277h-36.973c-0.157,0-0.936-0.233-2.34-0.701   c-1.404-0.469-2.42-0.855-3.042-1.17c-3.59-0.936-6.669-2.962-9.243-6.084c-2.574-3.119-4.252-6.472-5.031-10.063l-11.232-53.118   c-0.314-2.026-1.21-3.627-2.691-4.797c-1.485-1.17-3.316-1.755-5.499-1.755c-2.965,0-5.148,0.899-6.552,2.691   c-1.404,1.795-2.106,4.018-2.106,6.669V254.152z M203.109,207.352c4.132,4.369,9.396,6.552,15.795,6.552   c2.962,0,5.81-0.585,8.541-1.755c2.728-1.17,5.068-2.768,7.02-4.797c1.949-2.025,3.51-4.446,4.68-7.254s1.755-5.77,1.755-8.892   c0-3.897-0.859-7.488-2.574-10.764c-1.719-3.276-4.37-6.003-7.956-8.19c-0.783-0.468-1.835-1.089-3.159-1.872   c-1.327-0.779-2.538-1.17-3.627-1.17h-9.126c-0.157,0-0.468,0.081-0.936,0.234c-0.468,0.157-0.859,0.234-1.17,0.234   c-0.157,0.157-0.391,0.274-0.702,0.351c-0.314,0.081-0.468,0.198-0.468,0.351c-9.518,4.369-14.274,11.313-14.274,20.826   C196.908,197.604,198.974,202.986,203.109,207.352z M281.616,317.8v54.054c0,3.591,1.206,6.476,3.627,8.658   c2.417,2.187,5.185,3.276,8.307,3.276c2.651,0,5.225-0.819,7.723-2.457c2.493-1.638,3.743-4.015,3.743-7.138V299.08   c0-1.404-0.431-2.926-1.287-4.563c-0.858-1.639-1.952-3.16-3.275-4.563c-1.327-1.404-2.809-2.61-4.446-3.627   c-1.638-1.013-3.159-1.521-4.563-1.521h-40.482l-10.764-52.417c-0.783-4.523-3.006-8.073-6.669-10.647   c-3.667-2.574-7.685-3.861-12.051-3.861c-5.773,0-10.494,1.953-14.157,5.85c-3.667,3.901-5.499,8.815-5.499,14.742v0.702v2.106   v0.234l11.934,60.138c0.936,4.526,3.353,8.347,7.254,11.466c3.898,3.122,8.11,4.68,12.636,4.68H281.616z M276.819,188.047   c1.948-4.446,4.6-8.343,7.956-11.7c3.353-3.353,7.254-5.967,11.699-7.839c4.446-1.872,9.163-2.808,14.157-2.808   c5.459,0,10.45,0.976,14.977,2.925c4.522,1.953,8.384,4.603,11.583,7.956c3.195,3.356,5.692,7.334,7.487,11.934   c1.792,4.603,2.691,9.557,2.691,14.859c0,5.148-0.977,9.945-2.925,14.391c-1.953,4.446-4.604,8.347-7.956,11.7   c-3.356,3.356-7.254,5.967-11.7,7.839c-4.446,1.872-9.166,2.808-14.157,2.808c-5.305,0-10.219-0.972-14.742-2.925   c-4.526-1.949-8.424-4.6-11.699-7.956c-3.276-3.353-5.813-7.331-7.605-11.934c-1.795-4.6-2.691-9.554-2.691-14.859   C273.894,197.29,274.866,192.493,276.819,188.047z M277.17,327.628v-5.382h-2.34C275.92,323.65,276.702,325.445,277.17,327.628z    M280.797,215.542c1.638,4.059,3.861,7.568,6.669,10.53c2.809,2.965,6.201,5.306,10.179,7.02c3.979,1.719,8.308,2.574,12.987,2.574   c4.366,0,8.541-0.819,12.52-2.457c3.978-1.638,7.407-3.897,10.296-6.786c2.885-2.885,5.185-6.318,6.902-10.296   c1.715-3.978,2.574-8.227,2.574-12.753c0-4.68-0.782-9.045-2.34-13.104c-1.562-4.055-3.744-7.565-6.552-10.53   c-2.809-2.962-6.201-5.302-10.18-7.02c-3.978-1.715-8.387-2.574-13.221-2.574c-4.526,0-8.738,0.819-12.636,2.457   c-3.901,1.638-7.294,3.901-10.179,6.786c-2.889,2.888-5.188,6.318-6.903,10.296c-1.719,3.978-2.574,8.23-2.574,12.753   C278.34,207.118,279.159,211.487,280.797,215.542z M285.828,192.142c1.404-3.276,3.313-6.161,5.732-8.658   c2.417-2.494,5.266-4.482,8.541-5.967c3.276-1.481,6.786-2.223,10.53-2.223s7.254,0.742,10.53,2.223   c3.276,1.484,6.12,3.473,8.541,5.967c2.417,2.498,4.329,5.382,5.732,8.658c1.404,3.276,2.106,6.786,2.106,10.53   c0,3.744-0.702,7.294-2.106,10.647c-1.403,3.356-3.315,6.282-5.732,8.775c-2.421,2.497-5.265,4.446-8.541,5.85   c-3.276,1.404-6.786,2.106-10.53,2.106s-7.254-0.702-10.53-2.106c-3.275-1.404-6.124-3.353-8.541-5.85   c-2.42-2.494-4.328-5.419-5.732-8.775c-1.404-3.353-2.106-6.903-2.106-10.647C283.722,198.928,284.424,195.418,285.828,192.142z    M294.603,219.052c4.289,4.37,9.631,6.552,16.029,6.552c3.119,0,6.044-0.585,8.775-1.755c2.728-1.17,5.107-2.808,7.137-4.914   c2.025-2.106,3.627-4.523,4.797-7.254c1.17-2.728,1.755-5.733,1.755-9.009c0-0.779-0.04-1.521-0.117-2.223   c-0.08-0.702-0.197-1.441-0.351-2.223c-0.157,0.782-0.508,1.521-1.053,2.223c-0.549,0.702-1.134,1.21-1.755,1.521l-18.954,9.36   h-1.404c-1.093,0-2.42-0.234-3.978-0.702c-1.562-0.468-2.341-2.183-2.341-5.148v-21.762c0-0.936,0.388-1.949,1.171-3.042   c-4.681,1.562-8.541,4.37-11.583,8.424c-3.042,4.058-4.563,8.581-4.563,13.572C288.168,209.224,290.311,214.687,294.603,219.052z    M308.292,182.899c-0.468,0.234-0.702,0.508-0.702,0.819v21.762c0,0.782,0.234,1.17,0.702,1.17c0.621,0,1.09,0,1.404,0   l18.018-8.658c0.311,0,0.468-0.154,0.468-0.468v-0.936c0-0.936-0.701-1.404-2.105-1.404h-0.937l-12.401,5.616h-1.17v-16.614   c0-0.311-0.274-0.662-0.819-1.053c-0.549-0.387-0.977-0.585-1.287-0.585C309.147,182.548,308.76,182.665,308.292,182.899z    M323.502,184.069c-2.808-2.106-6.084-3.47-9.828-4.095c0.622,0.625,1.17,1.287,1.638,1.989c0.469,0.702,0.702,1.444,0.702,2.223   v10.53l8.425-3.978h1.638c1.715,0,3.118,0.392,4.212,1.17C328.569,188.789,326.31,186.175,323.502,184.069z"/></g></svg>