<svg id="Capa_1" enable-background="new 0 0 512 512" height="512" viewBox="0 0 512 512" width="512" xmlns="http://www.w3.org/2000/svg"><g><path d="m316.1 271h-15v-15c0-8.284-6.716-15-15-15h-60.1c-8.284 0-15 6.716-15 15v15h-15c-8.284 0-15 6.716-15 15v60.1c0 8.284 6.716 15 15 15h15v15c0 8.284 6.716 15 15 15h60.1c8.284 0 15-6.716 15-15v-15h15c8.284 0 15-6.716 15-15v-60.1c0-8.284-6.716-15-15-15zm-15 60.1h-15c-8.284 0-15 6.716-15 15v15h-30.1v-15c0-8.284-6.716-15-15-15h-15v-30.1h15c8.284 0 15-6.716 15-15v-15h30.1v15c0 8.284 6.716 15 15 15h15z"/><path d="m480.95 78.224v-48.224c0-8.284-6.716-15-15-15h-419.567c-8.284 0-15 6.716-15 15v108.111c-18.177 5.785-31.383 22.821-31.383 42.889v271c0 24.813 20.187 45 45 45h422c24.813 0 45-20.187 45-45v-331c0-19.944-13.046-36.89-31.05-42.776zm-30-33.224v31h-134.85c-5.682 0-10.876 3.21-13.416 8.292l-25.855 51.708h-5.779v-45c0-8.284-6.716-15-15-15s-15 6.716-15 15v45h-29.95v-45.369c0-8.284-6.716-15-15-15h-90.05c-8.284 0-15 6.716-15 15v45.369h-29.667v-91zm-269.85 91h-60.05v-30.369h60.05zm300.9 316c0 8.271-6.729 15-15 15h-422c-8.271 0-15-6.729-15-15v-271c0-8.271 6.729-15 15-15h241.1c5.682 0 10.876-3.21 13.416-8.292l25.854-51.708h141.63c8.271 0 15 6.729 15 15z"/><path d="m436.05 406h-60c-8.284 0-15 6.716-15 15s6.716 15 15 15h60c8.284 0 15-6.716 15-15s-6.716-15-15-15z"/><path d="m436.05 346h-60c-8.284 0-15 6.716-15 15s6.716 15 15 15h60c8.284 0 15-6.716 15-15s-6.716-15-15-15z"/></g></svg>