<svg id="Capa_1" enable-background="new 0 0 512 512" height="512" viewBox="0 0 512 512" width="512" xmlns="http://www.w3.org/2000/svg"><path d="m504.489 392.012c-4.149 0-7.511 3.363-7.511 7.511 0 15.186-12.354 27.54-27.54 27.54h-426.876c-15.186 0-27.54-12.355-27.54-27.54v-287.046c0-15.186 12.355-27.54 27.54-27.54h238.867c4.149 0 7.511-3.363 7.511-7.511s-3.362-7.511-7.511-7.511h-238.867c-23.469 0-42.562 19.093-42.562 42.562v287.045c0 23.469 19.093 42.562 42.562 42.562h426.875c23.469 0 42.562-19.093 42.562-42.562.001-4.147-3.361-7.51-7.51-7.51z"/><path d="m469.438 69.915h-152.256c-4.149 0-7.511 3.363-7.511 7.511s3.362 7.511 7.511 7.511h152.255c15.185 0 27.54 12.355 27.54 27.54v251.023c0 4.148 3.362 7.511 7.511 7.511s7.511-3.363 7.511-7.511v-251.023c.001-23.469-19.092-42.562-42.561-42.562z"/><path d="m378.282 299.944v-151.441c0-10.768-8.761-19.529-19.529-19.529h-209.225c-4.148 0-7.511 3.363-7.511 7.511s3.363 7.511 7.511 7.511h209.225c2.485 0 4.507 2.022 4.507 4.507v64.311h-30.648l-11.886-11.885c-1.986-1.987-4.627-3.081-7.437-3.081s-5.45 1.094-7.436 3.08l-31.496 31.496-12.076-12.077c-1.986-1.987-4.628-3.081-7.437-3.081s-5.449 1.094-7.436 3.08l-20.368 20.368-54.103-54.103c-1.986-1.986-4.627-3.08-7.436-3.08s-5.45 1.094-7.435 3.08l-26.201 26.2h-48.478v-64.309c0-2.485 2.022-4.507 4.507-4.507h24.28c4.148 0 7.511-3.363 7.511-7.511s-3.363-7.511-7.511-7.511h-24.28c-10.768 0-19.529 8.76-19.529 19.529v151.441c0 10.768 8.76 19.529 19.529 19.529h270.859c10.768 0 19.529-8.76 19.529-19.528zm-294.895 0v-72.11h50.344c2.81 0 5.452-1.095 7.436-3.08l24.334-24.333 54.104 54.104c2.05 2.049 4.742 3.074 7.435 3.074 2.692 0 5.386-1.025 7.435-3.075l20.369-20.368 12.079 12.079c4.098 4.098 10.769 4.098 14.87-.001l31.495-31.496 10.02 10.02c1.986 1.986 4.627 3.08 7.436 3.08h32.515v72.108c0 2.485-2.022 4.507-4.507 4.507h-270.858c-2.485-.003-4.507-2.024-4.507-4.509z"/><path d="m234.841 369.792c0 16.877 13.73 30.607 30.607 30.607s30.607-13.731 30.607-30.607-13.73-30.607-30.607-30.607c-16.877-.001-30.607 13.73-30.607 30.607zm46.192 0c0 8.594-6.992 15.585-15.585 15.585-8.594 0-15.585-6.992-15.585-15.585s6.991-15.585 15.585-15.585c8.593-.001 15.585 6.991 15.585 15.585z"/><path d="m125.458 359.083c-4.351-11.61-15.559-19.898-28.67-19.898-16.877 0-30.607 13.731-30.607 30.607s13.731 30.607 30.607 30.607c13.111 0 24.319-8.288 28.67-19.898 4.351 11.61 15.559 19.898 28.67 19.898 16.877 0 30.607-13.731 30.607-30.607s-13.731-30.607-30.607-30.607c-13.111-.001-24.319 8.288-28.67 19.898zm-28.67 26.294c-8.594 0-15.585-6.992-15.585-15.585s6.992-15.585 15.585-15.585 15.585 6.992 15.585 15.585-6.991 15.585-15.585 15.585zm72.925-15.585c0 8.594-6.992 15.585-15.585 15.585s-15.585-6.992-15.585-15.585 6.992-15.585 15.585-15.585 15.585 6.991 15.585 15.585z"/></svg>