<?xml version="1.0" encoding="utf-8"?>
<!-- Generator: Adobe Illustrator 16.0.0, SVG Export Plug-In . SVG Version: 6.00 Build 0)  -->
<!DOCTYPE svg PUBLIC "-//W3C//DTD SVG 1.1//EN" "http://www.w3.org/Graphics/SVG/1.1/DTD/svg11.dtd">
<svg version="1.1" id="Layer_1" xmlns="http://www.w3.org/2000/svg" xmlns:xlink="http://www.w3.org/1999/xlink" x="0px" y="0px"
	 width="841.889px" height="1190.551px" fill="#ffffff" viewBox="0 0 841.889 1190.551" enable-background="new 0 0 841.889 1190.551"
	 xml:space="preserve">
<g>
	<path d="M802.426,509.77c-17.176,0-31.749,10.99-37.171,26.31H683.7c-1.265-25.6-6.262-50.222-14.361-73.4
		c0.154-0.067,0.321-0.09,0.476-0.16l74.431-34.351l0,0c7.071,5.915,16.038,9.252,25.308,9.252c5.15,0,10.386-1.015,15.421-3.157
		c20.047-8.52,29.405-31.682,20.875-51.734c-6.384-15.021-20.972-24.035-36.315-24.035c-5.152,0-10.387,1.015-15.422,3.16
		c-17.426,7.399-26.76,25.869-23.304,43.741l-71.373,32.938c-10.586-22.68-24.318-43.594-40.633-62.214
		c0.771-0.498,1.509-1.073,2.184-1.747l59.196-59.195c0.038-0.039,0.058-0.08,0.096-0.119c5.351,2.547,11.099,3.973,16.905,3.973
		c10.104,0,20.201-3.854,27.909-11.559c15.409-15.409,15.415-40.395,0-55.811c-7.708-7.708-17.805-11.559-27.902-11.559
		c-10.104,0-20.201,3.854-27.909,11.559c-12.133,12.137-14.566,30.157-7.585,44.817c-0.038,0.036-0.077,0.062-0.116,0.096
		l-59.195,59.196c-0.564,0.565-1.04,1.178-1.478,1.811c-20.284-19.057-43.567-34.938-69.08-46.846l29.502-70.803
		c14.753-0.86,28.428-9.917,34.324-24.533c8.151-20.203-1.618-43.198-21.825-51.346c-4.837-1.953-9.841-2.878-14.754-2.878
		c-15.621,0-30.4,9.333-36.599,24.697c-6.912,17.156-0.893,36.28,13.437,46.667l-28.447,68.277c0,0,0,0.01-0.007,0.013
		c-23.175-8.096-47.795-13.09-73.391-14.353c0-0.115,0.032-0.218,0.032-0.334v-81.22c15.319-5.422,26.31-19.995,26.31-37.171
		c0-21.794-17.664-39.464-39.464-39.464c-21.801,0-39.464,17.67-39.464,39.464c0,17.176,10.99,31.749,26.31,37.171v81.22
		c0,0.116,0.032,0.219,0.032,0.334c-27.787,1.372-54.437,7.104-79.319,16.479c-0.231-1.006-0.546-2.001-1.027-2.965l-31.641-63.28
		c0,0.003-0.007,0.007-0.007,0.007c12.339-10.942,16.958-28.924,10.143-44.937c-6.378-15.015-20.971-24.029-36.316-24.029
		c-5.151,0-10.38,1.012-15.415,3.154c-20.066,8.526-29.405,31.697-20.889,51.744c6.392,15.014,20.984,24.029,36.336,24.029
		c0.559,0,1.118-0.059,1.677-0.084l32.577,65.162c0.271,0.533,0.662,0.944,0.989,1.423c-22.493,11.1-43.188,25.298-61.501,42.071
		l-57.39-57.393c7.829-14.896,5.665-33.678-6.86-46.199c-7.708-7.704-17.805-11.559-27.908-11.559
		c-10.097,0-20.194,3.851-27.902,11.559c-15.415,15.416-15.408,40.401,0,55.811c7.701,7.705,17.806,11.559,27.908,11.559
		c5.286,0,10.554-1.117,15.499-3.23l58.168,58.174c-17.137,19.146-31.499,40.813-42.489,64.359l-77.302-35.677
		c-0.726-14.908-9.872-28.763-24.62-34.708c-4.836-1.952-9.833-2.877-14.747-2.877c-15.615,0.003-30.4,9.329-36.599,24.703
		c-8.157,20.217,1.618,43.205,21.826,51.347c4.836,1.952,9.833,2.877,14.753,2.877c12.353,0,24.112-5.912,31.589-15.964
		l74.72,34.485c0.154,0.073,0.321,0.097,0.476,0.16c-8.1,23.179-13.097,47.801-14.361,73.4H76.634
		c-5.422-15.319-19.995-26.31-37.171-26.31C17.67,509.77,0,527.434,0,549.234c0,21.801,17.67,39.464,39.463,39.464
		c17.176,0,31.749-10.99,37.171-26.31c0,0,93.231,0,94.375,0c7.265,0,13.154-5.89,13.154-13.154
		c0-130.563,106.219-236.781,236.781-236.781s236.781,106.219,236.781,236.781c0,7.265,5.89,13.154,13.154,13.154
		c1.144,0,94.375,0,94.375,0c5.422,15.319,19.995,26.31,37.171,26.31c21.793,0,39.463-17.663,39.463-39.464
		C841.889,527.434,824.219,509.77,802.426,509.77z M757.355,393.04c0.758-1.885,2.686-5.321,7.059-7.178
		c1.651-0.703,3.372-1.06,5.12-1.06c5.285,0,10.032,3.147,12.106,8.025c1.851,4.352,0.854,8.161,0.091,10.047
		c-0.758,1.885-2.686,5.324-7.059,7.181c-1.645,0.7-3.373,1.057-5.119,1.057c-5.28,0-10.033-3.145-12.108-8.022
		C755.595,398.735,756.591,394.926,757.355,393.04z M257.567,212.364c-2.833-6.673,0.289-14.406,6.969-17.246
		c1.651-0.703,3.372-1.056,5.119-1.056c5.287,0,10.033,3.144,12.108,8.019c1.85,4.354,0.854,8.167,0.096,10.053
		c-0.765,1.885-2.691,5.324-7.052,7.181c-1.651,0.7-3.373,1.057-5.12,1.057C264.394,220.371,259.635,217.223,257.567,212.364z
		 M141.97,288.867c-3.353-3.353-3.854-7.265-3.854-9.301c0-2.033,0.502-5.947,3.854-9.301c3.353-3.353,7.271-3.854,9.301-3.854
		c2.036,0,5.954,0.501,9.307,3.854c3.353,3.354,3.854,7.265,3.854,9.301c0,2.033-0.502,5.948-3.854,9.301s-7.271,3.854-9.301,3.854
		C149.24,292.72,145.323,292.219,141.97,288.867z M77.957,409.458c-2.017,5.001-6.802,8.231-12.191,8.231
		c-1.67,0-3.314-0.324-4.92-0.971c-4.387-1.769-6.378-5.167-7.174-7.036c-0.791-1.872-1.863-5.665-0.084-10.067
		c2.017-5.001,6.802-8.231,12.197-8.235c1.67,0,3.314,0.328,4.907,0.971c4.394,1.769,6.385,5.17,7.175,7.043
		C78.664,401.261,79.737,405.058,77.957,409.458z M39.463,562.388c-7.251,0-13.154-5.899-13.154-13.154s5.903-13.154,13.154-13.154
		c7.252,0,13.155,5.899,13.155,13.154S46.715,562.388,39.463,562.388z M546.869,195.717c2.023-5.001,6.809-8.231,12.204-8.231
		c1.67,0,3.321,0.324,4.913,0.97c4.394,1.77,6.379,5.17,7.176,7.04c0.796,1.871,1.862,5.668,0.096,10.062
		c-2.023,5.003-6.814,8.237-12.204,8.237c-1.67,0-3.32-0.324-4.906-0.967C547.429,210.116,544.165,202.434,546.869,195.717z
		 M420.945,154.598c7.251,0,13.154,5.899,13.154,13.154s-5.903,13.154-13.154,13.154c-7.252,0-13.154-5.899-13.154-13.154
		S413.693,154.598,420.945,154.598z M687.883,270.265c3.352-3.353,7.271-3.854,9.307-3.854c2.029,0,5.947,0.501,9.301,3.854
		c3.353,3.354,3.854,7.268,3.854,9.301c0,2.036-0.501,5.948-3.854,9.301c-3.354,3.353-7.271,3.854-9.308,3.854
		c-2.029,0-5.948-0.501-9.3-3.854c-3.354-3.353-3.854-7.268-3.854-9.301C684.029,277.53,684.53,273.619,687.883,270.265z
		 M802.426,562.388c-7.252,0-13.154-5.899-13.154-13.154s5.902-13.154,13.154-13.154c7.251,0,13.154,5.899,13.154,13.154
		S809.677,562.388,802.426,562.388z"/>
	<path d="M513.405,591.165c-7.129,7.492-15.139,14.102-23.894,19.696c24.055,7.226,44.165,18.701,59.831,34.685
		c34.152,34.839,50.666,92.66,49.105,171.728c-0.168,0.489-1.382,1.629-2.968,1.629H246.634c-1.663,0-2.922-1.236-3.057-1.68
		c-2.197-81.785,13.07-138.313,46.657-172.813c15.646-16.07,36.046-27.462,60.685-34.435c-8.684-5.717-16.571-12.502-23.617-20.104
		c-98.685,37.807-112.289,143.566-110.027,228.056c0.397,15.078,13.822,27.285,29.359,27.285H595.48
		c15.524,0,28.955-12.207,29.251-27.285C626.394,734.368,610.246,630.056,513.405,591.165z"/>
	<path d="M519.604,503.18c0-54.483-44.165-98.646-98.659-98.646c-54.468,0-98.659,44.162-98.659,98.646
		c0,44.166,29.026,81.535,69.022,94.124l-22.41,136.104c-2.421,11.647,2.871,25.2,12.686,32.378l31.204,22.863
		c2.98,2.318,7.393,3.976,12.023,3.976c3.925,0,8.01-1.191,11.511-4.182l30.94-22.657c9.833-7.21,14.959-21.231,12.049-32.806
		L451.178,597.09C490.872,584.317,519.604,547.125,519.604,503.18z M453.619,738.635l0.18,0.777
		c0.295,1.214-0.777,4.191-2.088,5.151l-27.292,19.988l-27.298-19.994c-1.594-1.163-2.729-4.564-2.46-5.801l22.597-137.092
		c1.233,0.045,2.44,0.187,3.687,0.187c1.458,0,2.878-0.153,4.316-0.218L453.619,738.635z M420.945,575.544
		c-39.894,0-72.35-32.463-72.35-72.363c0-39.888,32.456-72.337,72.35-72.337s72.35,32.449,72.35,72.337
		C493.294,543.081,460.838,575.544,420.945,575.544z"/>
</g>
</svg>
