<?xml version="1.0" encoding="utf-8"?>
<!-- Generator: Adobe Illustrator 16.0.0, SVG Export Plug-In . SVG Version: 6.00 Build 0)  -->
<!DOCTYPE svg PUBLIC "-//W3C//DTD SVG 1.1//EN" "http://www.w3.org/Graphics/SVG/1.1/DTD/svg11.dtd">
<svg version="1.1" id="Layer_1" xmlns="http://www.w3.org/2000/svg" xmlns:xlink="http://www.w3.org/1999/xlink" x="0px" y="0px"
	 width="841.889px" height="1190.551px" viewBox="0 0 841.889 1190.551" enable-background="new 0 0 841.889 1190.551"
	 xml:space="preserve">
<title>BMI Calculator,Bmi,Exercise,Obesity,Weight</title>
<g>
	<path d="M768.224,277.988h-72.087V159.597c0.291-35.162-27.978-63.901-63.139-64.192c-0.133-0.001-0.265-0.002-0.397-0.002H92.081
		c-35.089-0.218-63.712,28.051-63.93,63.141c-0.001,0.132-0.001,0.264-0.001,0.396v478.036
		c-0.001,35.09,28.445,63.536,63.535,63.537c0.132,0,0.264,0,0.396-0.001h295.977v143.384c0,22.522,18.258,40.779,40.779,40.779
		h339.387c22.521,0,40.779-18.257,40.779-40.779V319.03c0.146-22.521-17.994-40.896-40.516-41.041
		C768.4,277.988,768.312,277.988,768.224,277.988z M388.058,674.202H92.081c-20.509-0.072-37.096-16.718-37.096-37.227V158.939
		c0-20.509,16.587-37.154,37.096-37.228h540.52c20.561,0,37.228,16.668,37.228,37.228v119.049H528.549
		c-21.633-91.936-113.697-148.927-205.632-127.294c-65.6,15.435-116.017,67.958-128.757,134.134
		c-1.747,9.33,0.708,18.955,6.709,26.31c6.045,7.356,15.077,11.607,24.6,11.576h162.589V674.202z M390.294,192.483l-35.122-16.838
		l0,0c-1.325-0.656-2.746-1.101-4.21-1.315h-2.236c-1.092-0.138-2.196-0.138-3.288,0h-1.315c-1.389,0.525-2.679,1.281-3.815,2.236
		l0,0c-1.005,0.802-1.852,1.783-2.499,2.895l-21.311,35.386c-2.991,6.62-0.051,14.412,6.57,17.404
		c5.683,2.568,12.388,0.793,16.056-4.25l4.867-8.156l5.394,21.837c-33.196,2.226-62.353,22.848-75.507,53.407h-48.408
		c-1.676,0.053-3.279-0.677-4.342-1.973c-1.079-1.376-1.511-3.15-1.184-4.867c14.806-78.532,90.47-130.193,169.002-115.388
		c54.216,10.221,97.901,50.382,112.637,103.548h-72.745h-2.894c-12.088-16.164-29.365-27.682-48.936-32.623l-8.682-32.491
		l10.523,4.998c1.788,0.768,3.711,1.17,5.656,1.185c7.266-0.043,13.12-5.967,13.078-13.231c-0.029-5.015-2.908-9.577-7.421-11.763
		H390.294z M362.67,296.667h-59.195c11.462-17.347,30.905-27.736,51.697-27.624h0.657L362.67,296.667z M394.636,296.667h-4.867
		l-4.999-20.126c6.092,3.447,11.562,7.895,16.18,13.154C398.598,291.783,396.481,294.121,394.636,296.667z M782.694,843.895
		c0,7.992-6.478,14.471-14.47,14.471H428.837c-7.991,0-14.47-6.479-14.47-14.471V384.802c0-16.706-1.315-33.676,0-50.514v-11.05
		c0.214-10.765,8.965-19.399,19.731-19.469h7.63c21.047,0,42.095,0,63.142,0c50.646,0,101.29,0,152.066,0h111.287
		c7.992-0.012,14.479,6.457,14.491,14.449c0.001,0.271-0.006,0.54-0.021,0.811V843.895z"/>
	<path d="M721.657,332.184H475.405c-2.839,0.01-5.666,0.362-8.419,1.053c-15.483,3.819-26.349,17.729-26.31,33.676v127.861
		c0,19.18,15.549,34.729,34.729,34.729h246.253c19.18,0,34.728-15.549,34.728-34.729V366.913
		C756.385,347.733,740.837,332.184,721.657,332.184z M730.076,494.774c0,4.65-3.77,8.419-8.419,8.419H475.405
		c-4.65,0-8.419-3.769-8.419-8.419V366.913c0-4.65,3.769-8.419,8.419-8.419h246.253c4.649,0,8.419,3.769,8.419,8.419V494.774z"/>
	<path d="M526.181,542.657h-65.772c-7.266,0-13.154,5.89-13.154,13.154v65.772c0,7.266,5.889,13.155,13.154,13.155h65.772
		c7.265,0,13.154-5.89,13.154-13.155v-65.772C539.335,548.547,533.446,542.657,526.181,542.657z M513.027,608.429h-39.464v-39.463
		h39.464V608.429z"/>
	<path d="M631.417,542.657h-65.772c-7.266,0-13.155,5.89-13.155,13.154v65.772c0,7.266,5.89,13.155,13.155,13.155h65.772
		c7.265,0,13.154-5.89,13.154-13.155v-65.772C644.572,548.547,638.682,542.657,631.417,542.657z M618.262,608.429h-39.463v-39.463
		h39.463V608.429z"/>
	<path d="M736.654,542.657H670.88c-7.265,0-13.154,5.89-13.154,13.154v65.772c0,7.266,5.89,13.155,13.154,13.155h65.773
		c7.265,0,13.154-5.89,13.154-13.155v-65.772C749.808,548.547,743.918,542.657,736.654,542.657z M723.498,608.429h-39.463v-39.463
		h39.463V608.429z"/>
	<path d="M526.181,647.893h-65.772c-7.266,0-13.154,5.89-13.154,13.154v65.772c0,7.266,5.889,13.155,13.154,13.155h65.772
		c7.265,0,13.154-5.89,13.154-13.155v-65.772C539.335,653.783,533.446,647.893,526.181,647.893z M513.027,713.666h-39.464v-39.464
		h39.464V713.666z"/>
	<path d="M631.417,647.893h-65.772c-7.266,0-13.155,5.89-13.155,13.154v65.772c0,7.266,5.89,13.155,13.155,13.155h65.772
		c7.265,0,13.154-5.89,13.154-13.155v-65.772C644.572,653.783,638.682,647.893,631.417,647.893z M618.262,713.666h-39.463v-39.464
		h39.463V713.666z"/>
	<path d="M736.654,647.893H670.88c-7.265,0-13.154,5.89-13.154,13.154v65.772c0,7.266,5.89,13.155,13.154,13.155h65.773
		c7.265,0,13.154-5.89,13.154-13.155v-65.772C749.808,653.783,743.918,647.893,736.654,647.893z M723.498,713.666h-39.463v-39.464
		h39.463V713.666z"/>
	<path d="M526.181,753.13h-65.772c-7.266,0-13.154,5.89-13.154,13.154v65.772c0,7.266,5.889,13.154,13.154,13.154h65.772
		c7.265,0,13.154-5.889,13.154-13.154v-65.772C539.335,759.019,533.446,753.13,526.181,753.13z M513.027,818.902h-39.464v-39.464
		h39.464V818.902z"/>
	<path d="M631.417,753.13h-65.772c-7.266,0-13.155,5.89-13.155,13.154v65.772c0,7.266,5.89,13.154,13.155,13.154h65.772
		c7.265,0,13.154-5.889,13.154-13.154v-65.772C644.572,759.019,638.682,753.13,631.417,753.13z M618.262,818.902h-39.463v-39.464
		h39.463V818.902z"/>
	<path d="M736.654,753.13H670.88c-7.265,0-13.154,5.89-13.154,13.154v65.772c0,7.266,5.89,13.154,13.154,13.154h65.773
		c7.265,0,13.154-5.889,13.154-13.154v-65.772C749.808,759.019,743.918,753.13,736.654,753.13z M723.498,818.902h-39.463v-39.464
		h39.463V818.902z"/>
</g>
</svg>
