<?xml version="1.0" encoding="iso-8859-1"?>
<!-- Generator: Adobe Illustrator 19.0.0, SVG Export Plug-In . SVG Version: 6.00 Build 0)  -->
<svg version="1.1" id="Layer_1" xmlns="http://www.w3.org/2000/svg" xmlns:xlink="http://www.w3.org/1999/xlink" x="0px" y="0px"
	 viewBox="0 0 512 512" style="enable-background:new 0 0 512 512;" xml:space="preserve">
<g>
	<g>
		<polygon points="0,0.453 0,506.65 51.036,455.613 175.64,455.613 175.64,439.939 44.544,439.939 15.674,468.809 15.674,16.127 
			263.692,16.127 263.692,48.239 279.366,48.239 279.366,0.453 		"/>
	</g>
</g>
<g>
	<g>
		<path d="M279.366,311.782H512l-48.848-58.618V56.387H183.785v255.394h79.907v24.279h-79.907v175.487h279.366v-116.87
			l48.848-58.617H279.366V311.782z M199.459,296.107V72.061h248.018v186.777l31.058,37.269H199.459z M478.535,351.735
			l-31.058,37.268v106.871H199.459V351.735H478.535z"/>
	</g>
</g>
<g>
	<g>
		<rect x="227.84" y="97.463" width="119.124" height="15.674"/>
	</g>
</g>
<g>
	<g>
		<rect x="227.84" y="129.856" width="24.034" height="15.674"/>
	</g>
</g>
<g>
	<g>
		<rect x="227.84" y="160.159" width="48.067" height="15.674"/>
	</g>
</g>
<g>
	<g>
		<rect x="290.536" y="160.159" width="88.82" height="15.674"/>
	</g>
</g>
<g>
	<g>
		<path d="M231.729,192.229v79.6h183.479v-79.6H231.729z M399.534,256.154h-152.13v-48.251h152.13V256.154z"/>
	</g>
</g>
<g>
	<g>
		<rect x="227.84" y="368.103" width="119.124" height="15.674"/>
	</g>
</g>
<g>
	<g>
		<rect x="227.84" y="400.497" width="24.034" height="15.674"/>
	</g>
</g>
<g>
	<g>
		<rect x="268.593" y="400.497" width="119.124" height="15.674"/>
	</g>
</g>
<g>
	<g>
		<path d="M231.729,431.948v47.637h71.609v-47.637H231.729z M287.664,463.911h-40.261v-16.289h40.261V463.911z"/>
	</g>
</g>
<g>
	<g>
		<path d="M311.636,431.948v47.637h103.572v-47.637H311.636z M399.534,463.911H327.31v-16.289h72.223V463.911z"/>
	</g>
</g>
<g>
	<g>
		<polygon points="110.169,46.697 63.771,93.095 45.342,74.664 34.257,85.748 63.771,115.261 121.252,57.78 		"/>
	</g>
</g>
<g>
	<g>
		<rect x="124.39" y="73.429" width="47.023" height="15.674"/>
	</g>
</g>
<g>
	<g>
		<rect x="108.716" y="105.822" width="15.674" height="15.674"/>
	</g>
</g>
<g>
	<g>
		<rect x="132.75" y="105.822" width="14.629" height="15.674"/>
	</g>
</g>
<g>
	<g>
		<rect x="155.739" y="105.822" width="15.674" height="15.674"/>
	</g>
</g>
<g>
	<g>
		<polygon points="110.169,134.594 63.771,180.991 45.342,162.562 34.257,173.644 63.771,203.159 121.252,145.677 		"/>
	</g>
</g>
<g>
	<g>
		<rect x="124.39" y="160.159" width="47.023" height="15.674"/>
	</g>
</g>
<g>
	<g>
		<rect x="108.716" y="192.553" width="15.674" height="15.674"/>
	</g>
</g>
<g>
	<g>
		<rect x="132.75" y="192.553" width="14.629" height="15.674"/>
	</g>
</g>
<g>
	<g>
		<rect x="155.739" y="192.553" width="15.674" height="15.674"/>
	</g>
</g>
<g>
	<g>
		<rect x="124.39" y="248.98" width="47.023" height="15.674"/>
	</g>
</g>
<g>
	<g>
		<rect x="108.716" y="281.373" width="15.674" height="15.674"/>
	</g>
</g>
<g>
	<g>
		<rect x="132.75" y="281.373" width="14.629" height="15.674"/>
	</g>
</g>
<g>
	<g>
		<rect x="155.739" y="281.373" width="15.674" height="15.674"/>
	</g>
</g>
<g>
	<g>
		<rect x="124.39" y="336.755" width="47.023" height="15.674"/>
	</g>
</g>
<g>
	<g>
		<rect x="108.716" y="368.103" width="15.674" height="15.674"/>
	</g>
</g>
<g>
	<g>
		<rect x="132.75" y="368.103" width="14.629" height="15.674"/>
	</g>
</g>
<g>
	<g>
		<rect x="155.739" y="368.103" width="15.674" height="15.674"/>
	</g>
</g>
<g>
	<g>
		<rect x="52.289" y="352.429" width="22.989" height="15.674"/>
	</g>
</g>
<g>
	<g>
		<rect x="52.289" y="265.699" width="22.989" height="15.674"/>
	</g>
</g>
<g>
</g>
<g>
</g>
<g>
</g>
<g>
</g>
<g>
</g>
<g>
</g>
<g>
</g>
<g>
</g>
<g>
</g>
<g>
</g>
<g>
</g>
<g>
</g>
<g>
</g>
<g>
</g>
<g>
</g>
</svg>
