<?xml version="1.0" ?><svg style="enable-background:new 0 0 512 512;" version="1.1" viewBox="0 0 512 512" xml:space="preserve" xmlns="http://www.w3.org/2000/svg" xmlns:xlink="http://www.w3.org/1999/xlink"><g id="_x33_6_x2C__healthcare_x2C__medical_x2C__stethoscope"><g id="XMLID_1452_"><g id="XMLID_1453_"><path d="M426,331.251V293.5c0-28.948-23.552-52.5-52.5-52.5c-28.948,0-52.5,23.552-52.5,52.5v121.25     c0,36.53-29.72,66.25-66.25,66.25c-36.53,0-66.25-29.72-66.25-66.25v-89.219c12.605-2.355,22.178-13.432,22.178-26.709v-6.482     c31.342-6.085,59.951-22.725,80.945-47.167C313.791,219.362,326,186.433,326,152.452c0-11.128-8.017-20.396-18.599-22.354V65.701     C307.401,49.324,294.077,36,277.7,36h-7.358c-2.228-8.612-10.043-15-19.342-15c-11.028,0-20,8.972-20,20s8.972,20,20,20     c9.299,0,17.113-6.388,19.342-15h7.358c10.863,0,19.701,8.838,19.701,19.701v64.792c-9.738,2.618-16.851,11.61-16.886,22.282     c-0.175,53.317-43.695,96.693-97.016,96.693s-96.841-43.377-97.016-96.693c-0.035-10.672-7.147-19.665-16.885-22.282V65.701     C69.6,54.838,78.436,46,89.299,46h7.359c2.228,8.612,10.043,15,19.342,15c11.028,0,20-8.972,20-20s-8.972-20-20-20     c-9.299,0-17.113,6.388-19.342,15h-7.359C72.923,36,59.6,49.324,59.6,65.701v64.394C49.03,132.048,41,141.328,41,152.452     c0,33.981,12.209,66.91,34.377,92.721c20.994,24.443,49.603,41.083,80.945,47.167v6.482c0,13.277,9.572,24.354,22.178,26.709     v89.219c0,42.044,34.206,76.25,76.25,76.25S331,456.794,331,414.75V293.5c0-23.435,19.065-42.5,42.5-42.5     c23.435,0,42.5,19.065,42.5,42.5v37.751c-25.231,2.517-45,23.866-45,49.749c0,27.57,22.43,50,50,50c27.57,0,50-22.43,50-50     C471,355.117,451.231,333.768,426,331.251z M251,51c-5.514,0-10-4.486-10-10s4.486-10,10-10c5.514,0,10,4.486,10,10     S256.514,51,251,51z M116,31c5.514,0,10,4.486,10,10s-4.486,10-10,10c-5.514,0-10-4.486-10-10S110.486,31,116,31z      M166.322,298.822v-10.668c0-2.451-1.777-4.541-4.196-4.935C97.735,272.732,51,217.736,51,152.452     c0-7.204,6.021-13.072,13.364-12.727c6.773,0.318,12.097,6.065,12.12,13.083c0.192,58.813,48.199,106.661,107.016,106.661     s106.823-47.848,107.016-106.66c0.023-7.018,5.347-12.765,12.121-13.083c7.299-0.344,13.363,5.495,13.363,12.727     c0,65.285-46.735,120.281-111.126,130.768c-2.419,0.394-4.196,2.483-4.196,4.935v10.668c0,9.472-7.706,17.178-17.178,17.178     C174.028,316,166.322,308.294,166.322,298.822z M421,371c5.514,0,10,4.486,10,10s-4.486,10-10,10c-5.514,0-10-4.486-10-10     S415.486,371,421,371z M421,421c-22.056,0-40-17.944-40-40c0-20.361,15.297-37.207,35-39.677v20.335     c-8.612,2.228-15,10.043-15,19.342c0,11.028,8.972,20,20,20c11.028,0,20-8.972,20-20c0-9.299-6.388-17.113-15-19.342v-20.335     c19.703,2.47,35,19.315,35,39.677C461,403.056,443.056,421,421,421z" id="XMLID_1467_"/><path d="M426,141c19.299,0,35-15.701,35-35s-15.701-35-35-35c-19.299,0-35,15.701-35,35S406.701,141,426,141z      M426,81c13.785,0,25,11.215,25,25s-11.215,25-25,25c-13.785,0-25-11.215-25-25S412.215,81,426,81z" id="XMLID_1464_"/><path d="M91,361c-16.542,0-30,13.458-30,30s13.458,30,30,30s30-13.458,30-30S107.542,361,91,361z M91,411     c-11.028,0-20-8.972-20-20s8.972-20,20-20c11.028,0,20,8.972,20,20S102.028,411,91,411z" id="XMLID_1461_"/><circle cx="448.5" cy="208.5" id="XMLID_1032_" r="7.5"/><circle cx="203.5" cy="118.5" id="XMLID_1031_" r="7.5"/><circle cx="363.5" cy="48.5" id="XMLID_1030_" r="7.5"/><circle cx="363.5" cy="458.5" id="XMLID_1029_" r="7.5"/><circle cx="268.5" cy="378.5" id="XMLID_1028_" r="7.5"/><circle cx="153.5" cy="448.5" id="XMLID_1027_" r="7.5"/><circle cx="63.5" cy="293.5" id="XMLID_1026_" r="7.5"/></g></g></g><g id="Layer_1"/></svg>