<?xml version="1.0" encoding="utf-8"?>
<!-- Generator: Adobe Illustrator 16.0.0, SVG Export Plug-In . SVG Version: 6.00 Build 0)  -->
<!DOCTYPE svg PUBLIC "-//W3C//DTD SVG 1.1//EN" "http://www.w3.org/Graphics/SVG/1.1/DTD/svg11.dtd">
<svg version="1.1"
	 id="Layer_1" xmlns:inkscape="http://www.inkscape.org/namespaces/inkscape" xmlns:cc="http://creativecommons.org/ns#" xmlns:sodipodi="http://sodipodi.sourceforge.net/DTD/sodipodi-0.dtd" xmlns:svg="http://www.w3.org/2000/svg" xmlns:rdf="http://www.w3.org/1999/02/22-rdf-syntax-ns#" xmlns:dc="http://purl.org/dc/elements/1.1/"
	 xmlns="http://www.w3.org/2000/svg" xmlns:xlink="http://www.w3.org/1999/xlink" x="0px" y="0px" width="841.889px"
	 height="1190.551px" viewBox="0 0 841.889 1190.551" enable-background="new 0 0 841.889 1190.551" xml:space="preserve">
<path d="M36.138,75.032c-0.482,0-0.917,0.22-1.385,0.266c-0.846,0.075-1.588,0.29-2.388,0.501c-1.418,0.377-2.697,0.882-3.92,1.621
	c-0.393,0.241-0.86,0.229-1.238,0.501c-0.468,0.347-0.815,0.802-1.237,1.179c-0.257,0.242-0.525,0.451-0.767,0.708
	c-1.147,1.237-2.076,2.617-2.771,4.126c-0.136,0.302-0.233,0.583-0.354,0.885c-0.635,1.689-1.032,3.464-1.032,5.306v694.192
	c0,1.887,0.412,3.675,1.062,5.365c0.211,0.558,0.554,1.004,0.825,1.532c0.559,1.071,1.175,2.071,1.975,2.977
	c0.438,0.483,0.873,0.919,1.355,1.356c0.876,0.77,1.862,1.387,2.918,1.945c0.559,0.302,1.077,0.628,1.681,0.854
	c0.257,0.091,0.45,0.263,0.707,0.354l332.005,105.639c1.479,0.452,3.029,0.707,4.569,0.707c3.169,0,6.29-0.987,8.901-2.889
	c3.894-2.837,6.189-7.373,6.189-12.202v-90.547h166.003c8.345,0,15.091-6.746,15.091-15.092V527.767
	c0-8.346-6.761-15.092-15.091-15.092c-8.346,0-15.092,6.746-15.092,15.092v241.458H383.235V195.761
	c0-6.58-4.26-12.392-10.522-14.384l-239.395-76.163h400.828v241.458c0,8.346,6.746,15.092,15.092,15.092
	c8.345,0,15.091-6.746,15.091-15.092V90.123c0-8.345-6.746-15.091-15.091-15.091H36.138z M51.23,110.756l301.822,96.029v662.537
	L51.23,773.293V110.756z M624.693,241.035c-3.859,0-7.719,1.471-10.67,4.421c-5.9,5.9-5.9,15.439,0,21.34l155.333,155.333H443.599
	c-8.345,0-15.091,6.746-15.091,15.092c0,8.345,6.746,15.091,15.091,15.091h325.757L614.023,607.644c-5.9,5.9-5.9,15.438,0,21.34
	c2.943,2.942,6.807,4.421,10.67,4.421s7.698-1.479,10.641-4.421L816.427,447.89c1.389-1.389,2.502-3.037,3.272-4.894
	c1.523-3.682,1.523-7.856,0-11.554c-0.77-1.856-1.884-3.52-3.272-4.923L635.333,245.456
	C632.383,242.506,628.553,241.035,624.693,241.035z"/>
</svg>
