<svg xmlns="http://www.w3.org/2000/svg" xmlns:xlink="http://www.w3.org/1999/xlink" version="1.1" x="0px" y="0px" viewBox="0 0 66 82.5" enable-background="new 0 0 66 66" xml:space="preserve"><g><path fill="#000000" d="M40.356,19.093c1.551,0,2.834,1.208,2.92,2.751c0.002,0.032,0.007,0.143,0.013,0.174   c0,0.414,0.336,0.75,0.75,0.75c0.354,0,0.637-0.251,0.716-0.581c0.07-0.114,0.122-0.241,0.122-0.385c0-1.599,1.387-2.71,2.845-2.71   c1.617,0,2.933,1.313,2.933,2.926c0,0.414,0.336,0.75,0.75,0.75c0.007,0,0.013,0,0.02,0c0.414,0,0.75-0.336,0.75-0.75   c0-0.06-0.007-0.12-0.021-0.176c-0.094-10.18-8.295-18.569-18.401-18.945V1.75c0-0.414-0.336-0.75-0.75-0.75   c-0.414,0-0.75,0.336-0.75,0.75v1.149c-10.187,0.401-18.404,8.874-18.404,19.12c0,0.414,0.336,0.75,0.75,0.75   c0.414,0,0.75-0.336,0.75-0.75c0-1.613,1.312-2.926,2.926-2.926c1.411,0,2.621,1.001,2.881,2.399   c0.034,0.162,0.051,0.339,0.051,0.527c0,0.414,0.336,0.75,0.75,0.75c0.414,0,0.75-0.336,0.75-0.75c0-0.195,0.016-0.362,0.055-0.544   c0.256-1.38,1.467-2.381,2.878-2.381c1.448,0,2.695,1.078,2.902,2.52c0.02,0.126,0.029,0.257,0.03,0.394c0,0.005,0,0.01,0,0.015   c0,0.414,0.336,0.75,0.75,0.75c0.311,0,0.578-0.19,0.691-0.459c0.038-0.09,0.061-0.188,0.062-0.325   c0.016-1.323,0.896-2.438,2.179-2.783l0,0v13.974c0,0.7-0.569,1.27-1.269,1.27c-0.7,0-1.27-0.569-1.27-1.27v-1.174   c0-0.414-0.336-0.75-0.75-0.75c-0.414,0-0.75,0.336-0.75,0.75v1.174c0,1.527,1.242,2.77,2.77,2.77c1.527,0,2.769-1.242,2.769-2.77   V19.201c1.106,0.291,1.872,1.156,2.1,2.209c0.015,0.072,0.032,0.143,0.042,0.218c0.018,0.131,0.032,0.262,0.032,0.394   c0,0.414,0.336,0.75,0.75,0.75c0.007-0.001,0.014,0,0.02,0c0.414,0,0.75-0.336,0.75-0.75   C37.447,20.319,38.804,19.093,40.356,19.093z M37.365,18.748c-0.002,0.001-0.004,0.002-0.005,0.004   c-0.19-4.894-0.823-10.974-2.278-13.995c3.903,1.47,7.115,6.972,8.021,13.791c-0.741-0.585-1.721-0.954-2.747-0.954   C39.317,17.593,38.225,17.962,37.365,18.748z M32.897,17.602c-0.004,0-0.007-0.001-0.01-0.001c-0.009,0-0.017,0.003-0.026,0.003   c-0.963,0.033-1.889,0.371-2.644,0.984c-0.029,0.019-0.059,0.039-0.086,0.061c0.345-9.435,2.084-14.284,2.871-14.284   c0.785,0.02,2.518,4.884,2.864,14.271C35.017,17.917,33.931,17.575,32.897,17.602z M25.639,17.593   c-0.892,0-1.898,0.292-2.741,0.955c-0.022,0.017-0.047,0.029-0.068,0.047c0.813-6.955,4.027-12.444,8.103-13.869   c-1.468,3.015-2.106,9.132-2.296,14.045C27.889,18.083,26.812,17.593,25.639,17.593z M50.277,18.405   c-0.723-0.511-1.605-0.812-2.556-0.812c-1.191,0-2.281,0.474-3.08,1.243c-0.663-5.785-2.873-10.689-5.879-13.48   C44.549,7.377,48.995,12.333,50.277,18.405z M18.273,17.593c-0.948,0-1.828,0.3-2.549,0.81c1.273-6.021,5.658-10.945,11.392-12.998   c-3.014,2.795-5.196,7.663-5.803,13.398C20.513,18.05,19.44,17.593,18.273,17.593z"/><path fill="#000000" d="M63.051,24.237c-1.119-3.497-2.151-8.935-4.194-11.745c-0.741-1.022-2.016-1.57-3.32-1.428   c-1.203,0.13-2.19,0.82-2.639,1.844c-1.417,3.203-0.144,8.9,0.562,11.486c-2.084,0.15-3.835,3.498-4.574,5.428   c-1.258,3.555-6.124,9.492-6.117,9.492c-2.962,2.84-2.263,7.675-1.349,10.848h-0.642c-0.414,0-0.75,0.336-0.75,0.75l-0.001,13.335   c0,0.414,0.336,0.75,0.75,0.75L57.627,65c0.413,0,0.75-0.335,0.75-0.75l0.001-13.336c0-0.413-0.335-0.75-0.75-0.75l-1.349,0   c1.836-5.439,5.662-12.484,5.693-12.542C64.968,32.478,63.935,27.029,63.051,24.237z M56.878,51.664L56.877,63.5l-15.351-0.002   l0.001-11.835L56.878,51.664z M54.704,50.164l-11.722-0.001c-0.744-2.436-1.767-7.281,0.884-9.83   c0.207-0.251,5.085-6.204,6.426-9.991c0.591-1.54,2.3-4.761,3.491-4.421c1.832,2.638,1.406,5.376-0.499,7.667   c-1.707,2.052-2.561,4.735-2.596,4.849c-0.124,0.396,0.096,0.816,0.491,0.941c0.389,0.122,0.815-0.092,0.94-0.491   c0.008-0.025,0.799-2.512,2.318-4.339c2.335-2.807,2.629-6.201,0.868-9c0.071-1-2.769-8.115-1.035-12.032   c0.235-0.536,0.755-0.885,1.427-0.958c0.772-0.086,1.519,0.229,1.946,0.818c1.844,2.537,2.878,7.884,3.978,11.318   c0.808,2.554,1.76,7.531-0.956,12.194C60.492,37.205,56.51,44.543,54.704,50.164z"/><circle fill="#000000" cx="44.063" cy="55.774" r="1.032"/><circle fill="#000000" cx="44.123" cy="60.198" r="1.032"/><path fill="#000000" d="M25.225,50.163h-0.642c0.914-3.173,1.619-8-1.289-10.783c-0.049-0.06-4.918-6-6.183-9.575   c-0.736-1.921-2.483-5.26-4.567-5.41c0.705-2.585,1.979-8.283,0.563-11.484c-0.45-1.026-1.437-1.716-2.64-1.846   c-1.307-0.141-2.579,0.406-3.32,1.427c-2.043,2.81-3.073,8.241-4.195,11.748c-0.883,2.791-1.916,8.24,1.068,13.364   c0.041,0.075,3.868,7.122,5.704,12.56l-1.349,0c-0.415,0-0.75,0.337-0.75,0.75L7.624,64.25c0,0.415,0.337,0.75,0.75,0.75   l16.852-0.002c0.414,0,0.75-0.336,0.75-0.75l-0.002-13.335C25.975,50.499,25.639,50.163,25.225,50.163z M5.325,36.867   c-2.704-4.644-1.753-9.622-0.946-12.173c1.102-3.441,2.137-8.786,3.98-11.32c0.426-0.587,1.168-0.903,1.946-0.818   c0.671,0.073,1.191,0.421,1.427,0.96c1.746,3.943-1.139,11.055-1.032,12.055c-1.743,2.794-1.444,6.176,0.884,8.974   c1.512,1.819,2.31,4.314,2.318,4.339c0.123,0.391,0.539,0.615,0.94,0.49c0.394-0.124,0.614-0.545,0.491-0.94   c-0.036-0.113-0.89-2.796-2.596-4.849c-1.95-2.345-2.289-4.992-0.495-7.674c1.259-0.311,2.967,3.126,3.461,4.41   c1.347,3.806,6.226,9.758,6.493,10.074c2.596,2.49,1.569,7.33,0.823,9.766l-11.721,0.001C9.492,44.543,5.509,37.204,5.325,36.867z    M9.124,63.5L9.122,51.664l15.352-0.001l0.002,11.835L9.124,63.5z"/><circle fill="#000000" cx="21.938" cy="55.774" r="1.032"/><circle fill="#000000" cx="21.878" cy="60.198" r="1.032"/></g><text x="0" y="81" fill="#000000" font-size="5px" font-weight="bold" font-family="'Helvetica Neue', Helvetica, Arial-Unicode, Arial, Sans-serif">Created by Vectors Market</text><text x="0" y="86" fill="#000000" font-size="5px" font-weight="bold" font-family="'Helvetica Neue', Helvetica, Arial-Unicode, Arial, Sans-serif">from the Noun Project</text></svg>