<?xml version="1.0" encoding="iso-8859-1"?>
<!-- Generator: Adobe Illustrator 19.0.0, SVG Export Plug-In . SVG Version: 6.00 Build 0)  -->
<svg version="1.1" id="Layer_1" xmlns="http://www.w3.org/2000/svg" xmlns:xlink="http://www.w3.org/1999/xlink" x="0px" y="0px"
	 viewBox="0 0 475 475" style="enable-background:new 0 0 475 475;" xml:space="preserve">
<g>
	<g>
		<g>
			<path d="M329.474,192.431L322.043,185H332.5c5.523,0,10-4.477,10-10v-50c0-5.522-4.477-10-10-10h-10.457l7.431-7.431
				c3.905-3.905,3.905-10.237,0-14.142l-35.4-35.4c-3.905-3.902-10.235-3.907-14.141-0.001l-7.433,7.429V55c0-5.522-4.477-10-10-10
				h-50c-5.523,0-10,4.478-10,10v10.456l-7.432-7.431c-1.876-1.875-4.419-2.928-7.07-2.928c-0.002,0-0.005,0-0.008,0
				c-2.654,0.002-5.199,1.06-7.073,2.939l-35.298,35.4c-3.889,3.899-3.892,10.209-0.008,14.113l7.411,7.449H142.5
				c-5.523,0-10,4.478-10,10v50c0,5.523,4.477,10,10,10h10.456l-7.43,7.432c-1.877,1.877-2.93,4.424-2.928,7.078
				s1.059,5.198,2.938,7.073l35.4,35.303c3.901,3.891,10.212,3.894,14.116,0.009l7.448-7.411V245c0,5.523,4.477,10,10,10h50
				c5.523,0,10-4.477,10-10v-10.454l7.433,7.429c3.906,3.905,10.236,3.903,14.141-0.001l35.4-35.4
				C333.379,202.669,333.379,196.337,329.474,192.431z M287,220.762l-13.935-13.928c-2.93-2.929-7.361-3.747-11.146-2.059
				c-0.735,0.327-1.684,0.738-2.512,1.008c-4.119,1.34-6.908,5.179-6.908,9.51V235h-30v-19.707c0-4.331-2.789-8.17-6.908-9.51
				c-0.82-0.267-1.784-0.683-2.532-1.015c-3.773-1.68-8.189-0.863-11.115,2.05l-13.94,13.871l-21.255-21.198l13.922-13.925
				c2.949-2.949,3.757-7.419,2.029-11.215c-0.444-0.975-0.771-1.785-0.999-2.479c-1.351-4.101-5.181-6.872-9.499-6.872H152.5v-30
				h19.702c4.318,0,8.148-2.771,9.499-6.872c0.228-0.694,0.555-1.505,0.999-2.479c1.725-3.788,0.923-8.247-2.012-11.197
				l-13.874-13.945l21.195-21.257l13.919,13.917c2.925,2.925,7.351,3.748,11.132,2.065c0.748-0.332,1.712-0.748,2.532-1.015
				c4.119-1.34,6.908-5.179,6.908-9.51V65h30v19.707c0,4.331,2.789,8.17,6.908,9.51c0.828,0.27,1.777,0.681,2.512,1.008
				c3.782,1.688,8.215,0.871,11.146-2.059L287,79.238l21.26,21.26l-13.935,13.935c-2.969,2.969-3.767,7.475-2,11.282
				c0.403,0.868,0.746,1.715,0.99,2.447c1.361,4.084,5.183,6.838,9.487,6.838H322.5v30h-19.697c-4.304,0-8.126,2.754-9.487,6.838
				c-0.244,0.732-0.586,1.579-0.99,2.447c-1.768,3.808-0.969,8.313,2,11.282l13.935,13.935L287,220.762z"/>
			<path d="M237.5,105c-22.056,0-40,17.944-40,40c0,22.056,17.944,40,40,40c22.056,0,40-17.944,40-40
				C277.5,122.944,259.556,105,237.5,105z M237.5,165c-11.028,0-20-8.972-20-20s8.972-20,20-20s20,8.972,20,20
				S248.528,165,237.5,165z"/>
			<path d="M389.933,373.31L308.1,282.385c48.623-25.932,79.4-76.575,79.4-132.385c0-82.71-67.29-150-150-150s-150,67.29-150,150
				c0,55.81,30.778,106.453,79.4,132.385L85.067,373.31c-2.642,2.936-3.309,7.15-1.702,10.758C84.972,387.676,88.551,390,92.5,390
				h80v5c0,5.522,4.477,10,10,10h10v40c0,5.522,4.477,10,10,10h25v20h20v-20h25c5.523,0,10-4.478,10-10v-40h10
				c5.523,0,10-4.478,10-10v-5h80c3.949,0,7.528-2.324,9.135-5.932C393.242,380.461,392.575,376.246,389.933,373.31z M172.5,370
				h-57.546l57.546-63.94V370z M262.5,435h-50v-30h50V435z M282.5,385h-90v-20h90V385z M282.5,345h-90v-15h90V345z M288.566,269.605
				c-3.68,1.574-6.066,5.191-6.066,9.193V310h-90v-31.201c0-4.002-2.386-7.619-6.066-9.193C138.483,249.086,107.5,202.138,107.5,150
				c0-71.683,58.318-130,130-130s130,58.317,130,130C367.5,202.138,336.517,249.086,288.566,269.605z M302.5,370v-63.94L360.046,370
				H302.5z"/>
		</g>
	</g>
</g>
<g>
</g>
<g>
</g>
<g>
</g>
<g>
</g>
<g>
</g>
<g>
</g>
<g>
</g>
<g>
</g>
<g>
</g>
<g>
</g>
<g>
</g>
<g>
</g>
<g>
</g>
<g>
</g>
<g>
</g>
</svg>
