<?xml version="1.0" ?><svg viewBox="0 0 512 512" xmlns="http://www.w3.org/2000/svg"><title/><g id="patient_document"><path d="M273.9165,211.4258h68.36a4,4,0,0,0,4-4V123.7935a4,4,0,0,0-4-4h-68.36a4,4,0,0,0-4,4v83.6323A4,4,0,0,0,273.9165,211.4258Zm64.36-8h-60.36v-.38a13.2922,13.2922,0,0,1,10.7-13.0366l9.0293-.7744c.1289-.0113.2573-.0283.3848-.0518a8.5551,8.5551,0,0,0,7.0009-8.4126v-1.4941a8.584,8.584,0,0,0-3.7343-7.0645,12.0213,12.0213,0,0,1-5.2144-9.9028v-9.7471a12.0135,12.0135,0,0,1,24.0269,0v9.7471a12.0208,12.0208,0,0,1-5.2149,9.9028,8.5846,8.5846,0,0,0-3.7339,7.0645V180.77a8.5556,8.5556,0,0,0,7.0015,8.4126c.1274.0235.2559.04.3848.0518l9.0288.7744a13.2927,13.2927,0,0,1,10.7,13.0366Zm0-75.6323v58.64a21.2082,21.2082,0,0,0-9.4263-4.3261c-.127-.0234-.2554-.0405-.3843-.0517l-8.9477-.7676a.5548.5548,0,0,1-.357-.5181v-1.4941a.5876.5876,0,0,1,.2686-.4737,20.0191,20.0191,0,0,0,8.68-16.4936v-9.7471a20.0135,20.0135,0,0,0-40.0269,0v9.7471a20.02,20.02,0,0,0,8.68,16.4936.5868.5868,0,0,1,.269.4737V180.77a.5541.5541,0,0,1-.3569.5181l-8.9477.7676c-.129.0112-.2574.0283-.3843.0517a21.2077,21.2077,0,0,0-9.4263,4.3261v-58.64Z"/><rect height="8" width="65.2373" x="164.7324" y="205.354"/><rect height="8" width="40.6772" x="164.7324" y="221.2563"/><rect height="8" width="65.2373" x="164.7324" y="250.9263"/><rect height="8" width="65.2363" x="164.7324" y="267.8286"/><rect height="8" width="65.2373" x="268.5894" y="250.9263"/><rect height="8" width="65.2363" x="268.5894" y="267.8286"/><path d="M387.8457,303.0391a23.54,23.54,0,0,0-12.977-7.9V98.813a4,4,0,0,0-4-4H133.2832a4,4,0,0,0-4,4V232.3516H108.2661a22.2286,22.2286,0,0,0-22.2036,22.2036V412.8984c0,.0683.0167.1318.02.1992a3.9655,3.9655,0,0,0,3.98,4.0894H371.2378a4,4,0,0,0,3.9316-3.2646l17.3936-92.9888A21.7126,21.7126,0,0,0,387.8457,303.0391ZM366.8687,102.813V294.53H137.2832V102.813ZM108.2661,240.3516h21.0171V294.53h-1.4023c-11.4107,0-21.1485,7.7827-23.1538,18.5053L94.0625,370.0488V254.5552A14.22,14.22,0,0,1,108.2661,240.3516ZM384.7,319.4629,367.9165,409.187H94.88l17.71-94.6807c1.2984-6.9394,7.7285-11.976,15.2906-11.976H369.4092a15.8525,15.8525,0,0,1,12.2817,5.6191A13.557,13.557,0,0,1,384.7,319.4629Z"/><path d="M160.4976,170.1641h11.5083v11.5078a4,4,0,0,0,4,4h26.8618a4,4,0,0,0,4-4V170.1641H218.376a4,4,0,0,0,4-4V139.3018a4,4,0,0,0-4-4H206.8677V123.7935a4,4,0,0,0-4-4H176.0059a4,4,0,0,0-4,4v11.5083H160.4976a4,4,0,0,0-4,4v26.8623A4,4,0,0,0,160.4976,170.1641Zm4-26.8623h11.5083a4,4,0,0,0,4-4V127.7935h18.8618v11.5083a4,4,0,0,0,4,4H214.376v18.8623H202.8677a4,4,0,0,0-4,4v11.5078H180.0059V166.1641a4,4,0,0,0-4-4H164.4976Z"/></g></svg>