<svg xmlns="http://www.w3.org/2000/svg" viewBox="0 0 512 640" x="0px" y="0px"><path d="M64,372v68a56.06322,56.06322,0,0,0,56,56H256a56.06322,56.06322,0,0,0,56-56,80.1187,80.1187,0,0,0-49.21094-73.83008l59.03858-19.67969L344,464.74292V488a8.00008,8.00008,0,0,0,8,8h88a8.00008,8.00008,0,0,0,8-8,37.81934,37.81934,0,0,0-16.87549-31.53125L400,435.71875V312a40.04552,40.04552,0,0,0-40-40H264V186.24585l9.67993-2.41992,87.75122-15.95484a8.00868,8.00868,0,0,0,2.14649-.71582l32-16A7.99979,7.99979,0,0,0,400,144V128a8.00008,8.00008,0,0,0-8-8H224v-.30518a19.33039,19.33039,0,0,0,16-19.0083V57.86914A23.98659,23.98659,0,0,0,224,16H191.86426A31.90027,31.90027,0,0,0,160,47.86426V72a42.10456,42.10456,0,0,0,4.42236,18.7334L168,97.88867v19.68945L153.34375,139.5625A7.99836,7.99836,0,0,0,152,144V310.0835A35.78889,35.78889,0,0,0,132,304,68.07728,68.07728,0,0,0,64,372ZM430.4917,480H360V468.52979l31.77515-19.065,30.47436,20.31641A21.86222,21.86222,0,0,1,430.4917,480ZM384,312V435.4707l-26.25586,15.75293L335.86279,334.52539a8.00093,8.00093,0,0,0-10.39258-6.11523L230.70166,360H192a24.03467,24.03467,0,0,1-23.59595-19.64087L258.16248,288H360A24.02718,24.02718,0,0,1,384,312Zm0-172.94434L357.44434,152.333,280,166.41406V136H384ZM224,100.68652a3.31353,3.31353,0,0,1-5.65674,2.34278L205.65674,90.34277l-11.31348,11.31446,12.687,12.68652c.31079.31079.642.59277.96973.87939v3.01807l-24-4.7998V96a7.99934,7.99934,0,0,0-.84473-3.57812L180.94434,88H184a7.99943,7.99943,0,0,0,6.65625-3.5625L204.28125,64H224ZM176,47.86426A15.88194,15.88194,0,0,1,191.86426,32H224a8,8,0,0,1,0,16H200a7.99943,7.99943,0,0,0-6.65625,3.5625L179.71875,72H176Zm-8,98.55762,11.68433-17.52637,34.74682,6.94922A7.97578,7.97578,0,0,0,216,136h48v33.75391l-57.94043,14.48535,3.88086,15.52148L248,190.24585v85.15942l-80,46.666ZM132,320a20.0226,20.0226,0,0,1,20,20,36.04061,36.04061,0,0,0,36,36h44a64.07239,64.07239,0,0,1,64,64,40.04552,40.04552,0,0,1-40,40H120a40.04552,40.04552,0,0,1-40-40V372A52.059,52.059,0,0,1,132,320Z"/><text x="0" y="527" fill="#000000" font-size="5px" font-weight="bold" font-family="'Helvetica Neue', Helvetica, Arial-Unicode, Arial, Sans-serif">Created by ArmOkay</text><text x="0" y="532" fill="#000000" font-size="5px" font-weight="bold" font-family="'Helvetica Neue', Helvetica, Arial-Unicode, Arial, Sans-serif">from the Noun Project</text></svg>