<?xml version="1.0" encoding="utf-8"?>
<!-- Generator: Adobe Illustrator 16.0.0, SVG Export Plug-In . SVG Version: 6.00 Build 0)  -->
<!DOCTYPE svg PUBLIC "-//W3C//DTD SVG 1.1//EN" "http://www.w3.org/Graphics/SVG/1.1/DTD/svg11.dtd">
<svg version="1.1" id="Layer_1" xmlns="http://www.w3.org/2000/svg" xmlns:xlink="http://www.w3.org/1999/xlink" x="0px" y="0px"
	 width="841.889px" height="1190.551px" viewBox="0 0 841.889 1190.551" enable-background="new 0 0 841.889 1190.551"
	 xml:space="preserve">
<title>Film Role</title>
<path d="M799.795,751.025H581.661C725.614,634.44,747.8,423.233,631.215,279.28C514.63,135.328,303.424,113.141,159.471,229.726
	C15.519,346.311-6.668,557.518,109.917,701.47c63.654,78.597,159.375,124.273,260.514,124.314c8.419,0,16.838-0.506,25.257-1.095
	h404.107c4.649,0,8.419-3.77,8.419-8.419v-56.827C808.214,754.794,804.445,751.025,799.795,751.025z M395.183,807.852
	c-5.388,0-10.86,0.674-16.333,0.842c-2.778,0-5.557,0-8.419,0C193.745,808.667,50.535,665.413,50.563,488.726
	C50.59,312.041,193.844,168.831,370.53,168.858c176.687,0.027,319.896,143.281,319.869,319.968
	c-0.016,104.476-51.045,202.361-136.688,262.199c-4.125,2.946-8.419,5.725-12.544,8.419c-4.125,2.693-9.261,5.725-13.976,8.419
	C486.665,790.739,441.591,804.393,395.183,807.852z M791.376,807.852H478.362c28.589-9.638,55.746-23.089,80.737-39.989h232.277
	V807.852z"/>
<path d="M648.255,490.039c0-153.438-124.386-277.823-277.824-277.823c-153.438,0-277.823,124.386-277.823,277.823
	s124.386,277.824,277.823,277.824h8.419c20.063-0.599,39.998-3.423,59.438-8.419C561.733,728.351,648.252,617.34,648.255,490.039z
	 M370.431,751.025c-144.138,0-260.985-116.848-260.985-260.986s116.848-260.986,260.985-260.986
	c144.139,0,260.986,116.848,260.986,260.986S514.57,751.025,370.431,751.025L370.431,751.025z"/>
<path d="M370.431,419.657c41.475,0,75.097-33.622,75.097-75.097s-33.622-75.097-75.097-75.097s-75.096,33.622-75.096,75.097l0,0
	C295.381,386.015,328.976,419.611,370.431,419.657z M370.431,286.302c32.176,0,58.259,26.083,58.259,58.259
	s-26.083,58.259-58.259,58.259c-32.175,0-58.259-26.083-58.259-58.259l0,0C312.265,312.424,338.294,286.394,370.431,286.302z"/>
<path d="M370.431,560.421c-41.475,0-75.096,33.622-75.096,75.097s33.621,75.097,75.096,75.097s75.097-33.622,75.097-75.097l0,0
	C445.482,594.062,411.887,560.468,370.431,560.421z M370.431,693.776c-32.175,0-58.259-26.083-58.259-58.259
	s26.084-58.259,58.259-58.259c32.176,0,58.259,26.083,58.259,58.259l0,0C428.598,667.654,402.569,693.683,370.431,693.776z"/>
<path d="M515.909,414.942c-41.475,0-75.097,33.622-75.097,75.097s33.622,75.097,75.097,75.097s75.097-33.622,75.097-75.097l0,0
	C590.96,448.584,557.365,414.989,515.909,414.942z M515.909,548.298c-32.175,0-58.259-26.083-58.259-58.259
	s26.084-58.259,58.259-58.259c32.176,0,58.259,26.083,58.259,58.259l0,0C574.122,522.195,548.066,548.252,515.909,548.298
	L515.909,548.298z"/>
<path d="M224.953,414.942c-41.476,0-75.097,33.622-75.097,75.097s33.621,75.097,75.097,75.097c41.475,0,75.096-33.622,75.096-75.097
	l0,0C300.003,448.584,266.408,414.989,224.953,414.942z M224.953,548.298c-32.176,0-58.259-26.083-58.259-58.259
	s26.083-58.259,58.259-58.259c32.175,0,58.258,26.083,58.258,58.259C283.119,522.176,257.09,548.205,224.953,548.298
	L224.953,548.298z"/>
<path d="M330.442,490.039c0,22.086,17.904,39.99,39.989,39.99c22.086,0,39.99-17.904,39.99-39.99s-17.904-39.989-39.99-39.989l0,0
	C348.346,450.05,330.442,467.953,330.442,490.039z M393.583,490.039c0,12.787-10.365,23.152-23.152,23.152
	c-12.786,0-23.151-10.365-23.151-23.152c0-12.786,10.365-23.152,23.151-23.152C383.218,466.886,393.583,477.253,393.583,490.039
	L393.583,490.039z"/>
</svg>
