<?xml version="1.0" encoding="utf-8"?>
<!-- Generator: Adobe Illustrator 16.0.0, SVG Export Plug-In . SVG Version: 6.00 Build 0)  -->
<!DOCTYPE svg PUBLIC "-//W3C//DTD SVG 1.1//EN" "http://www.w3.org/Graphics/SVG/1.1/DTD/svg11.dtd">
<svg version="1.1" id="Layer_1" xmlns="http://www.w3.org/2000/svg" xmlns:xlink="http://www.w3.org/1999/xlink" x="0px" y="0px"
	 width="841.889px" height="1190.551px" viewBox="0 0 841.889 1190.551" enable-background="new 0 0 841.889 1190.551"
	 xml:space="preserve">
<g>
	<g>
		<g>
			<path d="M328.863,832.056H13.155C5.88,832.056,0,826.177,0,818.902s5.88-13.154,13.154-13.154h315.708
				c7.274,0,13.155,5.88,13.155,13.154S336.137,832.056,328.863,832.056z"/>
		</g>
		<g>
			<path d="M328.863,884.675H13.155C5.88,884.675,0,878.795,0,871.52s5.88-13.154,13.154-13.154h315.708
				c7.274,0,13.155,5.88,13.155,13.154S336.137,884.675,328.863,884.675z"/>
		</g>
		<g>
			<path d="M828.735,832.056H513.027c-7.274,0-13.155-5.88-13.155-13.154s5.881-13.154,13.155-13.154h315.708
				c7.274,0,13.154,5.88,13.154,13.154S836.009,832.056,828.735,832.056z"/>
		</g>
		<g>
			<path d="M828.735,884.675H513.027c-7.274,0-13.155-5.88-13.155-13.154s5.881-13.154,13.155-13.154h315.708
				c7.274,0,13.154,5.88,13.154,13.154S836.009,884.675,828.735,884.675z"/>
		</g>
		<g>
			<g>
				<path d="M328.863,897.829c-7.274,0-13.154-5.88-13.154-13.154v-78.927c0-7.274,5.88-13.154,13.154-13.154
					s13.155,5.88,13.155,13.154v78.927C342.018,891.949,336.137,897.829,328.863,897.829z"/>
			</g>
			<g>
				<path d="M513.027,897.829c-7.274,0-13.155-5.88-13.155-13.154v-78.927c0-7.274,5.881-13.154,13.155-13.154
					s13.154,5.88,13.154,13.154v78.927C526.181,891.949,520.301,897.829,513.027,897.829z"/>
			</g>
			<g>
				<path d="M513.027,897.829H328.863c-7.274,0-13.154-5.88-13.154-13.154s5.88-13.154,13.154-13.154h184.164
					c7.274,0,13.154,5.88,13.154,13.154S520.301,897.829,513.027,897.829z"/>
			</g>
			<g>
				<path d="M513.027,818.902h-52.618c-7.274,0-13.154-5.88-13.154-13.154s5.88-13.154,13.154-13.154h52.618
					c7.274,0,13.154,5.88,13.154,13.154S520.301,818.902,513.027,818.902z"/>
			</g>
			<g>
				<path d="M381.481,818.902h-52.618c-7.274,0-13.154-5.88-13.154-13.154s5.88-13.154,13.154-13.154h52.618
					c7.274,0,13.155,5.88,13.155,13.154S388.755,818.902,381.481,818.902z"/>
			</g>
			<g>
				<path d="M381.481,818.902c-7.274,0-13.154-5.88-13.154-13.154V753.13c0-7.274,5.88-13.154,13.154-13.154
					s13.155,5.88,13.155,13.154v52.618C394.636,813.022,388.755,818.902,381.481,818.902z"/>
			</g>
			<g>
				<path d="M460.408,818.902c-7.274,0-13.154-5.88-13.154-13.154V753.13c0-7.274,5.88-13.154,13.154-13.154
					s13.154,5.88,13.154,13.154v52.618C473.563,813.022,467.683,818.902,460.408,818.902z"/>
			</g>
			<g>
				<path d="M460.408,766.284h-78.928c-7.274,0-13.154-5.88-13.154-13.154s5.88-13.154,13.154-13.154h78.928
					c7.274,0,13.154,5.88,13.154,13.154S467.683,766.284,460.408,766.284z"/>
			</g>
			<g>
				<path d="M394.636,766.284c-7.274,0-13.155-5.88-13.155-13.154v-78.928c0-7.274,5.881-13.154,13.155-13.154
					s13.154,5.88,13.154,13.154v78.928C407.79,760.404,401.91,766.284,394.636,766.284z"/>
			</g>
			<g>
				<path d="M447.254,766.284c-7.275,0-13.155-5.88-13.155-13.154v-78.928c0-7.274,5.88-13.154,13.155-13.154
					c7.273,0,13.154,5.88,13.154,13.154v78.928C460.408,760.404,454.528,766.284,447.254,766.284z"/>
			</g>
		</g>
		<g>
			<path d="M749.808,687.357H92.081c-6.708,0-12.339-5.038-13.075-11.708L26.388,202.086c-0.408-3.709,0.789-7.432,3.275-10.221
				s6.064-4.38,9.8-4.38h762.963c3.735,0,7.313,1.591,9.8,4.38s3.684,6.512,3.275,10.221l-52.618,473.563
				C762.147,682.319,756.517,687.357,749.808,687.357z M103.868,661.048h634.166l49.698-447.254H54.157L103.868,661.048z"/>
		</g>
		<g>
			<path d="M92.081,213.794c-7.274,0-13.154-5.88-13.154-13.154V95.403c0-7.274,5.88-13.154,13.154-13.154
				s13.155,5.88,13.155,13.154v105.236C105.237,207.914,99.356,213.794,92.081,213.794z"/>
		</g>
		<g>
			<path d="M249.936,108.557H92.081c-7.274,0-13.154-5.88-13.154-13.154s5.88-13.154,13.154-13.154h157.854
				c7.274,0,13.154,5.88,13.154,13.154S257.21,108.557,249.936,108.557z"/>
		</g>
		<g>
			<path d="M289.4,148.021c-3.367,0-6.735-1.289-9.301-3.854l-39.463-39.464c-5.144-5.144-5.144-13.457,0-18.601
				c5.144-5.143,13.457-5.143,18.601,0l39.463,39.464c5.144,5.144,5.144,13.457,0,18.601
				C296.135,146.732,292.767,148.021,289.4,148.021z"/>
		</g>
		<g>
			<path d="M749.808,148.021H289.4c-7.274,0-13.154-5.88-13.154-13.154s5.88-13.155,13.154-13.155h460.408
				c7.274,0,13.154,5.881,13.154,13.155S757.082,148.021,749.808,148.021z"/>
		</g>
		<g>
			<path d="M749.808,213.794c-7.274,0-13.154-5.88-13.154-13.154v-65.772c0-7.274,5.88-13.155,13.154-13.155
				s13.154,5.881,13.154,13.155v65.772C762.962,207.914,757.082,213.794,749.808,213.794z"/>
		</g>
		<g>
			<path d="M591.953,411.112H249.936c-7.274,0-13.154-5.88-13.154-13.155c0-7.274,5.88-13.154,13.154-13.154h342.018
				c7.274,0,13.154,5.88,13.154,13.154C605.108,405.232,599.228,411.112,591.953,411.112z"/>
		</g>
		<g>
			<path d="M591.953,463.73H249.936c-7.274,0-13.154-5.881-13.154-13.155s5.88-13.154,13.154-13.154h342.018
				c7.274,0,13.154,5.88,13.154,13.154S599.228,463.73,591.953,463.73z"/>
		</g>
		<g>
			<path d="M499.871,516.348H342.018c-7.274,0-13.155-5.881-13.155-13.155s5.881-13.154,13.155-13.154h157.854
				c7.275,0,13.155,5.88,13.155,13.154S507.147,516.348,499.871,516.348z"/>
		</g>
	</g>
</g>
</svg>
