<?xml version="1.0" encoding="iso-8859-1"?>
<!-- Generator: Adobe Illustrator 19.0.0, SVG Export Plug-In . SVG Version: 6.00 Build 0)  -->
<svg version="1.1" id="Layer_1" xmlns="http://www.w3.org/2000/svg" xmlns:xlink="http://www.w3.org/1999/xlink" x="0px" y="0px"
	 viewBox="0 0 512 512" style="enable-background:new 0 0 512 512;" xml:space="preserve">
<g>
	<g>
		<path d="M466.015,213.508c-5.43-27.386-16.01-52.973-31.521-76.226l33.271-33.379l-59.522-59.588L374.484,77.56
			c-23.038-15.322-49.252-26.137-76.517-31.571V0.525h-83.934v45.464c-26.996,5.378-52.396,15.95-75.68,31.5L105.23,44.204
			l-59.493,59.588l33.307,33.485c-15.486,23.22-26.053,48.806-31.486,76.231H0v83.934h47.56
			c5.403,27.192,15.98,52.684,31.511,75.953l-33.277,33.252l59.61,59.596l32.962-33.289c23.275,15.539,48.674,26.108,75.667,31.486
			v47.036h83.934v-47.037c27.281-5.435,53.485-16.237,76.495-31.53l33.511,33.268l59.692-59.546l-33.222-33.232
			c15.574-23.323,26.171-48.819,31.57-75.957H512v-83.933H466.015z M496.262,281.704h-43.478l-1.094,6.578
			c-4.893,29.391-16.284,56.806-33.856,81.481l-3.861,5.421l31.423,31.432l-37.449,37.357l-31.731-31.501l-5.402,3.846
			c-24.153,17.198-52.51,28.885-82.007,33.797l-6.576,1.094v44.526H229.77v-44.526l-6.576-1.095
			c-29.244-4.87-56.571-16.239-81.22-33.791l-5.448-3.88l-31.176,31.488L68.057,406.65l31.487-31.462l-3.862-5.424
			c-17.52-24.604-28.891-52.018-33.797-81.481l-1.094-6.577H15.738v-52.459h45.051l1.094-6.577
			c4.952-29.738,16.31-57.24,33.758-81.744l3.851-5.407l-31.536-31.705l37.255-37.314l31.327,31.479l5.435-3.869
			c24.658-17.557,51.985-28.928,81.22-33.796l6.577-1.096V16.262h52.459v42.952l6.577,1.095
			c29.463,4.906,57.82,16.601,82.006,33.822l5.38,3.831l31.959-31.472l37.382,37.423l-31.495,31.597l3.855,5.413
			c17.482,24.551,28.852,52.054,33.796,81.744l1.095,6.577h43.477V281.704z"/>
	</g>
</g>
<g>
	<g>
		<path d="M256.787,101.738c-84.627,0-153.475,68.848-153.475,153.475s68.848,153.475,153.475,153.475
			s153.475-68.848,153.475-153.475S341.414,101.738,256.787,101.738z M256.787,392.951c-75.949,0-137.737-61.789-137.737-137.737
			s61.789-137.737,137.737-137.737s137.737,61.788,137.737,137.737S332.736,392.951,256.787,392.951z"/>
	</g>
</g>
<g>
	<g>
		<path d="M256.787,127.433c-70.458,0-127.781,57.322-127.781,127.78s57.322,127.78,127.781,127.78s127.78-57.322,127.78-127.78
			S327.245,127.433,256.787,127.433z M256.787,367.255c-61.78,0-112.043-50.262-112.043-112.042s50.262-112.042,112.043-112.042
			c61.78,0,112.042,50.262,112.042,112.042S318.567,367.255,256.787,367.255z"/>
	</g>
</g>
<g>
	<g>
		<path d="M340.984,273.311v-59.803h-50.361v59.803h-9.443v-102.82H230.82v102.82h-9.443v-59.803h-50.361v59.803h-8.393v15.738
			h188.852v-15.738H340.984z M205.639,273.311h-18.885v-44.066h18.885V273.311z M265.443,273.311h-18.885v-87.082h18.885V273.311z
			 M325.246,273.311h-18.885v-44.066h18.885V273.311z"/>
	</g>
</g>
<g>
	<g>
		<rect x="214.033" y="307.934" width="16.787" height="15.738"/>
	</g>
</g>
<g>
	<g>
		<rect x="247.607" y="307.934" width="17.836" height="15.738"/>
	</g>
</g>
<g>
	<g>
		<rect x="282.229" y="307.934" width="16.787" height="15.738"/>
	</g>
</g>
<g>
</g>
<g>
</g>
<g>
</g>
<g>
</g>
<g>
</g>
<g>
</g>
<g>
</g>
<g>
</g>
<g>
</g>
<g>
</g>
<g>
</g>
<g>
</g>
<g>
</g>
<g>
</g>
<g>
</g>
</svg>
