<?xml version="1.0" encoding="utf-8"?>
<!-- Generator: Adobe Illustrator 16.0.0, SVG Export Plug-In . SVG Version: 6.00 Build 0)  -->
<!DOCTYPE svg PUBLIC "-//W3C//DTD SVG 1.1//EN" "http://www.w3.org/Graphics/SVG/1.1/DTD/svg11.dtd">
<svg version="1.1" id="Layer_1" xmlns="http://www.w3.org/2000/svg" xmlns:xlink="http://www.w3.org/1999/xlink" x="0px" y="0px"
	 width="841.889px" height="1190.551px" viewBox="0 0 841.889 1190.551" enable-background="new 0 0 841.889 1190.551"
	 xml:space="preserve">
<title>Telehealth-Telemedicine</title>
<path d="M747.177,163.806H94.712c-34.854,0.041-63.101,28.286-63.142,63.142V668.94c0.041,34.855,28.287,63.102,63.142,63.142
	h225.605l-10.523,42.095h-57.228c-11.624,0-21.047,9.423-21.047,21.048c0,11.624,9.423,21.047,21.047,21.047h336.756
	c11.624,0,21.047-9.423,21.047-21.047c0-11.625-9.423-21.048-21.047-21.048h-57.228l-10.523-42.095h78.274
	c11.624,0,21.048-9.423,21.048-21.047s-9.424-21.047-21.048-21.047H94.712c-11.624,0-21.047-9.424-21.047-21.048V226.948
	c0-11.624,9.423-21.047,21.047-21.047h652.465c11.624,0,21.047,9.423,21.047,21.047V668.94c0,11.624-9.423,21.048-21.047,21.048
	h-21.048c-11.624,0-21.047,9.423-21.047,21.047s9.423,21.047,21.047,21.047h21.048c34.855-0.04,63.101-28.286,63.142-63.142V226.948
	C810.278,192.093,782.032,163.847,747.177,163.806z M488.696,774.177H353.194l10.523-42.095h114.455L488.696,774.177z"/>
<circle cx="662.988" cy="711.035" r="21.047"/>
<path d="M626.156,458.469H494.61c-6.148,0.002-11.988,2.693-15.985,7.366l-35.485,41.41l-38.442-179.47
	c-2.433-11.367-13.618-18.61-24.985-16.179c-7.369,1.576-13.333,6.973-15.637,14.147l-42.662,132.725H215.735
	c-11.624,0-21.048,9.423-21.048,21.047s9.424,21.047,21.048,21.047h121.021c9.127-0.019,17.201-5.917,19.994-14.606l23.247-72.329
	l30.845,143.963c2.429,11.368,13.612,18.614,24.98,16.186c4.514-0.964,8.586-3.387,11.589-6.893l56.827-66.299h121.917
	c11.624,0,21.047-9.424,21.047-21.048s-9.423-21.047-21.047-21.047V458.469z"/>
<path d="M513.153,528.471l-71.971,78.927c-10.941,11.177-28.871,11.368-40.047,0.427c-0.145-0.141-0.286-0.283-0.428-0.427
	l-71.949-78.927c-7.847-8.588-21.169-9.188-29.756-1.342c-8.587,7.846-9.188,21.168-1.342,29.755l0,0l71.95,78.928
	c25.839,28.351,69.769,30.388,98.12,4.548c1.585-1.444,3.104-2.962,4.548-4.548l71.972-78.928
	c7.846-8.587,7.245-21.909-1.342-29.755C534.321,519.283,520.999,519.884,513.153,528.471L513.153,528.471z"/>
<path d="M612.612,436.852c1.589,0.381,3.217,0.571,4.852,0.568c9.753-0.013,18.219-6.724,20.457-16.217
	c19.056-80.218-30.527-160.693-110.744-179.748c-7.088-1.684-14.29-2.847-21.548-3.479c-29.438-2.5-58.948,3.925-84.684,18.438
	c-35.34-19.659-77.12-24.213-115.865-12.629c-48.691,14.695-86.386,53.427-99.753,102.5c-6.639,24.459-7.105,50.183-1.357,74.865
	c2.788,11.285,14.197,18.172,25.481,15.383c11.114-2.746,17.995-13.873,15.486-25.043c-4.131-17.894-3.769-36.53,1.053-54.25
	c15.736-56.553,74.338-89.642,130.891-73.905c9.408,2.617,18.41,6.52,26.753,11.595c10.641,6.516,24.035,6.516,34.676,0
	c19.17-11.673,41.556-16.946,63.92-15.059c51.027,4.762,91.638,44.81,97.112,95.765c1.19,11.976,0.394,24.065-2.357,35.78
	c-2.733,11.298,4.209,22.673,15.507,25.407C612.531,436.834,612.571,436.844,612.612,436.852z"/>
</svg>
