<?xml version="1.0" encoding="utf-8"?>
<!-- Generator: Adobe Illustrator 16.0.0, SVG Export Plug-In . SVG Version: 6.00 Build 0)  -->
<!DOCTYPE svg PUBLIC "-//W3C//DTD SVG 1.1//EN" "http://www.w3.org/Graphics/SVG/1.1/DTD/svg11.dtd">
<svg version="1.1" id="Layer_1" xmlns="http://www.w3.org/2000/svg" xmlns:xlink="http://www.w3.org/1999/xlink" x="0px" y="0px"
	 width="841.889px" height="1190.551px" viewBox="0 0 841.889 1190.551" enable-background="new 0 0 841.889 1190.551"
	 xml:space="preserve">
<title>006-icon-design</title>
<path d="M447.254,805.748H249.936c-7.893,0-13.154,5.262-13.154,13.154s5.262,13.154,13.154,13.154h197.318
	c7.893,0,13.154-5.262,13.154-13.154S455.147,805.748,447.254,805.748z"/>
<path d="M815.58,153.283c0-46.041-38.148-84.189-84.189-84.189H110.498c-46.041,0-84.189,38.148-84.189,84.189v673.512
	c0,46.041,38.148,84.189,84.189,84.189h620.893c46.041,0,84.189-38.148,84.189-84.189V153.283z M789.272,826.795
	c0,31.571-26.31,57.88-57.881,57.88H110.498c-31.571,0-57.88-26.309-57.88-57.88V153.283c0-31.571,26.309-57.88,57.88-57.88h620.893
	c31.571,0,57.881,26.309,57.881,57.88V826.795z"/>
<path d="M697.19,174.33h-552.49c-7.893,0-13.154,5.262-13.154,13.155v552.49c0,7.893,5.262,13.154,13.154,13.154h552.49
	c7.893,0,13.154-5.262,13.154-13.154v-552.49C710.344,179.592,705.082,174.33,697.19,174.33z M684.035,726.82H157.855V200.639
	h526.181V726.82z"/>
<rect x="684.035" y="805.748" width="26.309" height="26.309"/>
<rect x="684.035" y="121.712" width="26.309" height="26.31"/>
<rect x="631.417" y="121.712" width="26.309" height="26.31"/>
<rect x="184.163" y="542.657" width="26.309" height="26.31"/>
<rect x="631.417" y="542.657" width="26.309" height="26.31"/>
<rect x="631.417" y="805.748" width="26.309" height="26.309"/>
<rect x="578.799" y="805.748" width="26.309" height="26.309"/>
<path d="M171.009,779.438c-22.363,0-39.464,17.102-39.464,39.464s17.101,39.464,39.464,39.464c22.362,0,39.463-17.102,39.463-39.464
	S193.371,779.438,171.009,779.438z M171.009,832.056c-7.893,0-13.154-5.262-13.154-13.154s5.262-13.154,13.154-13.154
	s13.154,5.262,13.154,13.154S178.902,832.056,171.009,832.056z"/>
<path d="M249.936,568.967h78.927c6.577,0,11.84-3.947,13.155-10.524l23.678-96.027l28.94,174.955
	c1.315,6.577,6.577,10.523,11.839,10.523h1.315c6.577,0,11.839-3.946,13.154-9.208l28.94-94.713l26.309,68.403
	c1.315,5.262,6.577,7.893,11.839,9.208c5.262,0,10.523-2.631,13.155-6.577l22.362-46.04h71.034c7.893,0,13.154-5.263,13.154-13.155
	s-5.262-13.154-13.154-13.154h-78.927c-5.262,0-9.208,2.631-11.839,6.577l-14.471,27.625l-28.939-77.612
	c-2.631-5.262-7.893-9.208-13.154-9.208c-5.263,0-10.524,3.946-11.84,9.208l-23.678,77.612l-30.256-181.533
	c-1.315-6.577-6.577-10.523-13.154-10.523s-11.839,3.946-13.154,10.523l-36.833,147.331h-68.403
	c-7.893,0-13.154,5.262-13.154,13.154S242.043,568.967,249.936,568.967z"/>
<rect x="394.636" y="226.948" width="26.309" height="26.31"/>
<rect x="342.018" y="226.948" width="26.309" height="26.31"/>
<rect x="631.417" y="674.202" width="26.309" height="26.31"/>
<rect x="631.417" y="226.948" width="26.309" height="26.31"/>
<rect x="578.799" y="226.948" width="26.309" height="26.31"/>
<rect x="289.4" y="226.948" width="26.309" height="26.31"/>
<rect x="236.781" y="226.948" width="26.309" height="26.31"/>
<rect x="184.163" y="226.948" width="26.309" height="26.31"/>
<rect x="342.018" y="279.566" width="26.309" height="26.31"/>
<rect x="289.4" y="279.566" width="26.309" height="26.31"/>
<rect x="236.781" y="279.566" width="26.309" height="26.31"/>
<rect x="184.163" y="279.566" width="26.309" height="26.31"/>
</svg>
