<?xml version="1.0" encoding="iso-8859-1"?>
<!-- Generator: Adobe Illustrator 17.1.0, SVG Export Plug-In . SVG Version: 6.00 Build 0)  -->
<!DOCTYPE svg PUBLIC "-//W3C//DTD SVG 1.1//EN" "http://www.w3.org/Graphics/SVG/1.1/DTD/svg11.dtd">
<svg version="1.1" id="Capa_1" xmlns="http://www.w3.org/2000/svg" xmlns:xlink="http://www.w3.org/1999/xlink" x="0px" y="0px"
	 viewBox="0 0 511 511" style="enable-background:new 0 0 511 511;" xml:space="preserve" fill="#fff">
<g>
	<path d="M503.5,424H495V183.5c0-17.369-14.131-31.5-31.5-31.5H343v-0.5c0-12.958-10.542-23.5-23.5-23.5H287V95.5
		c0-12.958-10.542-23.5-23.5-23.5h-16C234.542,72,224,82.542,224,95.5V128h-32.5c-12.958,0-23.5,10.542-23.5,23.5v0.5H47.5
		C30.131,152,16,166.131,16,183.5V424H7.5c-4.142,0-7.5,3.358-7.5,7.5s3.358,7.5,7.5,7.5h496c4.142,0,7.5-3.358,7.5-7.5
		S507.642,424,503.5,424z M463.5,167c9.098,0,16.5,7.402,16.5,16.5V208H287v-17h32.5c12.958,0,23.5-10.542,23.5-23.5V167H463.5z
		 M191.5,143h40c4.142,0,7.5-3.358,7.5-7.5v-40c0-4.687,3.813-8.5,8.5-8.5h16c4.687,0,8.5,3.813,8.5,8.5v40
		c0,4.142,3.358,7.5,7.5,7.5h40c4.687,0,8.5,3.813,8.5,8.5v7.981c0,0.007-0.001,0.013-0.001,0.019s0.001,0.013,0.001,0.019v7.981
		c0,4.687-3.813,8.5-8.5,8.5h-40c-4.142,0-7.5,3.358-7.5,7.5v40c0,4.687-3.813,8.5-8.5,8.5h-16c-4.687,0-8.5-3.813-8.5-8.5v-40
		c0-4.142-3.358-7.5-7.5-7.5h-40c-4.687,0-8.5-3.813-8.5-8.5v-7.981c0-0.007,0.001-0.013,0.001-0.019S183,159.487,183,159.481V151.5
		C183,146.813,186.813,143,191.5,143z M47.5,167H168v0.5c0,12.958,10.542,23.5,23.5,23.5H224v17H31v-24.5
		C31,174.402,38.402,167,47.5,167z M31,223h193v0.5c0,12.958,10.542,23.5,23.5,23.5h16c12.958,0,23.5-10.542,23.5-23.5V223h193v201
		H239V279.5c0-8.547-6.953-15.5-15.5-15.5h-152c-8.547,0-15.5,6.953-15.5,15.5V424H31V223z M224,360H71v-17h153V360z M224,328H71
		v-17h153V328z M71,375h153v17H71V375z M224,296H71v-16.5c0-0.276,0.224-0.5,0.5-0.5h152c0.276,0,0.5,0.224,0.5,0.5V296z M71,407
		h153v17H71V407z"/>
	<path d="M264.5,399h78c4.687,0,8.5-3.813,8.5-8.5v-118c0-4.687-3.813-8.5-8.5-8.5h-78c-4.687,0-8.5,3.813-8.5,8.5v118
		C256,395.187,259.813,399,264.5,399z M271,384v-73h65v73H271z M336,279v17h-65v-17H336z"/>
	<path d="M376.5,399h78c4.687,0,8.5-3.813,8.5-8.5v-118c0-4.687-3.813-8.5-8.5-8.5h-78c-4.687,0-8.5,3.813-8.5,8.5v118
		C368,395.187,371.813,399,376.5,399z M383,384v-73h65v73H383z M448,279v17h-65v-17H448z"/>
</g>
<g>
</g>
<g>
</g>
<g>
</g>
<g>
</g>
<g>
</g>
<g>
</g>
<g>
</g>
<g>
</g>
<g>
</g>
<g>
</g>
<g>
</g>
<g>
</g>
<g>
</g>
<g>
</g>
<g>
</g>
</svg>
