<?xml version="1.0" encoding="utf-8"?>
<!-- Generator: Adobe Illustrator 16.0.0, SVG Export Plug-In . SVG Version: 6.00 Build 0)  -->
<!DOCTYPE svg PUBLIC "-//W3C//DTD SVG 1.1//EN" "http://www.w3.org/Graphics/SVG/1.1/DTD/svg11.dtd">
<svg version="1.1" id="Layer_1" xmlns="http://www.w3.org/2000/svg" xmlns:xlink="http://www.w3.org/1999/xlink" x="0px" y="0px"
	 width="841.889px" height="1190.551px" viewBox="0 0 841.889 1190.551" enable-background="new 0 0 841.889 1190.551"
	 xml:space="preserve">
<path fill="none" stroke="#fff" stroke-width="2" stroke-linecap="round" stroke-linejoin="round" stroke-miterlimit="10" d="
	M715.606,700.519c0,46.305-37.901,84.181-84.205,84.181H210.472c-46.304,0-84.188-37.876-84.188-84.181V279.566
	c0-46.304,37.885-84.188,84.188-84.188h420.937c46.296,0,84.197,37.885,84.197,84.188V700.519z"/>
<path fill="none" stroke="#fff" stroke-width="2" stroke-linecap="round" stroke-linejoin="round" stroke-miterlimit="10" d="
	M480.466,549.569l148.829,148.82L480.466,549.569z"/>
<polygon fill="none" stroke="#fff" stroke-width="2" stroke-linecap="round" stroke-linejoin="round" stroke-miterlimit="10" points="
	543.608,549.594 480.466,549.569 480.466,612.711 480.466,549.569 "/>
<polygon fill="none" stroke="#fff" stroke-width="2" stroke-linecap="round" stroke-linejoin="round" stroke-miterlimit="10" points="
	298.24,430.484 361.381,430.517 361.381,367.376 361.381,430.517 "/>
<path fill="none" stroke="#fff" stroke-width="2" stroke-linecap="round" stroke-linejoin="round" stroke-miterlimit="10" d="
	M361.381,430.517L212.569,281.696L361.381,430.517z"/>
<path fill="none" stroke="#fff" stroke-width="2" stroke-linecap="round" stroke-linejoin="round" stroke-miterlimit="10" d="
	M480.466,430.501l148.829-148.821L480.466,430.501z"/>
<polygon fill="none" stroke="#fff" stroke-width="2" stroke-linecap="round" stroke-linejoin="round" stroke-miterlimit="10" points="
	480.5,367.376 480.466,430.501 543.608,430.517 480.466,430.501 "/>
<polygon fill="none" stroke="#fff" stroke-width="2" stroke-linecap="round" stroke-linejoin="round" stroke-miterlimit="10" points="
	361.381,612.719 361.414,549.586 298.273,549.586 361.414,549.586 "/>
<path fill="none" stroke="#fff" stroke-width="2" stroke-linecap="round" stroke-linejoin="round" stroke-miterlimit="10" d="
	M361.414,549.586l-148.82,148.813L361.414,549.586z"/>
</svg>
