<?xml version="1.0" encoding="utf-8"?>
<!-- Generator: Adobe Illustrator 16.0.0, SVG Export Plug-In . SVG Version: 6.00 Build 0)  -->
<!DOCTYPE svg PUBLIC "-//W3C//DTD SVG 1.1//EN" "http://www.w3.org/Graphics/SVG/1.1/DTD/svg11.dtd">
<svg version="1.1" id="Capa_1" xmlns="http://www.w3.org/2000/svg" xmlns:xlink="http://www.w3.org/1999/xlink" x="0px" y="0px"
	 width="841.889px" height="1190.551px" viewBox="0 0 841.889 1190.551" enable-background="new 0 0 841.889 1190.551"
	 xml:space="preserve" fill="#fff">
<g>
	<g>
		<g>
			<path d="M797.947,517.023c-0.207-0.294-0.426-0.576-0.65-0.845l-104.67-138.428c-3.586-4.501-8.838-5.926-13.507-3.661
				c-4.538,2.317-7.763,7.635-8.441,13.916v65.918H540.686c-5.904-0.012-10.699,6.21-10.708,13.896c0,0.251,0.006,0.502,0.016,0.751
				v117.186c-0.312,7.677,4.218,14.229,10.116,14.628c0.191,0.015,0.384,0.021,0.576,0.021h129.992v65.921
				c0.679,6.278,3.903,11.597,8.441,13.912h5.065c3.138-0.017,6.158-1.588,8.441-4.392l104.67-139.16
				C801.645,531.49,801.939,522.686,797.947,517.023z M693.188,630.433v-44.677c0-8.057-2.249-14.648-8.439-14.648H552.501v-87.889
				h132.247c6.19,0,8.439-6.592,8.439-14.649v-44.677l77.661,103.271L693.188,630.433z"/>
		</g>
	</g>
</g>
<g>
	<g>
		<path d="M481.76,611.307c9.681,0,17.525-7.847,17.525-17.525V443.066c0-38.654-31.446-70.101-70.101-70.101H267.952
			c-38.632,0-70.065,31.411-70.102,70.037c-38.653,0-70.101,31.447-70.101,70.101v238.343c0,38.654,31.447,70.102,70.101,70.102
			h169.995c38.653,0,70.101-31.447,70.101-70.102v-0.531c34.532-4.328,61.339-33.874,61.339-69.557
			c0-9.679-7.847-17.525-17.525-17.525c-9.678,0-17.524,7.847-17.524,17.525c0,19.322-15.721,35.047-35.043,35.052l-161.232,0.038
			h-0.008c-9.361,0-18.162-3.644-24.781-10.264c-6.622-6.619-10.27-15.424-10.27-24.787V443.066c0-19.327,15.724-35.05,35.051-35.05
			h161.232c19.327,0,35.052,15.723,35.052,35.05v150.717C464.236,603.461,472.082,611.307,481.76,611.307z M267.952,751.496h0.018
			l134.926-0.033c-0.011,19.318-15.729,35.033-35.051,35.033H197.852c-19.326,0-35.051-15.725-35.051-35.052V513.101
			c0-19.327,15.725-35.051,35.051-35.051v203.347c0,18.727,7.294,36.334,20.538,49.574
			C231.631,744.209,249.229,751.496,267.952,751.496z"/>
	</g>
</g>
<g>
	<g>
		<path d="M411.074,484.439H301.795c-8.508,0-15.404,6.896-15.404,15.404c0,8.508,6.896,15.404,15.404,15.404h109.279
			c8.509,0,15.404-6.896,15.404-15.404C426.479,491.336,419.582,484.439,411.074,484.439z"/>
	</g>
</g>
<g>
	<g>
		<path d="M411.074,546.052H301.795c-8.508,0-15.404,6.896-15.404,15.405c0,8.508,6.896,15.404,15.404,15.404h109.279
			c8.508,0,15.404-6.896,15.404-15.404C426.479,552.949,419.583,546.052,411.074,546.052z"/>
	</g>
</g>
<g>
	<g>
		<path d="M348.776,607.668h-46.98c-8.508,0-15.404,6.897-15.404,15.405c0,8.507,6.896,15.402,15.404,15.402h46.98
			c8.508,0,15.404-6.896,15.404-15.402C364.18,614.565,357.283,607.668,348.776,607.668z"/>
	</g>
</g>
</svg>
