<?xml version="1.0" encoding="iso-8859-1"?>
<!-- Generator: Adobe Illustrator 17.1.0, SVG Export Plug-In . SVG Version: 6.00 Build 0)  -->
<!DOCTYPE svg PUBLIC "-//W3C//DTD SVG 1.1//EN" "http://www.w3.org/Graphics/SVG/1.1/DTD/svg11.dtd">
<svg version="1.1" id="Capa_1" xmlns="http://www.w3.org/2000/svg" xmlns:xlink="http://www.w3.org/1999/xlink" x="0px" y="0px"
	 viewBox="0 0 511 511" style="enable-background:new 0 0 511 511;" xml:space="preserve" fill="#fff">
<g>
	<path d="M415.501,16h-16.5v-0.5c0-8.547-6.953-15.5-15.5-15.5h-32c-8.547,0-15.5,6.953-15.5,15.5V16H95.499
		c-21.78,0-39.5,17.72-39.5,39.5v416c0,21.78,17.72,39.5,39.5,39.5h320.003c21.78,0,39.5-17.72,39.5-39.5v-416
		C455.001,33.72,437.282,16,415.501,16z M351.001,15.5c0-0.275,0.224-0.5,0.5-0.5h32c0.276,0,0.5,0.225,0.5,0.5v7.923
		c0,0.026-0.004,0.051-0.004,0.077s0.004,0.051,0.004,0.077v85.517l-14.128-4.709c-0.77-0.257-1.571-0.385-2.372-0.385
		s-1.602,0.128-2.372,0.385l-14.128,4.709V15.5z M440.001,471.5c0,13.509-10.991,24.5-24.5,24.5H95.499
		c-13.509,0-24.5-10.991-24.5-24.5v-416c0-13.509,10.991-24.5,24.5-24.5h240.503v88.5c0,2.411,1.159,4.675,3.115,6.084
		c1.956,1.41,4.47,1.793,6.757,1.031l21.628-7.209l21.628,7.209c0.774,0.258,1.575,0.385,2.371,0.385
		c1.555,0,3.092-0.483,4.386-1.416c1.956-1.409,3.115-3.673,3.115-6.084V31h16.5c13.509,0,24.5,10.991,24.5,24.5V471.5z"/>
	<path d="M95.499,96c-4.142,0-7.5,3.358-7.5,7.5v368c0,4.142,3.358,7.5,7.5,7.5s7.5-3.358,7.5-7.5v-368
		C102.999,99.358,99.641,96,95.499,96z"/>
	<path d="M95.499,48c-4.142,0-7.5,3.358-7.5,7.5v16c0,4.142,3.358,7.5,7.5,7.5s7.5-3.358,7.5-7.5v-16
		C102.999,51.358,99.641,48,95.499,48z"/>
	<path d="M335.499,328h-144c-21.78,0-39.5,17.72-39.5,39.5v32c0,21.78,17.72,39.5,39.5,39.5h144c21.78,0,39.5-17.72,39.5-39.5v-32
		C374.999,345.72,357.279,328,335.499,328z M359.999,399.5c0,13.509-10.991,24.5-24.5,24.5h-144c-13.509,0-24.5-10.991-24.5-24.5
		v-32c0-13.509,10.991-24.5,24.5-24.5h144c13.509,0,24.5,10.991,24.5,24.5V399.5z"/>
	<path d="M319.499,392h-112c-4.142,0-7.5,3.358-7.5,7.5s3.358,7.5,7.5,7.5h112c4.142,0,7.5-3.358,7.5-7.5S323.641,392,319.499,392z"
		/>
	<path d="M231.499,375h64c4.142,0,7.5-3.358,7.5-7.5s-3.358-7.5-7.5-7.5h-64c-4.142,0-7.5,3.358-7.5,7.5S227.356,375,231.499,375z"
		/>
	<path d="M199.499,231h32.5v32.5c0,12.958,10.542,23.5,23.5,23.5h16c12.958,0,23.5-10.542,23.5-23.5V231h32.5
		c12.958,0,23.5-10.542,23.5-23.5v-16c0-12.958-10.542-23.5-23.5-23.5h-32.5v-32.5c0-12.958-10.542-23.5-23.5-23.5h-16
		c-12.958,0-23.5,10.542-23.5,23.5V168h-32.5c-12.958,0-23.5,10.542-23.5,23.5v16C175.999,220.458,186.541,231,199.499,231z
		 M190.999,191.5c0-4.687,3.813-8.5,8.5-8.5h40c4.142,0,7.5-3.358,7.5-7.5v-40c0-4.687,3.813-8.5,8.5-8.5h16
		c4.687,0,8.5,3.813,8.5,8.5v40c0,4.142,3.358,7.5,7.5,7.5h40c4.687,0,8.5,3.813,8.5,8.5v16c0,4.687-3.813,8.5-8.5,8.5h-40
		c-4.142,0-7.5,3.358-7.5,7.5v40c0,4.687-3.813,8.5-8.5,8.5h-16c-4.687,0-8.5-3.813-8.5-8.5v-40c0-4.142-3.358-7.5-7.5-7.5h-40
		c-4.687,0-8.5-3.813-8.5-8.5V191.5z"/>
</g>
<g>
</g>
<g>
</g>
<g>
</g>
<g>
</g>
<g>
</g>
<g>
</g>
<g>
</g>
<g>
</g>
<g>
</g>
<g>
</g>
<g>
</g>
<g>
</g>
<g>
</g>
<g>
</g>
<g>
</g>
</svg>
