<?xml version="1.0" encoding="utf-8"?>
<!-- Generator: Adobe Illustrator 16.0.0, SVG Export Plug-In . SVG Version: 6.00 Build 0)  -->
<!DOCTYPE svg PUBLIC "-//W3C//DTD SVG 1.1//EN" "http://www.w3.org/Graphics/SVG/1.1/DTD/svg11.dtd">
<svg version="1.1" id="Layer_1" xmlns="http://www.w3.org/2000/svg" xmlns:xlink="http://www.w3.org/1999/xlink" x="0px" y="0px"
	 width="841.889px" height="1190.551px" viewBox="0 0 841.889 1190.551" enable-background="new 0 0 841.889 1190.551"
	 xml:space="preserve" fill="#fff">
<path d="M380.626,562.306c0,22.234,18.084,40.318,40.318,40.318s40.302-18.084,40.302-40.318s-18.067-40.301-40.302-40.301
	S380.626,540.072,380.626,562.306z M420.945,547.262c8.301,0,15.045,6.743,15.045,15.044c0,8.302-6.744,15.062-15.045,15.062
	s-15.062-6.76-15.062-15.062C405.883,554.006,412.644,547.262,420.945,547.262z M532.15,609.301H309.74
	c-17.596,0-31.899,14.305-31.899,31.899v6.466c0,17.579,14.304,31.883,31.899,31.883h222.41c17.579,0,31.883-14.304,31.883-31.883
	V641.2C564.032,623.605,549.729,609.301,532.15,609.301z M538.776,647.666c0,3.654-2.98,6.626-6.626,6.626H309.74
	c-3.671,0-6.643-2.98-6.643-6.626V641.2c0-3.67,2.98-6.643,6.643-6.643h222.41c3.654,0,6.626,2.98,6.626,6.643V647.666z
	 M468.924,559.63c0,6.971,5.648,12.628,12.628,12.628c9.774,0,17.722,7.956,17.722,17.739c0,6.971,5.658,12.628,12.629,12.628
	c6.979,0,12.628-5.657,12.628-12.628c0-23.708-19.279-42.996-42.979-42.996C474.573,547.001,468.924,552.659,468.924,559.63z
	 M360.337,547.001c-23.708,0-42.995,19.288-42.995,42.996c0,6.971,5.657,12.628,12.628,12.628c6.979,0,12.628-5.657,12.628-12.628
	c0-9.783,7.956-17.739,17.739-17.739c6.971,0,12.628-5.657,12.628-12.628S367.308,547.001,360.337,547.001z M639.044,592.429
	c-2.626-6.466-9.984-9.572-16.459-6.954c-6.466,2.627-9.572,10.002-6.937,16.459c9.134,22.513,14.27,38.264,18.773,66.938
	c0.977,6.23,6.349,10.676,12.461,10.676c0.647,0,1.305-0.051,1.97-0.151c6.887-1.087,11.593-7.544,10.515-14.438
	C654.519,634.019,648.718,616.255,639.044,592.429z M294.232,498.685c-4.041,4.041-11.87,10.886-15.886,12.746
	c-6.323,2.964-9.051,10.473-6.104,16.787c2.139,4.589,6.693,7.282,11.441,7.282c1.794,0,3.612-0.379,5.338-1.187
	c9.429-4.387,20.861-15.575,23.06-17.772c4.933-4.934,4.933-12.923,0-17.856C307.155,493.76,299.165,493.76,294.232,498.685z
	 M724.808,665.303c-7.763-60.086-29.854-118.192-63.891-168.016c-8.486-12.443-20.509-20.483-33.827-22.639
	c-11.938-1.937-23.876,1.103-33.6,8.52c-18.522,14.119-21.646,43.223-7.241,64.422l8.107,13.041
	c-2.416,1.33-4.866,2.332-7.408,2.618c-12.553,1.347-30.544-9.9-53.628-33.499c-4.866-5.001-12.864-5.085-17.857-0.193
	c-4.983,4.866-5.076,12.855-0.193,17.856c27.361,27.968,49.638,41.193,69.591,41.193c1.634,0,3.258-0.084,4.866-0.261
	c24.104-2.644,38.744-23.32,54.049-48.029c3.68-5.936,1.844-13.715-4.074-17.394c-5.936-3.671-13.715-1.844-17.385,4.091
	c-3.326,5.363-6.559,10.406-9.792,15.012l-5.085-8.175c-6.381-9.404-7.35-23.943,1.381-30.604c4.227-3.207,9.144-4.486,14.254-3.67
	c6.415,1.035,12.442,5.278,16.989,11.954c31.807,46.549,52.449,100.851,59.706,157.013c0.825,6.365,6.256,11.004,12.511,11.004
	c0.53,0,1.086-0.034,1.625-0.102C720.818,678.563,725.7,672.232,724.808,665.303z M562.441,488.027
	c22.234,0,40.318-18.084,40.318-40.318c0-22.226-18.084-40.301-40.318-40.301c-22.217,0-40.301,18.075-40.301,40.301
	C522.14,469.943,540.224,488.027,562.441,488.027z M562.441,432.664c8.302,0,15.062,6.752,15.062,15.045
	c0,8.301-6.76,15.062-15.062,15.062c-8.284,0-15.044-6.761-15.044-15.062C547.397,439.416,554.149,432.664,562.441,432.664z
	 M547.657,498.685c-4.934-4.917-12.923-4.917-17.856,0.017c-4.925,4.934-4.925,12.923,0,17.84
	c2.206,2.206,13.63,13.386,23.06,17.772c1.726,0.808,3.544,1.187,5.337,1.187c4.749,0,9.304-2.693,11.441-7.282
	c2.955-6.314,0.219-13.832-6.104-16.787C559.511,509.554,551.833,502.844,547.657,498.685z M219.304,585.475
	c-6.482-2.618-13.832,0.497-16.459,6.954c-9.665,23.825-15.474,41.581-20.332,72.529c-1.077,6.887,3.629,13.352,10.516,14.438
	c0.665,0.102,1.321,0.152,1.97,0.152c6.121,0,11.483-4.438,12.46-10.676c4.504-28.675,9.648-44.426,18.774-66.938
	C228.876,595.469,225.761,588.102,219.304,585.475z M279.448,488.027c22.218,0,40.301-18.084,40.301-40.318
	c0-22.226-18.083-40.301-40.301-40.301c-22.234,0-40.318,18.075-40.318,40.301C239.13,469.943,257.223,488.027,279.448,488.027z
	 M279.448,432.664c8.284,0,15.045,6.752,15.045,15.045c0,8.301-6.761,15.062-15.045,15.062c-8.301,0-15.062-6.761-15.062-15.062
	C264.387,439.416,271.148,432.664,279.448,432.664z M326.426,529.549c-4.993-4.866-12.991-4.781-17.856,0.194
	c-23.085,23.598-41.151,34.862-53.629,33.498c-2.551-0.277-5-1.279-7.408-2.618l7.829-12.611
	c14.438-21.274,11.543-49.638-6.6-64.556c-9.295-7.645-20.938-10.945-32.826-9.211c-13.546,1.928-26.292,10.339-34.946,23.043
	c-34.046,49.823-56.138,107.93-63.899,168.016c-0.893,6.92,3.99,13.251,10.911,14.144c0.538,0.067,1.094,0.102,1.625,0.102
	c6.255,0,11.693-4.639,12.51-11.004c7.249-56.171,27.892-110.464,59.707-157.029c4.689-6.853,11.121-11.332,17.68-12.267
	c4.815-0.69,9.404,0.59,13.201,3.713c8.991,7.4,7.905,21.788,1.465,31.311l-4.799,7.729c-3.241-4.605-6.482-9.648-9.791-14.994
	c-3.68-5.936-11.45-7.763-17.386-4.092c-5.918,3.688-7.754,11.458-4.074,17.394c15.306,24.718,29.946,45.386,54.049,48.029
	c1.608,0.177,3.233,0.262,4.866,0.262c19.953,0,42.238-13.218,69.591-41.194C331.502,542.413,331.409,534.415,326.426,529.549z
	 M361.777,403.054c0.942,0.455,23.615,11.037,59.168,11.037c33.162,0,57.703-10.389,58.738-10.835
	c4.041-1.742,6.896-5.472,7.519-9.85c0.606-4.37-1.103-8.739-4.521-11.525l-49.107-40.142v-28.582
	c0-6.971-5.657-12.629-12.628-12.629c-6.979,0-12.628,5.658-12.628,12.629v28.591L359.2,381.889
	c-3.343,2.736-5.068,6.996-4.538,11.299C355.176,397.473,357.87,401.203,361.777,403.054z M420.945,364.042l27.084,22.133
	c-7.645,1.49-16.905,2.661-27.084,2.661c-10.607,0-19.818-1.104-27.261-2.518L420.945,364.042z M354.301,455.193
	c2.146,1.423,4.571,2.104,6.962,2.104c4.092,0,8.116-1.986,10.54-5.657l8.681-13.108c3.855-5.809,2.265-13.646-3.553-17.494
	c-5.817-3.864-13.656-2.265-17.503,3.553l-8.68,13.108C346.901,443.508,348.491,451.345,354.301,455.193z M464.967,421.029
	c-5.817,3.848-7.417,11.686-3.569,17.494l8.671,13.108c2.425,3.68,6.449,5.666,10.549,5.666c2.383,0,4.799-0.673,6.954-2.096
	c5.81-3.848,7.409-11.686,3.562-17.495l-8.672-13.107C478.614,418.79,470.784,417.181,464.967,421.029z M433.573,462.694v-24.583
	c0-6.971-5.657-12.628-12.628-12.628c-6.979,0-12.628,5.657-12.628,12.628v24.583c0,6.971,5.648,12.629,12.628,12.629
	C427.915,475.323,433.573,469.674,433.573,462.694z"/>
</svg>
