<?xml version="1.0" encoding="utf-8"?>
<!-- Generator: Adobe Illustrator 16.0.0, SVG Export Plug-In . SVG Version: 6.00 Build 0)  -->
<!DOCTYPE svg PUBLIC "-//W3C//DTD SVG 1.1//EN" "http://www.w3.org/Graphics/SVG/1.1/DTD/svg11.dtd">
<svg version="1.1" id="Layer_1" xmlns="http://www.w3.org/2000/svg" xmlns:xlink="http://www.w3.org/1999/xlink" x="0px" y="0px"
	 width="841.889px" height="1190.551px" viewBox="0 0 841.889 1190.551" enable-background="new 0 0 841.889 1190.551"
	 xml:space="preserve" fill="#fff">
<g>
	<path d="M828.735,221.503L689.481,82.249H328.863v105.236H263.09c-36.267,0-65.772,29.505-65.772,65.772v218.181l-70.351,70.351
		c-13.641,13.642-22.533,30.927-25.717,49.975l-8.301,49.815l-14.022,14.022l-13.154-13.154L7.708,700.511l176.455,176.455
		l18.68-18.68c10.168,23.23,33.307,39.542,60.247,39.542h368.327c36.267,0,65.772-29.505,65.772-65.772v-65.772h131.545V221.503z
		 M697.19,127.158l86.636,86.636H697.19V127.158z M263.09,213.794h65.772v78.927H263.09c-21.757,0-39.463-17.706-39.463-39.463
		C223.627,231.5,241.333,213.794,263.09,213.794z M232.927,514.757c-3.117,3.144-9.3,0.592-9.3-3.854V305.533
		c11.023,8.354,24.599,13.497,39.463,13.497h13.155v152.408L232.927,514.757z M117.523,654.208l9.682-58.13
		c2.275-13.603,8.616-25.954,18.363-35.702l51.75-51.736v2.263c0,17.509,14.247,31.755,31.755,31.755
		c8.366,0,16.549-3.394,22.455-9.3l78.467-78.467c2.749-2.736,6.551-4.315,10.432-4.315c8.129,0,14.746,6.617,14.746,14.747
		c0,3.946-1.526,7.643-4.314,10.431L240.636,585.975l18.601,18.6l110.221-110.222l26.31-26.309
		c2.749-2.736,6.551-4.314,10.432-4.314c8.13,0,14.746,6.616,14.746,14.746c0,3.946-1.526,7.643-4.314,10.432l-26.31,26.309
		L280.099,625.438l18.601,18.601l110.222-110.222c2.749-2.749,6.551-4.314,10.432-4.314c8.13,0,14.746,6.616,14.746,14.746
		c0,3.881-1.565,7.683-4.314,10.432l-26.31,26.309l-83.912,83.913l18.601,18.601l83.913-83.913
		c2.749-2.749,6.551-4.314,10.431-4.314c8.13,0,14.747,6.617,14.747,14.746c0,3.881-1.566,7.683-4.315,10.432L337.44,725.952
		c-9.747,9.748-22.1,16.102-35.688,18.364l-58.143,9.682l-33.137,33.149L97.528,674.202L117.523,654.208z M44.909,700.511
		l20.863-20.863l139.254,139.254l-20.863,20.863L44.909,700.511z M224.127,837.003l18.101-18.101l-13.155-13.154l27.178-27.178
		l19.995-3.328v96.278H263.09C243.017,871.52,226.587,856.406,224.127,837.003z M670.88,832.056
		c0,21.758-17.706,39.464-39.463,39.464H302.554V770.848l3.538-0.592c19.035-3.184,36.32-12.076,49.961-25.717l105.5-105.5
		c7.629-7.629,12.01-18.205,12.01-29.019c0-16.746-10.116-31.149-24.533-37.529c7.195-7.577,11.379-17.759,11.379-28.243
		c0-16.746-10.116-31.15-24.533-37.517c7.301-7.669,11.379-17.627,11.379-28.256c0-22.639-18.417-41.056-41.056-41.056
		c-10.471,0-20.666,4.184-28.243,11.379c-6.38-14.417-20.784-24.533-37.529-24.533c-10.813,0-21.39,4.38-29.032,12.023l-8.84,8.84
		v-126.1h276.245c21.758,0,39.463,17.706,39.463,39.464v138.122l52.618,39.464V832.056z M644.572,483.462V371.648h105.236v315.709
		H697.19V522.926L644.572,483.462z M697.19,739.975v-26.31h78.927V345.339H643.242c-6.116-29.979-32.676-52.618-64.443-52.618
		H355.172V108.557H670.88v131.545h131.546v499.873H697.19z"/>
	<path d="M591.953,766.284c-14.51,0-26.309,11.8-26.309,26.31v26.309c0,14.51,11.799,26.309,26.309,26.309h26.309
		c14.51,0,26.31-11.799,26.31-26.309v-26.309c0-14.51-11.8-26.31-26.31-26.31H591.953z M618.262,818.902h-26.309l-0.026-26.309
		h0.026h26.309V818.902z"/>
	<path d="M513.027,766.284h-26.31c-14.51,0-26.309,11.8-26.309,26.31v26.309c0,14.51,11.799,26.309,26.309,26.309h26.31
		c14.509,0,26.309-11.799,26.309-26.309v-26.309C539.335,778.084,527.535,766.284,513.027,766.284z M513.027,818.902h-26.31
		l-0.026-26.309h0.026h26.31V818.902z"/>
	<rect x="381.481" y="134.867" width="263.091" height="26.309"/>
	<rect x="381.481" y="187.485" width="263.091" height="26.309"/>
	<rect x="381.481" y="240.102" width="263.091" height="26.31"/>
	<rect x="749.808" y="292.72" width="26.309" height="26.31"/>
	<rect x="697.19" y="292.72" width="26.309" height="26.31"/>
	<rect x="644.572" y="292.72" width="26.309" height="26.31"/>
	<rect x="328.863" y="345.339" width="26.31" height="26.31"/>
	<rect x="381.481" y="345.339" width="26.31" height="26.31"/>
	<rect x="434.099" y="345.339" width="26.31" height="26.31"/>
</g>
</svg>
