<?xml version="1.0" encoding="utf-8"?>
<!-- Generator: Adobe Illustrator 16.0.0, SVG Export Plug-In . SVG Version: 6.00 Build 0)  -->
<!DOCTYPE svg PUBLIC "-//W3C//DTD SVG 1.1//EN" "http://www.w3.org/Graphics/SVG/1.1/DTD/svg11.dtd">
<svg version="1.1" id="Layer_1" xmlns="http://www.w3.org/2000/svg" xmlns:xlink="http://www.w3.org/1999/xlink" x="0px" y="0px"
	 width="841.889px" height="1190.551px" viewBox="0 0 841.889 1190.551" enable-background="new 0 0 841.889 1190.551"
	 xml:space="preserve" fill="#fff">
<path d="M359.623,525.208c0-6.5,5.27-11.769,11.769-11.769c6.5,0,11.769,5.269,11.769,11.769c0,3.966-1.976,7.456-4.981,9.589
	c-1.921,1.361-4.253,2.18-6.787,2.18c-2.533,0-4.866-0.818-6.786-2.18C361.6,532.664,359.623,529.174,359.623,525.208z
	 M371.392,503.337c6.5,0,11.769-5.27,11.769-11.769c0-6.5-5.269-11.77-11.769-11.77c-6.499,0-11.769,5.27-11.769,11.77
	C359.623,498.067,364.893,503.337,371.392,503.337z M399.26,368.842c4.355,0,7.642-4.014,7.642-9.336
	c0-5.323-3.286-9.334-7.642-9.334s-7.639,4.011-7.639,9.334C391.621,364.828,394.905,368.842,399.26,368.842z M596.406,100.778
	v786.94c0,4.653-3.766,8.419-8.419,8.419H262.322c-9.286,0-16.838-7.556-16.838-16.838v-17.166c0-9.282,7.552-16.838,16.838-16.838
	h12.706c1.991-12.519,10.25-22.551,21.371-26.893c-0.332-1.597-0.554-3.239-0.554-4.95V658.361h-11.111
	c-7.083,0-13.845-3.042-18.548-8.336c-4.702-5.304-6.914-12.374-6.071-19.411l0.676-5.636c-0.297-0.253-0.673-0.392-0.935-0.688
	c-1.6-1.8-2.348-4.209-2.056-6.602l15.309-125.971c3.309-25.307,21.146-45.654,45.526-52.536c6.039-1.686,12.588-0.938,18.462,2.121
	c0.532,0.277,1.25,0.482,1.825,0.745v-13.494c-12.93-9.093-23.402-23.041-30.153-38.842c-0.995,0.237-1.974,0.528-3.004,0.642
	c-0.962,0.103-1.924,0.156-2.874,0.156c-12.304,0-23.164-8.666-25.392-20.76c-1.176-6.384,0.283-12.727,4.103-17.861
	c0.028-0.038,0.067-0.066,0.096-0.104c-1.618-5.199-2.529-10.994-2.529-17.638v-13.22c0-43.09,37.613-78.146,83.843-78.146h16.76
	c46.234,0,83.848,35.057,83.848,78.146v13.22c0,6.642-0.912,12.437-2.531,17.637c0.029,0.038,0.069,0.067,0.098,0.105
	c3.823,5.135,5.278,11.478,4.103,17.861c-2.236,12.094-13.097,20.76-25.396,20.76c-0.953,0-1.907-0.05-2.877-0.156
	c-1.029-0.113-2.006-0.403-3-0.641c-6.75,15.8-17.221,29.748-30.149,38.84v13.503c0.575-0.262,1.293-0.467,1.825-0.745
	c5.846-3.074,12.382-3.831,18.449-2.129c24.385,6.882,42.226,27.222,45.448,51.837c0.009,0.024,0.083,0.674,0.091,0.699
	l15.309,125.971c0.288,2.393-0.46,4.802-2.056,6.602c-0.261,0.294-0.635,0.432-0.93,0.684l0.675,5.64
	c0.839,7.037-1.373,14.107-6.075,19.411c-4.703,5.294-11.461,8.336-18.548,8.336h-11.131l0.015,155.092
	c0,1.707-0.219,3.346-0.55,4.938c11.306,4.383,19.622,14.564,21.434,26.905h27.237V220.028H350.333
	c-10.125,0-18.358-7.552-18.358-16.838v-17.113c0-9.286,8.233-16.838,18.358-16.838h144.725v-0.744v-67.717
	c0-9.286,7.556-16.838,16.838-16.838h67.672C588.85,83.94,596.406,91.492,596.406,100.778z M495.058,203.19v-17.113H350.333
	c-1.023,0-1.578,0.436-1.66,0.542l0.14,16.473c0.054-0.264,0.608,0.103,1.521,0.099H495.058z M435.649,833.105
	c-2.294,1.145-4.815,1.798-7.474,1.798h-29.983c-1.389,0-2.731-0.199-4.035-0.528c-1.271,1.103-2.115,2.675-2.115,4.483v6.438
	h58.587C448.521,838.422,442.653,833.759,435.649,833.105z M367.578,838.858v6.438h7.625v-6.438c0-6.098,2.438-11.615,6.347-15.717
	c-1.308-2.923-2.116-6.185-2.116-9.688l-4.103-126.332c-0.054-1.604-1.854-2.96-3.938-2.96c-2.08,0-3.88,1.356-3.934,2.96
	l-4.111,126.604c0.001,3.399-0.794,6.586-2.084,9.454C365.152,827.277,367.578,832.778,367.578,838.858z M392.16,686.578
	l4.107,126.604c0.008,3.182,1.472,4.776,1.94,4.883h29.967c0.452-0.106,1.924-1.693,1.924-4.612V649.811l-1.987-30.667H314.681
	l-2.015,31.209l0.017,163.1c0,2.911,1.472,4.506,1.94,4.612h29.976c0.448-0.106,1.916-1.71,1.916-4.612l4.114-126.875
	c0.354-10.795,9.472-19.255,20.764-19.255C382.686,667.323,391.807,675.783,392.16,686.578z M465.953,632.62l-0.657-5.492h-19.802
	l0.928,14.396h11.631c2.31,0,4.423-0.953,5.952-2.68S466.233,634.905,465.953,632.62z M447.677,361.944
	c-1.11-1.492-2.861-2.438-4.941-2.663c-0.261-0.03-0.519-0.039-0.775-0.044c-0.495,4.787-1.304,9.587-2.493,14.329
	c4.419,0.164,8.517-2.814,9.263-6.869C449.141,364.485,448.384,362.89,447.677,361.944z M303.316,373.568
	c-1.189-4.742-1.998-9.543-2.494-14.331c-0.258,0.005-0.519,0.014-0.779,0.044c-2.071,0.226-3.823,1.171-4.933,2.659
	c-0.703,0.95-1.46,2.545-1.053,4.761C294.806,370.753,298.959,373.76,303.316,373.568z M310.607,323.356
	c20.131-0.324,39.139-9.101,50.847-23.473c4.9-6.01,14.979-6.014,19.88,0.005c11.703,14.367,30.712,23.144,50.854,23.468
	c3.889,0.066,7.234,2.792,8.082,6.594c0.955,4.303,1.49,8.447,1.835,12.557c0.825,0.012,1.638-0.056,2.473,0.035
	c0.478,0.052,0.922,0.217,1.392,0.297c0.482-2.642,0.812-5.463,0.812-8.691v-13.22c0-33.808-30.058-61.309-67.01-61.309h-16.76
	c-36.947,0-67.006,27.501-67.006,61.309v13.22c0,3.228,0.33,6.05,0.813,8.691c0.471-0.08,0.914-0.245,1.392-0.297
	c0.834-0.093,1.646-0.026,2.471-0.04c0.348-4.117,0.887-8.267,1.846-12.563C303.376,326.143,306.714,323.423,310.607,323.356z
	 M371.393,422.607c27.9,0,54.283-35.443,54.283-72.93c0-3.247-0.23-6.511-0.707-9.857c-21.006-1.936-40.043-11.058-53.576-25.709
	c-13.541,14.651-32.578,23.773-53.575,25.709c-0.478,3.342-0.712,6.606-0.712,9.857C317.106,387.164,343.49,422.607,371.393,422.607
	z M371.393,439.445c-5.415,0-10.63-0.891-15.633-2.443v9.664c4.947,0.75,10.18,1.248,15.633,1.248
	c5.454,0,10.687-0.496,15.634-1.244v-9.668C382.023,438.554,376.808,439.445,371.393,439.445z M275.661,610.29h16.375
	c0.002-0.045-0.021-0.086-0.019-0.132l5.098-75.926c0.309-4.637,4.283-8.082,8.961-7.835c4.442,0.299,7.75,4.011,7.76,8.399
	c0.001,0.197,0.089,0.37,0.076,0.57l-4.493,66.939h123.944l-4.489-66.948c-0.014-0.196,0.074-0.368,0.074-0.562
	c0.007-4.384,3.321-8.101,7.77-8.399c4.596-0.107,8.648,3.206,8.961,7.843l5.09,75.927c0.003,0.042-0.02,0.081-0.018,0.123h16.37
	l-14.166-116.532c0-0.009,0-0.009,0-0.017c0-0.017-0.074-0.649-0.074-0.666c-2.335-17.792-15.415-32.64-33.306-37.68
	c-1.891-0.534-4.045-0.23-6.092,0.839c-10.384,5.418-25.722,8.518-42.091,8.518c-16.36,0-31.698-3.108-42.078-8.518
	c-2.055-1.069-4.242-1.365-6.116-0.839c-17.882,5.04-30.958,19.888-33.306,37.819L275.661,610.29z M297.302,627.128H277.49
	l-0.661,5.492c-0.271,2.285,0.42,4.497,1.953,6.224s3.646,2.68,5.952,2.68h11.644L297.302,627.128z M292.023,845.296h58.718v-6.438
	c0-1.808-0.843-3.379-2.11-4.482c-1.302,0.328-2.645,0.527-4.031,0.527h-29.992c-2.731,0-5.311-0.705-7.653-1.91
	C299.862,833.713,293.997,838.647,292.023,845.296z M579.568,862.134H262.322V879.3h317.246V862.134z M579.575,845.296
	l-0.008-744.518h-67.672v59.298h20.686c4.653,0,8.419,3.77,8.419,8.419s-3.766,8.419-8.419,8.419h-20.686v59.298h20.686
	c4.653,0,8.419,3.77,8.419,8.419s-3.766,8.419-8.419,8.419h-20.686v59.298h20.686c4.653,0,8.419,3.77,8.419,8.419
	s-3.766,8.419-8.419,8.419h-20.686v59.294h20.686c4.653,0,8.419,3.766,8.419,8.42c0,4.653-3.766,8.419-8.419,8.419h-20.686v59.302
	h20.686c4.653,0,8.419,3.766,8.419,8.419s-3.766,8.419-8.419,8.419h-20.686v59.294h20.686c4.653,0,8.419,3.766,8.419,8.419
	s-3.766,8.419-8.419,8.419h-20.686v59.302h20.686c4.653,0,8.419,3.766,8.419,8.419s-3.766,8.419-8.419,8.419h-20.686v59.294h20.686
	c4.653,0,8.419,3.766,8.419,8.419s-3.766,8.419-8.419,8.419h-20.686v59.294h20.686c4.653,0,8.419,3.766,8.419,8.419
	s-3.766,8.419-8.419,8.419h-20.686v59.303H579.575z M351.165,359.506c0-5.323-3.285-9.334-7.641-9.334s-7.642,4.011-7.642,9.334
	c0,5.322,3.286,9.336,7.642,9.336S351.165,364.828,351.165,359.506z M371.389,404.808c11.457,0,20.427-6.701,20.427-15.252
	c0-3.72-2.964-6.979-6.685-6.979c-3.72,0-6.684,2.771-6.684,6.49c-0.068,0.119-0.278,0.303-0.515,0.488
	c-0.927,0.731-3.087,1.785-6.544,1.785c-3.46,0-5.596-1.056-6.519-1.785c-0.158-0.125-0.359-0.263-0.44-0.36
	c-0.189-3.552-3.129-6.372-6.726-6.372c-3.721,0-6.733,3.014-6.733,6.733C350.971,398.107,359.941,404.808,371.389,404.808z"/>
</svg>
