<svg id="Layer_1" height="512" viewBox="0 0 512 512" width="512" fill="#fff" xmlns="http://www.w3.org/2000/svg" data-name="Layer 1"><path d="m478.917 293.233h-22.958l-8.442-20.4a45.861 45.861 0 0 0 -42.5-28.412h-45.6v-8.333a22.025 22.025 0 0 0 -22-22h-154a22.025 22.025 0 0 0 -22 22v8.333h-35.211a12.058 12.058 0 0 1 -11.23-7.771l-16.832-44.7a42.2 42.2 0 0 0 -39.306-27.2h-29.755a6 6 0 0 0 -5.727 7.79l37.716 120.69h-19.155a10.011 10.011 0 0 0 -10 10v24a24.027 24.027 0 0 0 24 24h76v26h-17a24.027 24.027 0 0 0 -24 24v22.66a29.034 29.034 0 1 0 27.853 9.343h283.293a28.978 28.978 0 1 0 27.854-9.343v-22.657a24.027 24.027 0 0 0 -24-24h-27v-26h86a24.027 24.027 0 0 0 24-24v-24a10.011 10.011 0 0 0 -10-10zm-119.5-36.813h45.6a33.9 33.9 0 0 1 31.417 21l6.544 15.813h-83.561zm-53-30.333h31a10.011 10.011 0 0 1 10 10v8.333h-41zm0 30.333h41v36.813h-41zm-40-30.333h28v18.333h-28zm0 30.333h28v36.813h-28zm-40-30.333h28v18.333h-28zm0 30.333h28v36.813h-28zm-53-20.333a10.011 10.011 0 0 1 10-10h31v18.333h-41zm0 20.333h41v36.813h-41zm-136.172-79.667h21.593a30.147 30.147 0 0 1 28.076 19.428l16.831 44.7a24.118 24.118 0 0 0 22.461 15.542h35.211v36.813h-87.772zm59.672 292.5a17 17 0 1 1 17-17 17.015 17.015 0 0 1 -17 17zm327-33.991a17 17 0 1 1 -17 17 17.015 17.015 0 0 1 17-17zm-6-34.029v20h-315v-20a12.013 12.013 0 0 1 12-12h291a12.014 12.014 0 0 1 12 12zm-274-24v-26h223v26zm333-50a12.014 12.014 0 0 1 -12 12h-409a12.013 12.013 0 0 1 -12-12v-22h433z"/><path d="m79.97 274.5a6 6 0 0 0 5.726-7.8l-13.623-43.4a6 6 0 1 0 -11.449 3.6l13.623 43.4a6 6 0 0 0 5.723 4.2z"/><path d="m62.537 212.806a6 6 0 0 0 3.938-7.516l-2.081-6.66a6 6 0 0 0 -11.455 3.579l2.082 6.66a5.992 5.992 0 0 0 7.516 3.937z"/><path d="m216.794 121.45h24.292v24.292a6 6 0 0 0 6 6h17.828a6 6 0 0 0 6-6v-24.292h24.292a6 6 0 0 0 6-6v-17.828a6 6 0 0 0 -6-6h-24.292v-24.292a6 6 0 0 0 -6-6h-17.828a6 6 0 0 0 -6 6v24.292h-24.292a6 6 0 0 0 -6 6v17.828a6 6 0 0 0 6 6zm6-17.828h24.292a6 6 0 0 0 6-6v-24.292h5.828v24.292a6 6 0 0 0 6 6h24.292v5.828h-24.292a6 6 0 0 0 -6 6v24.292h-5.828v-24.292a6 6 0 0 0 -6-6h-24.292z"/><path d="m256 182.326a75.79 75.79 0 1 0 -75.79-75.79 75.876 75.876 0 0 0 75.79 75.79zm0-139.579a63.79 63.79 0 1 1 -63.79 63.789 63.861 63.861 0 0 1 63.79-63.789z"/></svg>