<?xml version="1.0" ?><svg id="Layer_1" fill="#fff" style="enable-background:new 0 0 100 100;" version="1.1" viewBox="0 0 100 100" xml:space="preserve" xmlns="http://www.w3.org/2000/svg" xmlns:xlink="http://www.w3.org/1999/xlink"><path d="M17.395,94.24c-0.253,0.617-0.183,1.319,0.189,1.874C17.955,96.667,18.578,97,19.245,97h61.511  c0.667,0,1.29-0.333,1.661-0.886c0.372-0.554,0.442-1.257,0.189-1.874C82.164,93.166,77.619,83.958,52,83.498v-6.116  c12.417-1.019,22.212-11.446,22.212-24.125V40.171c0-1.104-0.896-2-2-2s-2,0.896-2,2v13.086c0,11.146-9.065,20.214-20.207,20.214  c-11.15,0-20.221-9.068-20.221-20.214V40.171c0-1.104-0.896-2-2-2s-2,0.896-2,2v13.086c0,12.676,9.795,23.101,22.215,24.124v6.117  C22.381,83.958,17.836,93.166,17.395,94.24z M23.918,93c3.487-2.418,10.918-5.524,26.082-5.524c15.187,0,22.617,3.114,26.093,5.524  H23.918z"/><path d="M64.222,53.254V17.222C64.222,9.38,57.842,3,50,3S35.778,9.38,35.778,17.222v36.033c0,7.842,6.38,14.222,14.222,14.222  S64.222,61.096,64.222,53.254z M39.778,53.254V17.222C39.778,11.585,44.364,7,50,7s10.222,4.585,10.222,10.222v36.033  c0,5.636-4.585,10.222-10.222,10.222S39.778,58.891,39.778,53.254z"/></svg>