<svg xmlns="http://www.w3.org/2000/svg" xmlns:xlink="http://www.w3.org/1999/xlink" version="1.1" x="0px" y="0px" viewBox="0 0 64 80" fill="#fff" style="enable-background:new 0 0 64 64;" xml:space="preserve"><g><path d="M60,5c-1.654,0-3,1.346-3,3v1h-9V6.816C49.161,6.402,50,5.302,50,4c0-1.654-1.346-3-3-3H35c-1.654,0-3,1.346-3,3   c0,0.549,0.159,1.057,0.417,1.5c-1.642,0.655-2.975,1.913-3.732,3.5H10c-1.654,0-3,1.346-3,3v2c0,1.654,1.346,3,3,3h1v4H6v6h2v15   c0,1.654,1.346,3,3,3h8c1.654,0,3-1.346,3-3V27h2v-6h-5v-4h11.11c1.037,1.014,2.387,1.704,3.89,1.92v0.58l-8,6V59   c0,3.888,13.465,4,15,4s15-0.112,15-4V25.5l-8-6V17h9v1c0,1.654,1.346,3,3,3s3-1.346,3-3V8C63,6.346,61.654,5,60,5z M41.315,9   c-0.357-0.749-0.839-1.426-1.425-2H46v2H41.315z M34,4c0-0.551,0.449-1,1-1h12c0.551,0,1,0.449,1,1s-0.449,1-1,1H35   C34.449,5,34,4.551,34,4z M9,14v-2c0-0.551,0.449-1,1-1h18.08C28.033,11.328,28,11.66,28,12c0,1.075,0.25,2.089,0.685,3H10   C9.449,15,9,14.551,9,14z M20,29h-6v2h6v2h-4v2h4v2h-6v2h6v3c0,0.552-0.449,1-1,1h-8c-0.551,0-1-0.448-1-1V27h10V29z M22,25H8v-2   h14V25z M17,21h-4v-4h4V21z M30,12c0-2.757,2.243-5,5-5s5,2.243,5,5s-2.243,5-5,5S30,14.757,30,12z M46.667,21L52,25H30l5.333-4   H46.667z M54,54.902C53.439,55.671,48.721,57,41,57s-12.439-1.329-13-2.098V27h26V54.902z M41,61c-7.685,0-12.403-1.318-13-2.088   v-1.707C31.809,58.934,39.835,59,41,59s9.191-0.066,13-1.795v1.707C53.403,59.682,48.685,61,41,61z M46,19H36v-0.08   c1.503-0.216,2.853-0.906,3.89-1.92H46V19z M41.315,15C41.75,14.089,42,13.075,42,12c0-0.34-0.033-0.672-0.08-1H57v4H41.315z    M61,18c0,0.551-0.449,1-1,1s-1-0.449-1-1v-1V9V8c0-0.551,0.449-1,1-1s1,0.449,1,1V18z" /><polygon points="36,9 34,9 34,11.586 32.293,13.293 33.707,14.707 36,12.414  " /><path d="M5,55c-2.206,0-4,1.794-4,4s1.794,4,4,4s4-1.794,4-4S7.206,55,5,55z M5,61c-1.103,0-2-0.897-2-2s0.897-2,2-2s2,0.897,2,2   S6.103,61,5,61z" /><path d="M17,49c-1.654,0-3,1.346-3,3s1.346,3,3,3s3-1.346,3-3S18.654,49,17,49z M17,53c-0.551,0-1-0.448-1-1s0.449-1,1-1   s1,0.448,1,1S17.551,53,17,53z" /><path d="M4,50c1.654,0,3-1.346,3-3s-1.346-3-3-3s-3,1.346-3,3S2.346,50,4,50z M4,46c0.551,0,1,0.448,1,1s-0.449,1-1,1s-1-0.448-1-1   S3.449,46,4,46z" /><path d="M32,55h18c1.103,0,2-0.897,2-2V31c0-1.103-0.897-2-2-2H32c-1.103,0-2,0.897-2,2v22C30,54.103,30.897,55,32,55z M32,31h18   l0.001,22H32V31z" /></g><text x="0" y="79" fill="#fff" font-size="5px" font-weight="bold" font-family="'Helvetica Neue', Helvetica, Arial-Unicode, Arial, Sans-serif">Created by Eucalyp</text><text x="0" y="84" fill="#fff" font-size="5px" font-weight="bold" font-family="'Helvetica Neue', Helvetica, Arial-Unicode, Arial, Sans-serif">from the Noun Project</text></svg>