<?xml version="1.0" encoding="utf-8"?>
<!-- Generator: Adobe Illustrator 16.0.0, SVG Export Plug-In . SVG Version: 6.00 Build 0)  -->
<!DOCTYPE svg PUBLIC "-//W3C//DTD SVG 1.1//EN" "http://www.w3.org/Graphics/SVG/1.1/DTD/svg11.dtd">
<svg version="1.1" id="Layer_1" xmlns:xodm="http://www.corel.com/coreldraw/odm/2003"
	 xmlns="http://www.w3.org/2000/svg" xmlns:xlink="http://www.w3.org/1999/xlink" x="0px" y="0px" width="841.889px"
	 height="1190.551px" fill="#fff" viewBox="0 0 841.889 1190.551" enable-background="new 0 0 841.889 1190.551" xml:space="preserve">
<g>
	<path d="M462.36,289.823c10.59-10.64,17.153-25.286,17.153-41.465c0-32.347-26.222-58.568-58.568-58.568
		s-58.568,26.222-58.568,58.568c0,16.179,6.563,30.825,17.153,41.415C402.34,312.714,439.639,312.545,462.36,289.823L462.36,289.823
		z M462.36,680.997c10.59-10.64,17.153-25.286,17.153-41.465c0-32.347-26.222-58.559-58.568-58.559s-58.568,26.212-58.568,58.559
		c0,16.179,6.563,30.825,17.153,41.425C402.34,703.897,439.639,703.719,462.36,680.997L462.36,680.997z M487.825,686.605
		c36.782,7.518,63.799,40.242,63.799,78.048v37.219c0,6.404-5.19,11.604-11.595,11.604h-238.16c-6.403,0-11.604-5.2-11.604-11.604
		v-37.219c0-37.806,27.027-70.54,63.828-78.048c-9.396-13.305-14.925-29.553-14.925-47.073c0-45.154,36.622-81.767,81.776-81.767
		s81.776,36.612,81.776,81.767C502.721,657.052,497.202,673.291,487.825,686.605L487.825,686.605z M376.556,708.213
		c-34.285,0-63.082,19.589-63.082,56.44v25.614h214.952v-25.614c0-36.861-28.808-56.44-63.093-56.44
		C438.545,725.514,403.424,725.833,376.556,708.213z M203.308,527.089c10.59-10.64,17.153-25.296,17.153-41.465
		c0-32.347-26.222-58.568-58.568-58.568s-58.568,26.222-58.568,58.568c0,16.169,6.563,30.825,17.153,41.415
		C143.288,549.979,180.587,549.801,203.308,527.089L203.308,527.089z M721.403,527.089c10.6-10.64,17.162-25.296,17.162-41.465
		c0-32.347-26.231-58.568-58.568-58.568c-32.347,0-58.567,26.222-58.567,58.568c0,16.169,6.553,30.825,17.152,41.415
		C661.382,549.979,698.681,549.801,721.403,527.089L721.403,527.089z M746.867,532.687c36.782,7.518,63.809,40.242,63.809,78.058
		v37.209c0,6.414-5.2,11.604-11.604,11.604H560.921c-6.413,0-11.604-5.19-11.604-11.604v-37.209
		c0-37.815,27.026-70.55,63.818-78.058c-9.397-13.305-14.916-29.543-14.916-47.063c0-45.164,36.612-81.776,81.776-81.776
		c45.154,0,81.768,36.612,81.768,81.776C761.764,503.135,756.255,519.383,746.867,532.687L746.867,532.687z M635.609,554.304
		c-34.286,0-63.083,19.579-63.083,56.44v25.604h214.942v-25.604c0-36.861-28.807-56.44-63.083-56.44
		C697.597,571.596,662.476,571.925,635.609,554.304L635.609,554.304z M228.764,532.687c36.791,7.518,63.809,40.242,63.809,78.058
		v37.209c0,6.414-5.19,11.604-11.604,11.604H42.818c-6.404,0-11.604-5.19-11.604-11.604v-37.209
		c0-37.815,27.027-70.55,63.828-78.058c-9.406-13.305-14.925-29.543-14.925-47.063c0-45.164,36.622-81.776,81.776-81.776
		s81.776,36.612,81.776,81.776C243.669,503.135,238.151,519.383,228.764,532.687L228.764,532.687z M117.504,554.304
		c-34.286,0-63.082,19.579-63.082,56.44v25.604h214.941v-25.604c0-36.861-28.797-56.44-63.082-56.44
		C179.493,571.596,144.372,571.925,117.504,554.304L117.504,554.304z M553.762,370.029c23.298,19.111,42.311,43.235,55.485,70.342
		c-6.016,9.376-10.222,20.046-12.111,31.481c-9.059-26.679-24.014-50.653-43.294-70.342v-28.031
		C553.842,372.326,553.812,371.173,553.762,370.029z M584.846,661.776c-14.816,18.644-32.715,34.663-52.9,47.331
		c-5.608-6.065-12.151-11.296-19.39-15.462c14.667-8.313,28.101-18.555,39.934-30.397l2.685-2.725
		C560.324,662.87,578.403,661.776,584.846,661.776z M309.953,709.107c-20.195-12.668-38.094-28.677-52.91-47.331
		c6.443,0,24.541,1.094,29.683-1.253c12.906,13.185,26.479,23.994,42.598,33.132C322.085,697.822,315.562,703.042,309.953,709.107z
		 M232.642,440.371c13.186-27.146,32.188-51.2,55.485-70.353c-0.457,10.242-0.069,21.171-0.069,31.492
		c-19.291,19.688-34.246,43.652-43.305,70.352C242.864,460.417,238.657,449.758,232.642,440.371L232.642,440.371z M487.825,295.431
		c36.782,7.518,63.799,40.232,63.799,78.048v37.22c0,6.403-5.19,11.604-11.595,11.604h-238.16c-6.403,0-11.604-5.2-11.604-11.604
		v-37.22c0-37.815,27.027-70.54,63.828-78.048c-9.396-13.305-14.925-29.553-14.925-47.073c0-45.154,36.622-81.767,81.776-81.767
		s81.776,36.612,81.776,81.767C502.721,265.869,497.202,282.117,487.825,295.431L487.825,295.431z M376.556,317.039
		c-34.285,0-63.082,19.589-63.082,56.44v25.615h214.952v-25.615c0-36.861-28.808-56.44-63.093-56.44
		C438.545,334.341,403.424,334.659,376.556,317.039z"/>
</g>
</svg>
