<?xml version="1.0" encoding="iso-8859-1"?>
<!-- Generator: Adobe Illustrator 18.0.0, SVG Export Plug-In . SVG Version: 6.00 Build 0)  -->
<!DOCTYPE svg PUBLIC "-//W3C//DTD SVG 1.1//EN" "http://www.w3.org/Graphics/SVG/1.1/DTD/svg11.dtd">
<svg version="1.1" id="Capa_1" xmlns="http://www.w3.org/2000/svg" xmlns:xlink="http://www.w3.org/1999/xlink" x="0px" y="0px"
	 viewBox="0 0 446.371 446.371" style="enable-background:new 0 0 446.371 446.371;" xml:space="preserve" fill="#fff">
<g>
	<path d="M329.661,107.138l5.271-10.116l6.576,3.426l23.598-45.297l-55.362-28.844l-23.598,45.297l6.576,3.426l-5.233,10.044
		c-7.236-2.668-14.68-4.903-22.303-6.665V63.83h15.697V0H165.487v63.83h15.699v14.579C98.581,97.507,36.818,171.678,36.818,260.004
		c0,102.763,83.604,186.367,186.367,186.367c102.764,0,186.367-83.604,186.367-186.367
		C409.553,196.8,377.92,140.853,329.661,107.138z M316.117,46.541l28.757,14.982l-9.738,18.69l-28.757-14.982L316.117,46.541z
		 M306.026,81.961l15.604,8.129l-4.65,8.925c-5.051-2.954-10.253-5.675-15.591-8.153L306.026,81.961z M180.487,48.83V15h85.396
		v33.83h-0.697v-0.001h-84v0.001H180.487z M196.186,63.83h54v11.77c-8.818-1.285-17.832-1.963-27.001-1.963
		c-9.169,0-18.181,0.677-26.999,1.963V63.83z M223.185,431.371c-94.492,0-171.367-76.875-171.367-171.367
		S128.693,88.636,223.185,88.636s171.367,76.875,171.367,171.367S317.678,431.371,223.185,431.371z"/>
	<path d="M223.185,114.181c-80.407,0-145.822,65.416-145.822,145.822c0,80.406,65.416,145.822,145.822,145.822
		c80.406,0,145.822-65.416,145.822-145.822C369.008,179.597,303.592,114.181,223.185,114.181z M223.185,390.826
		c-72.136,0-130.822-58.687-130.822-130.822c0-72.136,58.687-130.822,130.822-130.822s130.822,58.687,130.822,130.822
		C354.008,332.139,295.321,390.826,223.185,390.826z"/>
	<path d="M246.299,252.505c-2.399-7.377-8.236-13.214-15.612-15.614v-57.334h-15v57.333c-7.378,2.4-13.215,8.237-15.614,15.615
		h-15.58v15h15.581c2.4,7.376,8.237,13.213,15.614,15.612v15.58h15v-15.581c7.376-2.4,13.212-8.235,15.612-15.611h87.082v-15
		H246.299z M223.185,269.306c-5.129,0-9.303-4.173-9.303-9.302c0-5.13,4.173-9.303,9.303-9.303c5.13,0,9.303,4.173,9.303,9.303
		C232.488,265.133,228.315,269.306,223.185,269.306z"/>
</g>
<g>
</g>
<g>
</g>
<g>
</g>
<g>
</g>
<g>
</g>
<g>
</g>
<g>
</g>
<g>
</g>
<g>
</g>
<g>
</g>
<g>
</g>
<g>
</g>
<g>
</g>
<g>
</g>
<g>
</g>
</svg>
