<?xml version="1.0" encoding="utf-8"?>
<!-- Generator: Adobe Illustrator 16.0.0, SVG Export Plug-In . SVG Version: 6.00 Build 0)  -->
<!DOCTYPE svg PUBLIC "-//W3C//DTD SVG 1.1//EN" "http://www.w3.org/Graphics/SVG/1.1/DTD/svg11.dtd">
<svg version="1.1" id="Layer_1" xmlns="http://www.w3.org/2000/svg" xmlns:xlink="http://www.w3.org/1999/xlink" x="0px" y="0px"
	 width="841.889px" height="1190.551px" viewBox="0 0 841.889 1190.551" enable-background="new 0 0 841.889 1190.551"
	 xml:space="preserve" fill="#fff">
<g>
	<path d="M828.735,381.856V282.5l-49.053-12.563c-3.842-12.431-8.813-24.441-14.813-35.833l25.796-43.541l-70.258-70.259
		L676.865,146.1c-11.378-5.998-23.389-10.971-35.832-14.812l-12.563-49.04h-99.355l-12.563,49.053
		c-12.432,3.841-24.441,8.813-35.833,14.813l-43.542-25.796l-14.522,14.549H223.627v-13.155c0-21.757-17.706-39.463-39.464-39.463
		h-52.618c-21.758,0-39.464,17.706-39.464,39.463v13.155H13.155v762.962h605.107V582.121h10.208l12.563-49.054
		c12.431-3.841,24.44-8.813,35.832-14.812l43.542,25.796l70.258-70.259l-25.796-43.541c5.999-11.379,10.971-23.389,14.813-35.833
		L828.735,381.856z M197.318,476.885h-26.309V266.412h26.309V476.885z M118.391,266.412h26.309v210.473h-26.309V266.412z
		 M185.9,503.193l-28.045,42.056l-28.046-42.056H185.9z M197.318,240.102h-78.927v-26.309h78.927V240.102z M157.855,592.683
		l42.12-63.181h23.652v105.236H92.081V529.503h23.652L157.855,592.683z M131.545,108.557h52.618c7.262,0,13.154,5.894,13.154,13.154
		v65.773h-78.927v-65.773C118.391,114.451,124.284,108.557,131.545,108.557z M591.953,871.52H39.463V161.176h52.618v332.85
		l6.117,9.168H65.773v157.854h184.163V503.193H217.51l6.117-9.168v-332.85h172.719l-29.4,29.4l25.796,43.542
		c-5.999,11.378-10.971,23.389-14.813,35.832l-49.066,12.563v99.355l49.054,12.563c3.841,12.432,8.813,24.441,14.812,35.833
		l-25.796,43.542l70.259,70.258l43.541-25.796c11.379,5.999,23.389,10.971,35.833,14.813l12.563,49.04h62.826V871.52z
		 M758.424,372.7l-2,7.406c-4.156,15.457-10.247,30.19-18.101,43.818l-3.841,6.656l23.139,39.042l-41.384,41.385l-39.043-23.139
		l-6.656,3.841c-13.628,7.854-28.361,13.943-43.817,18.101l-7.406,1.999l-11.26,44.002h-58.498l-11.261-44.002l-7.406-1.999
		c-15.456-4.157-30.189-10.247-43.817-18.101l-6.656-3.841l-39.043,23.139l-41.384-41.385l23.139-39.042l-3.841-6.656
		c-7.854-13.628-13.944-28.361-18.101-43.818l-2-7.406l-44.015-11.26v-58.498l44.002-11.261l1.999-7.405
		c4.157-15.457,10.247-30.19,18.101-43.818l3.842-6.656l-23.14-39.042l41.385-41.385l39.042,23.139l6.656-3.841
		c13.629-7.854,28.361-13.943,43.818-18.101l7.406-1.999l11.26-44.016h58.498l11.261,44.002l7.405,2
		c15.457,4.156,30.19,10.247,43.818,18.101l6.656,3.841l39.042-23.139l41.385,41.384l-23.139,39.043l3.841,6.656
		c7.854,13.628,13.943,28.361,18.101,43.817l1.999,7.406l44.016,11.26v58.498L758.424,372.7z"/>
	<path d="M578.799,174.33c-87.044,0-157.854,70.812-157.854,157.854c0,87.044,70.811,157.854,157.854,157.854
		c87.043,0,157.854-70.811,157.854-157.854C736.654,245.141,665.842,174.33,578.799,174.33z M578.799,463.73
		c-72.534,0-131.545-59.012-131.545-131.546s59.011-131.545,131.545-131.545s131.545,59.011,131.545,131.545
		S651.333,463.73,578.799,463.73z"/>
	<path d="M578.799,226.948c-58.024,0-105.236,47.212-105.236,105.236s47.212,105.236,105.236,105.236
		s105.236-47.212,105.236-105.236S636.823,226.948,578.799,226.948z M578.799,411.112c-43.528,0-78.928-35.399-78.928-78.928
		s35.399-78.927,78.928-78.927s78.927,35.398,78.927,78.927S622.327,411.112,578.799,411.112z"/>
	<path d="M253.79,664.902l-22.455,22.455H65.773v157.854h184.163V705.958l22.455-22.455L253.79,664.902z M223.627,818.902H92.081
		V713.666h112.945l-60.327,60.327l-17.009-17.009l-18.601,18.6l35.609,35.609l78.928-78.927V818.902z"/>
	<rect x="539.335" y="818.902" width="26.31" height="26.309"/>
	<rect x="276.245" y="818.902" width="236.781" height="26.309"/>
	<rect x="276.245" y="766.284" width="289.399" height="26.31"/>
	<rect x="276.245" y="713.666" width="289.399" height="26.31"/>
	<rect x="276.245" y="634.739" width="236.781" height="26.309"/>
	<rect x="276.245" y="582.121" width="236.781" height="26.309"/>
	<rect x="276.245" y="529.503" width="105.235" height="26.309"/>
</g>
</svg>
