<?xml version="1.0" encoding="utf-8"?>
<!-- Generator: Adobe Illustrator 16.0.0, SVG Export Plug-In . SVG Version: 6.00 Build 0)  -->
<!DOCTYPE svg PUBLIC "-//W3C//DTD SVG 1.1//EN" "http://www.w3.org/Graphics/SVG/1.1/DTD/svg11.dtd">
<svg version="1.1" id="Layer_1" xmlns="http://www.w3.org/2000/svg" xmlns:xlink="http://www.w3.org/1999/xlink" x="0px" y="0px"
	 width="841.889px" height="1190.551px" viewBox="0 0 841.889 1190.551" enable-background="new 0 0 841.889 1190.551"
	 xml:space="preserve" fill="#fff">
<g>
	<path d="M315.708,490.039c-50.776,0-92.081,41.306-92.081,92.082s41.305,92.081,92.081,92.081s92.082-41.305,92.082-92.081
		S366.485,490.039,315.708,490.039z M315.708,647.893c-36.267,0-65.772-29.506-65.772-65.772c0-36.268,29.506-65.772,65.772-65.772
		c36.268,0,65.772,29.505,65.772,65.772C381.481,618.387,351.976,647.893,315.708,647.893z"/>
	<path d="M315.708,542.657c-21.757,0-39.463,17.706-39.463,39.464s17.706,39.463,39.463,39.463
		c21.758,0,39.464-17.705,39.464-39.463S337.466,542.657,315.708,542.657z M315.708,595.275c-7.248,0-13.154-5.906-13.154-13.154
		s5.906-13.154,13.154-13.154s13.154,5.906,13.154,13.154S322.956,595.275,315.708,595.275z"/>
	<path d="M486.717,532.384l-31.781-7.933l16.851-28.071l-70.337-70.337l-28.071,16.851l-7.933-31.781h-99.475l-7.932,31.781
		l-28.072-16.852L159.63,496.38l16.851,28.071l-31.781,7.933v99.475l31.781,7.932l-16.851,28.072l60.511,60.523l37.109-10.247
		l8.721,34.991h99.475l8.734-34.991l37.109,10.247l60.511-60.523l-16.851-28.072l31.768-7.932V532.384z M460.408,611.31
		l-32.176,8.038l-6.617,16.048l17.049,28.414l-35.149,35.148l-36.464-10.063l-14.129,5.762l-8.023,32.162h-58.38l-8.037-32.176
		l-14.128-5.762l-36.465,10.063l-35.148-35.149l17.048-28.413l-6.577-16.036l-32.202-8.037v-58.38l32.176-8.037l6.604-16.075
		l-17.048-28.387l41.278-41.279l28.388,17.048l16.075-6.604l8.037-32.176h58.38l8.037,32.176l16.074,6.604l28.388-17.048
		l41.279,41.279l-17.049,28.387l6.604,16.075l32.176,8.037V611.31z"/>
	<path d="M828.735,687.357V221.503L689.481,82.249h-308v231.874c-21.126-5.195-43.067-8.247-65.772-8.247
		c-152.329,0-276.245,123.915-276.245,276.245c0,77.27,31.979,147.133,83.281,197.317H65.773v26.31h88.411
		c13.971,10.115,28.888,18.916,44.634,26.309H13.155v26.31h302.554h394.636v40.528l99.987-79.992l-99.987-79.992v40.528H508.593
		c27.27-26.467,48.409-57.748,62.576-92.081H828.735z M749.808,240.102v52.618H460.408V161.176H670.88v78.927H749.808z
		 M697.19,213.794v-86.636l86.636,86.636H697.19z M407.79,108.557h263.09v26.31H434.099V319.03h342.018v-78.928h26.31v420.945
		H580.562c7.484-25.217,11.392-51.724,11.392-78.927c0-119.996-77.046-222.088-184.163-260.131V108.557z M420.721,779.438
		c70.495-37.674,118.614-111.958,118.614-197.317c0-123.311-100.316-223.627-223.627-223.627S92.081,458.81,92.081,582.121
		s100.316,223.627,223.627,223.627h420.945v-12.089l31.558,25.243l-31.558,25.243v-12.089H315.708
		c-137.819,0-249.936-112.116-249.936-249.936c0-137.82,112.116-249.937,249.936-249.937c137.82,0,249.937,112.116,249.937,249.937
		c0,77.849-35.386,149.488-97.146,197.317H420.721z M315.708,779.438c-108.801,0-197.317-88.517-197.317-197.317
		s88.517-197.318,197.317-197.318s197.318,88.518,197.318,197.318S424.509,779.438,315.708,779.438z"/>
	<rect x="618.262" y="345.339" width="157.854" height="26.31"/>
	<rect x="618.262" y="397.957" width="157.854" height="26.31"/>
	<rect x="618.262" y="450.575" width="157.854" height="26.31"/>
	<rect x="618.262" y="503.193" width="157.854" height="26.31"/>
	<rect x="749.808" y="555.811" width="26.309" height="26.31"/>
	<rect x="618.262" y="555.811" width="105.236" height="26.31"/>
	<rect x="618.262" y="608.429" width="157.854" height="26.31"/>
	<rect x="13.155" y="779.438" width="26.309" height="26.31"/>
</g>
</svg>
