<?xml version="1.0" encoding="utf-8"?>
<!-- Generator: Adobe Illustrator 16.0.0, SVG Export Plug-In . SVG Version: 6.00 Build 0)  -->
<!DOCTYPE svg PUBLIC "-//W3C//DTD SVG 1.1//EN" "http://www.w3.org/Graphics/SVG/1.1/DTD/svg11.dtd">
<svg version="1.1" id="Layer_1" xmlns="http://www.w3.org/2000/svg" xmlns:xlink="http://www.w3.org/1999/xlink" x="0px" y="0px"
	 width="841.889px" height="1190.551px" viewBox="0 0 841.889 1190.551" enable-background="new 0 0 841.889 1190.551"
	 xml:space="preserve" fill="#fff">
<title>Artboard 20</title>
<g>
	<path d="M643.624,153.283H215.777c-26.047-0.001-47.214,21.016-47.398,47.062v34.35l-13.387,8.418
		c-3.962,2.433-5.202,7.617-2.771,11.58c1.637,2.666,4.617,4.204,7.738,3.995c1.522,0.001,3.014-0.438,4.293-1.263l4.126-3.115
		v81.158l-13.387,8.419c-4.132,2.132-5.753,7.21-3.621,11.342c1.63,3.158,5.066,4.953,8.589,4.486
		c1.522,0.001,3.014-0.438,4.293-1.264l4.126-3.114v81.158l-13.387,8.419c-4.132,2.132-5.753,7.21-3.621,11.342
		c1.63,3.158,5.066,4.953,8.589,4.485c1.522,0.001,3.014-0.438,4.293-1.263l4.126-3.115v81.158l-13.387,8.419
		c-4.132,2.132-5.753,7.21-3.621,11.342c1.63,3.158,5.066,4.953,8.589,4.486c1.522,0.001,3.014-0.438,4.293-1.264l4.126-3.114
		v81.158l-13.387,8.419c-4.132,2.132-5.753,7.21-3.621,11.342c1.63,3.157,5.066,4.952,8.589,4.485
		c1.522,0.001,3.014-0.438,4.293-1.263l4.126-3.115v81.158l-13.387,8.419c-4.132,2.132-5.753,7.21-3.621,11.342
		c1.63,3.158,5.066,4.953,8.589,4.485c1.522,0.001,3.014-0.438,4.293-1.263l4.126-3.114v20.036
		c0.046,26.145,21.254,47.314,47.398,47.314h427.848c25.898-0.093,46.817-21.162,46.725-47.061c0-0.001,0-0.001,0-0.001V200.344
		C690.443,174.446,669.524,153.376,643.624,153.283L643.624,153.283z M673.512,779.733c0.139,16.552-13.166,30.083-29.718,30.223
		c-0.057,0.001-0.113,0.001-0.17,0.001H215.777c-16.748,0.001-30.376-13.478-30.561-30.224v-30.561L205,736.966
		c3.739-2.412,4.957-7.317,2.778-11.197c-2.433-3.963-7.616-5.204-11.579-2.771c-0.042,0.025-0.083,0.051-0.123,0.077l-10.86,6.23
		v-81.158L205,635.938c3.739-2.411,4.957-7.317,2.778-11.197c-2.433-3.962-7.616-5.203-11.579-2.771
		c-0.042,0.025-0.083,0.051-0.123,0.077l-10.86,6.229v-81.158L205,534.912c3.739-2.412,4.957-7.317,2.778-11.197
		c-2.433-3.963-7.616-5.203-11.579-2.771c-0.042,0.025-0.083,0.052-0.123,0.077l-10.86,6.23v-81.158L205,433.885
		c3.739-2.411,4.957-7.316,2.778-11.197c-2.433-3.962-7.616-5.203-11.579-2.771c-0.042,0.025-0.083,0.051-0.123,0.077l-10.86,6.229
		v-81.158L205,332.858c3.739-2.412,4.957-7.317,2.778-11.197c-2.433-3.963-7.616-5.203-11.579-2.771
		c-0.042,0.025-0.083,0.052-0.123,0.077l-10.86,6.23v-81.158L205,231.831c3.739-2.411,4.957-7.316,2.778-11.196
		c-2.433-3.963-7.616-5.204-11.579-2.771c-0.042,0.025-0.083,0.051-0.123,0.077l-10.86,6.229v-23.825
		c0.185-16.746,13.813-30.225,30.561-30.224h427.848c16.553,0.046,29.934,13.501,29.888,30.054c0,0.057,0,0.113,0,0.17V779.733z"/>
	<path d="M496.715,490.039H387.269c-4.649,0-8.419,3.77-8.419,8.419v75.771c0,4.649,3.77,8.419,8.419,8.419h109.446
		c4.649,0,8.418-3.77,8.418-8.419v-33.676h33.676v43.188L534.6,581.3c-3.629-3.297-9.169-3.297-12.797,0
		c-3.384,3.167-3.571,8.473-0.421,11.871l15.912,16.164c1.547,1.535,3.629,2.41,5.809,2.441h0.589
		c2.238,0.013,4.389-0.865,5.978-2.441l16.165-16.164c3.264-3.284,3.264-8.587,0-11.871c-2.215-2.813-6.291-3.298-9.104-1.083
		c-0.403,0.316-0.767,0.681-1.084,1.083v-49.166c0-4.631-7.24-8.419-11.955-8.419h-38.559v-25.257
		C505.133,493.808,501.365,490.039,496.715,490.039z M488.296,565.809h-92.608v-58.933h92.608V565.809z"/>
	<path d="M281.697,352.895c1.589,1.575,3.739,2.454,5.978,2.441h0.673c2.238,0.013,4.389-0.866,5.978-2.441l16.164-16.165
		c3.265-3.283,3.265-8.587,0-11.87c-3.628-3.298-9.168-3.298-12.796,0l-3.031,2.104v-22.142h34.602
		c6.947,28.958,32.448,49.662,62.216,50.514h92.607c29.768-0.852,55.268-21.556,62.216-50.514h34.602v22.142l-3.199-2.104
		c-3.501-3.293-8.959-3.293-12.46,0c-3.264,3.283-3.264,8.587,0,11.87l15.659,16.165c1.568,1.555,3.685,2.432,5.894,2.441h0.673
		c2.238,0.013,4.389-0.866,5.978-2.441l16.164-16.165c3.265-3.283,3.265-8.587,0-11.87c-2.645-2.999-7.22-3.286-10.219-0.642
		c-0.227,0.2-0.441,0.414-0.642,0.642l-1.094,2.104V294.3c0-4.631-5.894-6.314-10.523-6.314h-39.906
		c-2.447-32.977-29.739-58.586-62.805-58.933h-92.607c-33.325-0.003-61.011,25.699-63.479,58.933H288.01
		c-4.63,0-10.187,1.684-10.187,6.314v32.665l-1.263-2.104c-3.018-3.162-8.027-3.278-11.188-0.261
		c-0.089,0.085-0.177,0.172-0.262,0.261c-3.264,3.283-3.264,8.587,0,11.87L281.697,352.895z M391.479,245.89h92.607
		c25.573,0,46.304,20.731,46.304,46.305c0,25.572-20.73,46.304-46.304,46.304l0,0h-92.607c-25.573,0-46.305-20.731-46.305-46.304
		C345.174,266.622,365.906,245.89,391.479,245.89z"/>
	<path d="M263.09,602.262c1.589,1.576,3.74,2.455,5.978,2.442h0.337c2.238,0.013,4.389-0.866,5.978-2.442l16.164-16.164
		c2.745-3.753,1.928-9.021-1.825-11.766c-2.906-2.125-6.842-2.167-9.793-0.104l-2.104,2.104V464.782h25.257v67.352
		c0,4.649,3.769,8.419,8.419,8.419h21.805l-1.768,1.768c-3.532,3.024-3.943,8.339-0.919,11.871
		c3.024,3.531,8.339,3.942,11.871,0.918c0.329-0.282,0.636-0.589,0.918-0.918l16.164-16.164c1.556-1.568,2.433-3.686,2.441-5.894
		l0,0l0,0c0.128-2.341-0.727-4.63-2.357-6.314l-16.164-16.164c-3.531-3.024-8.846-2.613-11.87,0.918
		c-2.699,3.152-2.699,7.801,0,10.952l2.441,2.442h-14.144v-59.186h84.188c4.649,0,8.419-3.769,8.419-8.419v-75.77
		c0-4.65-3.77-8.419-8.419-8.419H260.986c-4.649,0-8.419,3.769-8.419,8.419v75.77c0,4.65,3.77,8.419,8.419,8.419v111.551
		l-2.104-2.104c-3.531-3.024-8.847-2.613-11.871,0.918c-2.699,3.152-2.699,7.801,0,10.952L263.09,602.262z M269.405,389.012h126.283
		v58.932H269.405V389.012z"/>
	<path d="M622.998,372.175H479.877c-4.65,0-8.419,3.769-8.419,8.419v75.77c0,4.65,3.769,8.419,8.419,8.419h117.864v111.551
		l-2.104-2.104c-3.532-3.024-8.847-2.613-11.871,0.918c-2.699,3.151-2.699,7.801,0,10.952l16.164,16.164
		c1.589,1.576,3.74,2.455,5.978,2.441h0.253c2.237,0.014,4.389-0.865,5.978-2.441l16.164-16.164
		c2.745-3.753,1.928-9.021-1.825-11.766c-2.906-2.125-6.842-2.167-9.793-0.104l-2.104,2.104V464.782h8.419
		c4.649,0,8.419-3.769,8.419-8.419v-75.77C631.417,375.943,627.648,372.175,622.998,372.175z M614.579,447.944H488.296v-58.932
		h126.283V447.944z"/>
	<path d="M622.998,616.322H496.715c-4.65,0-8.419,3.77-8.419,8.419v75.771c0,4.649,3.769,8.419,8.419,8.419h126.283
		c4.649,0,8.419-3.77,8.419-8.419v-75.771C631.417,620.092,627.648,616.322,622.998,616.322z M614.579,692.093H505.133V633.16
		h109.446V692.093z"/>
	<path d="M452.516,593.844c-3.603-3.196-9.026-3.196-12.629,0l-16.164,16.165c-3.531,3.024-3.942,8.339-0.918,11.87
		c3.024,3.532,8.339,3.943,11.87,0.918c0.329-0.281,0.637-0.589,0.919-0.918l2.104-2.104v30.224h-50.43v-25.257
		c0-4.649-3.77-8.419-8.419-8.419H252.567c-4.649,0-8.419,3.77-8.419,8.419v75.771c0,4.649,3.77,8.419,8.419,8.419H378.85
		c4.649,0,8.419-3.77,8.419-8.419v-33.676h58.933c4.649,0,8.419-3.77,8.419-8.419v-38.643l2.104,2.104
		c3.024,3.532,8.339,3.943,11.871,0.918c3.531-3.024,3.942-8.339,0.918-11.87c-0.282-0.329-0.589-0.637-0.918-0.918L452.516,593.844
		z M370.431,692.093H260.986V633.16h109.445V692.093z"/>
</g>
</svg>
