<?xml version="1.0" encoding="utf-8"?>
<!-- Generator: Adobe Illustrator 16.0.0, SVG Export Plug-In . SVG Version: 6.00 Build 0)  -->
<!DOCTYPE svg PUBLIC "-//W3C//DTD SVG 1.1//EN" "http://www.w3.org/Graphics/SVG/1.1/DTD/svg11.dtd">
<svg version="1.1" id="Layer_1" xmlns="http://www.w3.org/2000/svg" xmlns:xlink="http://www.w3.org/1999/xlink" x="0px" y="0px"
	 width="841.889px" height="1190.551px" viewBox="0 0 841.889 1190.551" enable-background="new 0 0 841.889 1190.551"
	 xml:space="preserve" fill="#fff">
<path d="M502.963,568.967h325.771V397.641c0-29.282-18.837-54.591-46.869-62.997l-84.676-25.401v-19.995
	c23.822-16.667,39.464-44.252,39.464-75.454V174.33c0-50.776-41.318-92.081-92.082-92.081s-92.082,41.305-92.082,92.081v39.464
	c0,31.202,15.641,58.801,39.464,75.454v19.995l-35.136,10.55c-10.708-5.814-20.455-13.47-28.571-22.954l-4.236-4.934
	c-28.229-32.926-69.271-51.803-112.615-51.803c-56.499,0-105.684,31.769-130.717,78.362l-30.742-9.222v-19.995
	c23.823-16.667,39.464-44.252,39.464-75.454V174.33c0-50.776-41.318-92.081-92.082-92.081c-50.763,0-92.081,41.305-92.081,92.081
	v39.464c0,31.202,15.641,58.801,39.463,75.454v19.995l-84.676,25.401c-28.032,8.406-46.869,33.715-46.869,62.997v171.325h325.771
	c4.814,5.984,10.261,11.431,16.246,16.245v25.915l-99.632,22.994c-42.029,9.694-71.377,46.593-71.377,89.714v173.994h473.563
	V723.835c0-43.121-29.348-80.02-71.376-89.728l-99.633-22.98v-25.915C492.702,580.397,498.149,574.951,502.963,568.967z
	 M526.181,503.193v-62.944c14.154,5.367,24.704,17.824,26.125,32.702c1.078,11.313-2.5,22.14-10.076,30.453
	c-4.539,4.999-10.34,8.511-16.614,10.642C525.984,510.481,526.181,506.864,526.181,503.193z M518.656,542.065
	c16.403-1.434,31.899-8.669,43.055-20.942c12.431-13.681,18.561-32.136,16.785-50.658c-1.974-20.758-14.299-38.688-31.716-49.264
	c23.783-11.772,44.37-29.558,59.616-52.118l20.495,68.338h-34.938v105.236h-73.521C518.512,542.46,518.577,542.262,518.656,542.065z
	 M670.88,542.657h-52.618V463.73h52.618V542.657z M774.301,359.848c16.825,5.038,28.125,20.231,28.125,37.793v145.016h-52.618
	v-144.7h-26.31v144.7H697.19V437.421h-34.938l30.598-102.014L774.301,359.848z M578.799,213.794V174.33
	c0-36.267,29.506-65.772,65.772-65.772s65.772,29.506,65.772,65.772v39.464c0,36.267-29.506,65.772-65.772,65.772
	S578.799,250.06,578.799,213.794z M644.572,305.876c9.143,0,17.969-1.382,26.309-3.881v15.102l-26.309,87.701l-26.31-87.701v-15.102
	C626.603,304.494,635.429,305.876,644.572,305.876z M411.395,266.412c35.661,0,69.416,15.535,92.621,42.595l4.235,4.933
	c19.403,22.652,45.923,37.398,74.836,42.463c-24.046,34.123-62.971,54.71-105.684,54.71H331.125
	c-15.627,0-30.084,5.459-41.726,14.272v-36.978C289.4,321.148,344.122,266.412,411.395,266.412z M316.274,514.059
	c-6.287-2.131-12.075-5.644-16.613-10.643c-7.564-8.326-11.155-19.14-10.077-30.452c1.421-14.878,11.971-27.349,26.125-32.702
	v62.931C315.708,506.864,315.906,510.481,316.274,514.059z M131.545,213.794V174.33c0-36.267,29.506-65.772,65.772-65.772
	c36.268,0,65.772,29.506,65.772,65.772v39.464c0,36.267-29.505,65.772-65.772,65.772
	C161.051,279.566,131.545,250.06,131.545,213.794z M197.318,305.876c9.143,0,17.97-1.382,26.31-3.881v15.102l-26.31,87.701
	l-26.309-87.701v-15.102C179.349,304.494,188.175,305.876,197.318,305.876z M223.627,542.657h-52.618V463.73h52.618V542.657z
	 M39.463,397.641c0-17.562,11.3-32.755,28.125-37.793l81.452-24.441l30.598,102.014h-34.938v105.236h-26.309v-144.7h-26.31v144.7
	H39.463V397.641z M249.936,542.657V437.421h-34.938l30.598-102.014l24.73,7.42c-4.656,14.378-7.235,29.676-7.235,45.58v88.478h0.369
	c0.039,16.299,5.735,32.149,16.732,44.238c11.154,12.273,26.65,19.509,43.055,20.942c0.078,0.197,0.145,0.395,0.224,0.592H249.936
	L249.936,542.657z M342.018,503.193v-65.772h135.386c7.604,0,15.102-0.553,22.468-1.604v67.377
	c0,43.528-35.398,78.928-78.927,78.928S342.018,546.721,342.018,503.193z M476.562,635.778l3.96,0.907l-14.813,41.489l-22.85-17.127
	L476.562,635.778z M486.717,871.52H355.172v-52.618h131.545V871.52z M417.051,792.594l-31.598-88.491l35.491-26.611l35.491,26.611
	l-31.598,88.491H417.051z M376.193,678.175l-14.812-41.489l3.959-0.907l33.689,25.27L376.193,678.175z M210.472,723.835
	c0-30.809,20.969-57.157,50.975-64.089l74.125-17.114l53.552,149.962h-60.261v78.927h-26.309v-144.7h-26.309v144.7h-65.773V723.835z
	 M631.417,723.835V871.52h-65.772v-144.7h-26.31v144.7h-26.309v-78.927h-60.261l53.552-149.949l74.126,17.102
	C610.448,666.677,631.417,693.026,631.417,723.835z M460.408,615.007l-39.464,29.598l-39.464-29.598v-14.325
	c12.194,4.959,25.507,7.748,39.464,7.748s27.27-2.789,39.464-7.748V615.007z"/>
</svg>
