<?xml version="1.0" encoding="utf-8"?>
<!-- Generator: Adobe Illustrator 16.0.0, SVG Export Plug-In . SVG Version: 6.00 Build 0)  -->
<!DOCTYPE svg PUBLIC "-//W3C//DTD SVG 1.1//EN" "http://www.w3.org/Graphics/SVG/1.1/DTD/svg11.dtd">
<svg version="1.1" id="Layer_1" xmlns="http://www.w3.org/2000/svg" xmlns:xlink="http://www.w3.org/1999/xlink" x="0px" y="0px"
	 width="841.889px" height="1190.551px" viewBox="0 0 841.889 1190.551" enable-background="new 0 0 841.889 1190.551"
	 xml:space="preserve" fill="#fff">
<g>
	<g>
		<path d="M170.862,490.031h-26.743c0-152.636,124.179-276.814,276.826-276.814h13.365v50.421l78.653-78.657l-78.653-78.646v50.43
			h-13.365c-183.771,0-333.278,149.503-333.278,333.267H60.923c0-194.035,154.298-352.715,346.652-359.766V88.403
			c0-7.821,4.664-14.826,11.896-17.836c7.308-2.993,15.559-1.347,21.068,4.18L550.777,184.98L440.539,295.221
			c-5.519,5.526-13.769,7.189-21.014,4.201c-7.286-3.031-11.954-10.031-11.954-17.856v-41.257
			C275.866,247.284,170.862,356.629,170.862,490.031z"/>
	</g>
	<g>
		<path d="M414.98,910.984c-5.014,0-9.935-1.966-13.639-5.666L291.105,795.081l110.236-110.229
			c5.548-5.557,13.812-7.186,21.06-4.188c7.216,2.972,11.917,9.98,11.917,17.836v41.265
			c131.697-6.975,236.697-116.324,236.697-249.733h26.743c0,152.646-124.175,276.821-276.813,276.821h-13.369v-50.417
			l-78.653,78.646l78.653,78.646v-50.426h13.369c183.768,0,333.279-149.507,333.279-333.266h26.742
			c0,194.034-154.293,352.718-346.648,359.765v41.863c0,7.82-4.672,14.829-11.904,17.835
			C420.006,910.496,417.476,910.984,414.98,910.984z"/>
	</g>
	<g>
		<path d="M420.945,643.049c-84.378,0-153.021-68.64-153.021-153.018c0-84.366,68.644-153.01,153.021-153.01
			c84.374,0,153.021,68.64,153.021,153.01C573.966,574.409,505.319,643.049,420.945,643.049z M420.945,363.763
			c-69.629,0-126.279,56.647-126.279,126.268c0,69.637,56.65,126.274,126.279,126.274s126.279-56.638,126.279-126.274
			C547.224,420.411,490.573,363.763,420.945,363.763z"/>
		<polygon points="406.573,547.46 348.845,489.736 367.754,470.827 406.57,509.642 474.144,442.055 493.048,460.965 		"/>
	</g>
	<g>
		<path d="M256.507,764.474c-8.929-5.363-17.714-11.235-26.09-17.457l17.713-23.863c7.603,5.645,15.575,10.979,23.678,15.845
			L256.507,764.474z M206.157,727.086c-7.716-6.996-15.191-14.46-22.192-22.18l22.008-19.974
			c6.36,7.009,13.138,13.786,20.146,20.146L206.157,727.086z M164.038,680.664c-6.222-8.381-12.106-17.153-17.47-26.077
			l25.463-15.311c4.862,8.1,10.204,16.06,15.857,23.662L164.038,680.664z M131.735,626.926c-4.471-9.433-8.52-19.194-12.026-28.99
			l27.972-10.019c3.183,8.878,6.849,17.722,10.898,26.275L131.735,626.926z M110.586,567.885
			c-2.529-10.133-4.584-20.496-6.104-30.805l29.398-4.328c1.381,9.346,3.241,18.745,5.536,27.926L110.586,567.885z"/>
	</g>
	<g>
		<path d="M708.016,447.308c-1.38-9.365-3.245-18.757-5.535-27.912l28.822-7.22c2.53,10.111,4.584,20.475,6.116,30.805
			L708.016,447.308z M694.218,392.144c-3.204-8.916-6.87-17.747-10.911-26.28l26.848-12.729c4.458,9.4,8.508,19.149,12.035,28.982
			L694.218,392.144z M669.858,340.784c-4.887-8.111-10.217-16.075-15.857-23.665l23.852-17.722
			c6.213,8.368,12.094,17.141,17.465,26.082L669.858,340.784z M635.905,295.112c-6.336-6.988-13.112-13.753-20.134-20.126
			l19.948-22.015c7.741,7.021,15.217,14.484,22.201,22.191L635.905,295.112z M593.742,256.903
			c-7.594-5.641-15.563-10.966-23.678-15.845l15.297-25.476c8.949,5.375,17.726,11.248,26.09,17.469L593.742,256.903z"/>
	</g>
</g>
</svg>
