<?xml version="1.0" encoding="iso-8859-1"?>
<!-- Generator: Adobe Illustrator 19.0.0, SVG Export Plug-In . SVG Version: 6.00 Build 0)  -->
<svg version="1.1" id="Capa_1" xmlns="http://www.w3.org/2000/svg" xmlns:xlink="http://www.w3.org/1999/xlink" x="0px" y="0px"
	 viewBox="0 0 512 512.001" style="enable-background:new 0 0 512 512.001;" xml:space="preserve" fill="#fff">
<g>
	<g>
		<path d="M508.487,246.354c-1.322-1.575-32.93-39.013-79.355-76.967C365.507,117.373,307.257,91,256,91
			c-51.257,0-109.507,26.373-173.131,78.387c-46.426,37.954-78.033,75.392-79.355,76.967c-4.685,5.578-4.685,13.715,0,19.293
			c1.322,1.575,32.93,39.013,79.355,76.967C146.493,394.627,204.743,421,256,421s109.507-26.373,173.131-78.387
			c46.426-37.953,78.033-75.391,79.356-76.966C513.172,260.069,513.172,251.932,508.487,246.354z M256,391
			c-90.296,0-191.35-102.659-220.951-135.014C87.553,198.455,178.445,121,256,121c90.296,0,191.348,102.657,220.951,135.014
			C424.448,313.546,333.555,391,256,391z"/>
	</g>
</g>
<g>
	<g>
		<path d="M346,241c-8.284,0-15,6.716-15,15c0,41.355-33.645,75-75,75c-41.355,0-75-33.645-75-75c0-41.355,33.645-75,75-75
			c8.284,0,15-6.716,15-15s-6.716-15-15-15c-57.897,0-105,47.103-105,105s47.103,105,105,105c57.897,0,105-47.103,105-105
			C361,247.716,354.284,241,346,241z"/>
	</g>
</g>
<g>
	<g>
		<path d="M106.986,405.015c-5.858-5.858-15.356-5.858-21.213,0L4.394,486.394c-5.858,5.858-5.858,15.355,0,21.213
			c5.857,5.858,15.355,5.859,21.213,0l81.379-81.379C112.844,420.37,112.844,410.873,106.986,405.015z"/>
	</g>
</g>
<g>
	<g>
		<path d="M507.607,486.394l-81.379-81.379c-5.857-5.858-15.355-5.858-21.213,0c-5.858,5.858-5.858,15.355,0,21.213l81.379,81.379
			c5.857,5.858,15.355,5.859,21.213,0C513.465,501.749,513.465,492.252,507.607,486.394z"/>
	</g>
</g>
<g>
	<g>
		<path d="M106.986,85.773L25.607,4.394c-5.857-5.858-15.355-5.858-21.213,0c-5.858,5.858-5.858,15.355,0,21.213l81.379,81.379
			c5.857,5.858,15.355,5.859,21.213,0C112.844,101.128,112.844,91.631,106.986,85.773z"/>
	</g>
</g>
<g>
	<g>
		<path d="M507.607,4.394c-5.857-5.858-15.355-5.858-21.213,0l-81.379,81.379c-5.858,5.858-5.858,15.355,0,21.213
			c5.856,5.857,15.355,5.858,21.213,0l81.379-81.379C513.465,19.749,513.465,10.252,507.607,4.394z"/>
	</g>
</g>
<g>
	<g>
		<path d="M256,211c-24.813,0-45,20.187-45,45s20.187,45,45,45s45-20.187,45-45S280.813,211,256,211z M256,271
			c-8.271,0-15-6.729-15-15c0-8.271,6.729-15,15-15s15,6.729,15,15C271,264.271,264.271,271,256,271z"/>
	</g>
</g>
<g>
</g>
<g>
</g>
<g>
</g>
<g>
</g>
<g>
</g>
<g>
</g>
<g>
</g>
<g>
</g>
<g>
</g>
<g>
</g>
<g>
</g>
<g>
</g>
<g>
</g>
<g>
</g>
<g>
</g>
</svg>
