<?xml version="1.0" encoding="iso-8859-1"?>
<!-- Generator: Adobe Illustrator 19.0.0, SVG Export Plug-In . SVG Version: 6.00 Build 0)  -->
<svg version="1.1" id="Layer_1" xmlns="http://www.w3.org/2000/svg" xmlns:xlink="http://www.w3.org/1999/xlink" x="0px" y="0px"
	 viewBox="0 0 512 512" style="enable-background:new 0 0 512 512;" xml:space="preserve" fill="#fff">
<g>
	<g>
		<path d="M437.018,74.981C388.666,26.629,324.38,0,256,0S123.333,26.629,74.981,74.981S0,187.62,0,256
			s26.629,132.667,74.981,181.019C123.333,485.372,187.62,512,256,512c68.38,0,132.667-26.628,181.019-74.981
			C485.371,388.667,512,324.38,512,256C512,187.62,485.37,123.333,437.018,74.981z M425.94,425.94
			c-45.393,45.392-105.745,70.392-169.94,70.392S131.453,471.333,86.06,425.94C40.667,380.547,15.668,320.195,15.668,256
			S40.667,131.453,86.06,86.06C131.453,40.667,191.805,15.668,256,15.668S380.547,40.667,425.94,86.06
			c45.392,45.393,70.392,105.745,70.392,169.94S471.332,380.547,425.94,425.94z"/>
	</g>
</g>
<g>
	<g>
		<path d="M414.377,97.623C372.073,55.319,315.827,32.021,256,32.021S139.927,55.319,97.623,97.623
			C55.319,139.928,32.021,196.173,32.021,256s23.298,116.072,65.602,158.377c42.303,42.304,98.55,65.602,158.377,65.602
			s116.072-23.298,158.377-65.602c42.304-42.303,65.602-98.55,65.602-158.377S456.681,139.927,414.377,97.623z M256,464.311
			c-114.863,0-208.311-93.448-208.311-208.311S141.137,47.689,256,47.689s208.311,93.447,208.311,208.31
			S370.863,464.311,256,464.311z"/>
	</g>
</g>
<g>
	<g>
		<rect x="247.641" y="249.73" width="16.712" height="15.668"/>
	</g>
</g>
<g>
	<g>
		<path d="M386.018,127.14c-34.64-34.516-80.757-53.524-129.989-53.524s-95.393,19.009-130.033,53.524
			c-34.751,34.625-53.828,80.946-53.828,130.427v7.834h103.406v-7.834c0-19.296,6.778-37.47,19.023-51.891l39.853,39.853
			l11.078-11.078l-39.685-39.685c14.166-11.282,31.734-17.423,50.207-17.423c21.485,0,41.686,8.287,56.787,23.335
			c15.146,15.092,23.588,35.296,23.588,56.89v7.834h103.406v-7.834C439.832,208.085,420.769,161.765,386.018,127.14z
			 M351.582,249.733c-1.629-20.531-9.67-39.68-23.114-55.124l17.98-17.98l-11.078-11.078l-18.105,18.104
			c-15.557-12.908-34.65-20.466-54.998-21.759v-26.014h-15.667v26.243c-19.174,1.836-37.108,9.287-51.865,21.531l-33.262-33.262
			l-11.078,11.078l33.137,33.137c-13.445,15.444-21.485,34.593-23.114,55.124H87.891c1.898-42.324,19.165-81.663,49.104-111.494
			c31.683-31.57,73.947-48.956,119.005-48.956s87.321,17.387,119.005,48.956c29.94,29.832,47.206,69.17,49.104,111.494H351.582z"/>
	</g>
</g>
<g>
	<g>
		<path d="M128.085,288.193v95.721h255.829v-95.721H128.085z M368.246,368.246H143.753V303.86h224.494V368.246z"/>
	</g>
</g>
<g>
	<g>
		<rect x="247.641" y="401.183" width="16.712" height="15.668"/>
	</g>
</g>
<g>
	<g>
		<rect x="280.02" y="401.183" width="15.668" height="15.668"/>
	</g>
</g>
<g>
	<g>
		<rect x="216.306" y="401.183" width="15.668" height="15.668"/>
	</g>
</g>
<g>
	<g>
		<rect x="167.214" y="343.735" width="15.668" height="16.712"/>
	</g>
</g>
<g>
	<g>
		<rect x="199.594" y="319.711" width="15.667" height="40.736"/>
	</g>
</g>
<g>
	<g>
		<rect x="230.929" y="343.735" width="15.668" height="16.712"/>
	</g>
</g>
<g>
	<g>
		<rect x="263.308" y="319.711" width="15.668" height="40.736"/>
	</g>
</g>
<g>
	<g>
		<rect x="294.643" y="343.735" width="15.667" height="16.712"/>
	</g>
</g>
<g>
	<g>
		<rect x="327.023" y="319.711" width="15.668" height="40.736"/>
	</g>
</g>
<g>
</g>
<g>
</g>
<g>
</g>
<g>
</g>
<g>
</g>
<g>
</g>
<g>
</g>
<g>
</g>
<g>
</g>
<g>
</g>
<g>
</g>
<g>
</g>
<g>
</g>
<g>
</g>
<g>
</g>
</svg>
